<?xml version="1.0" encoding="utf-8" standalone="no"?>
<!DOCTYPE svg PUBLIC "-//W3C//DTD SVG 1.1//EN"
  "http://www.w3.org/Graphics/SVG/1.1/DTD/svg11.dtd">
<svg xmlns:xlink="http://www.w3.org/1999/xlink" width="354.387719pt" height="189.305781pt" viewBox="0 0 354.387719 189.305781" xmlns="http://www.w3.org/2000/svg" version="1.1">
 <metadata>
  <rdf:RDF xmlns:dc="http://purl.org/dc/elements/1.1/" xmlns:cc="http://creativecommons.org/ns#" xmlns:rdf="http://www.w3.org/1999/02/22-rdf-syntax-ns#">
   <cc:Work>
    <dc:type rdf:resource="http://purl.org/dc/dcmitype/StillImage"/>
    <dc:date>2023-12-12T15:12:28.262020</dc:date>
    <dc:format>image/svg+xml</dc:format>
    <dc:creator>
     <cc:Agent>
      <dc:title>Matplotlib v3.8.0, https://matplotlib.org/</dc:title>
     </cc:Agent>
    </dc:creator>
   </cc:Work>
  </rdf:RDF>
 </metadata>
 <defs>
  <style type="text/css">*{stroke-linejoin: round; stroke-linecap: butt}</style>
 </defs>
 <g id="figure_1">
  <g id="patch_1">
   <path d="M -0 189.305781 
L 354.387719 189.305781 
L 354.387719 0 
L -0 0 
L -0 189.305781 
z
" style="fill: none"/>
  </g>
  <g id="axes_1">
   <g id="patch_2">
    <path d="M 37.199531 157.118906 
L 218.549531 157.118906 
L 218.549531 18.518906 
L 37.199531 18.518906 
L 37.199531 157.118906 
z
" style="fill: none"/>
   </g>
   <g id="PolyCollection_1">
    <defs>
     <path id="m66701f1c6f" d="M 37.199531 -34.807675 
L 37.199531 -32.186875 
L 63.106674 -32.186875 
L 89.013817 -32.186875 
L 114.92096 -32.186875 
L 140.828103 -32.186875 
L 166.735246 -32.186875 
L 192.642388 -32.186875 
L 218.549531 -32.186875 
L 218.549531 -48.929755 
L 218.549531 -48.929755 
L 192.642388 -48.929755 
L 166.735246 -48.929755 
L 140.828103 -48.929755 
L 114.92096 -47.921755 
L 89.013817 -45.401755 
L 63.106674 -36.909355 
L 37.199531 -34.807675 
z
" style="stroke: #782281"/>
    </defs>
    <g clip-path="url(#p243df73e99)">
     <use xlink:href="#m66701f1c6f" x="0" y="189.305781" style="fill: #782281; stroke: #782281"/>
    </g>
   </g>
   <g id="PolyCollection_2">
    <defs>
     <path id="mc0d96c83ed" d="M 37.199531 -32.186875 
L 37.199531 -32.186875 
L 63.106674 -32.222155 
L 89.013817 -32.222155 
L 114.92096 -32.222155 
L 140.828103 -32.222155 
L 166.735246 -32.222155 
L 192.642388 -32.222155 
L 218.549531 -32.222155 
L 218.549531 -34.742155 
L 218.549531 -34.742155 
L 192.642388 -34.742155 
L 166.735246 -34.742155 
L 140.828103 -34.742155 
L 114.92096 -34.742155 
L 89.013817 -32.222155 
L 63.106674 -32.222155 
L 37.199531 -32.186875 
z
" style="stroke: #902a81"/>
    </defs>
    <g clip-path="url(#p243df73e99)">
     <use xlink:href="#mc0d96c83ed" x="0" y="189.305781" style="fill: #902a81; stroke: #902a81"/>
    </g>
   </g>
   <g id="PolyCollection_3">
    <defs>
     <path id="md8dab5c373" d="M 37.199531 -34.102075 
L 37.199531 -32.186875 
L 63.106674 -32.222155 
L 89.013817 -32.222155 
L 114.92096 -34.742155 
L 140.828103 -34.742155 
L 166.735246 -34.742155 
L 192.642388 -34.742155 
L 218.549531 -34.742155 
L 218.549531 -37.665355 
L 218.549531 -37.665355 
L 192.642388 -37.665355 
L 166.735246 -37.665355 
L 140.828103 -37.665355 
L 114.92096 -36.657355 
L 89.013817 -34.137355 
L 63.106674 -34.137355 
L 37.199531 -34.102075 
z
" style="stroke: #a6317d"/>
    </defs>
    <g clip-path="url(#p243df73e99)">
     <use xlink:href="#md8dab5c373" x="0" y="189.305781" style="fill: #a6317d; stroke: #a6317d"/>
    </g>
   </g>
   <g id="PolyCollection_4">
    <defs>
     <path id="m33fba23681" d="M 37.199531 -34.102075 
L 37.199531 -34.102075 
L 63.106674 -34.137355 
L 89.013817 -34.137355 
L 114.92096 -36.657355 
L 140.828103 -37.665355 
L 166.735246 -37.665355 
L 192.642388 -37.665355 
L 218.549531 -37.665355 
L 218.549531 -43.108555 
L 218.549531 -43.108555 
L 192.642388 -43.108555 
L 166.735246 -43.108555 
L 140.828103 -43.108555 
L 114.92096 -42.100555 
L 89.013817 -39.580555 
L 63.106674 -34.137355 
L 37.199531 -34.102075 
z
" style="stroke: #bd3977"/>
    </defs>
    <g clip-path="url(#p243df73e99)">
     <use xlink:href="#m33fba23681" x="0" y="189.305781" style="fill: #bd3977; stroke: #bd3977"/>
    </g>
   </g>
   <g id="PolyCollection_5">
    <defs>
     <path id="m78bfe65184" d="M 37.199531 -34.807675 
L 37.199531 -34.102075 
L 63.106674 -34.137355 
L 89.013817 -39.580555 
L 114.92096 -42.100555 
L 140.828103 -43.108555 
L 166.735246 -43.108555 
L 192.642388 -43.108555 
L 218.549531 -43.108555 
L 218.549531 -48.929755 
L 218.549531 -48.929755 
L 192.642388 -48.929755 
L 166.735246 -48.929755 
L 140.828103 -48.929755 
L 114.92096 -47.921755 
L 89.013817 -45.401755 
L 63.106674 -36.909355 
L 37.199531 -34.807675 
z
" style="stroke: #d5446d"/>
    </defs>
    <g clip-path="url(#p243df73e99)">
     <use xlink:href="#m78bfe65184" x="0" y="189.305781" style="fill: #d5446d; stroke: #d5446d"/>
    </g>
   </g>
   <g id="PolyCollection_6">
    <defs>
     <path id="ma7f5b0290e" d="M 37.199531 -35.110075 
L 37.199531 -34.807675 
L 63.106674 -36.909355 
L 89.013817 -45.401755 
L 114.92096 -47.921755 
L 140.828103 -48.929755 
L 166.735246 -48.929755 
L 192.642388 -48.929755 
L 218.549531 -48.929755 
L 218.549531 -64.311835 
L 218.549531 -64.311835 
L 192.642388 -64.311835 
L 166.735246 -64.311835 
L 140.828103 -64.311835 
L 114.92096 -56.802235 
L 89.013817 -52.215835 
L 63.106674 -42.513835 
L 37.199531 -35.110075 
z
" style="stroke: #e85362"/>
    </defs>
    <g clip-path="url(#p243df73e99)">
     <use xlink:href="#ma7f5b0290e" x="0" y="189.305781" style="fill: #e85362; stroke: #e85362"/>
    </g>
   </g>
   <g id="PolyCollection_7">
    <defs>
     <path id="m46945bb719" d="M 37.199531 -35.110075 
L 37.199531 -35.110075 
L 63.106674 -42.513835 
L 89.013817 -52.215835 
L 114.92096 -56.802235 
L 140.828103 -64.311835 
L 166.735246 -64.311835 
L 192.642388 -64.311835 
L 218.549531 -64.311835 
L 218.549531 -80.943835 
L 218.549531 -80.943835 
L 192.642388 -80.943835 
L 166.735246 -80.943835 
L 140.828103 -80.943835 
L 114.92096 -65.118235 
L 89.013817 -52.215835 
L 63.106674 -42.513835 
L 37.199531 -35.110075 
z
" style="stroke: #f56b5c"/>
    </defs>
    <g clip-path="url(#p243df73e99)">
     <use xlink:href="#m46945bb719" x="0" y="189.305781" style="fill: #f56b5c; stroke: #f56b5c"/>
    </g>
   </g>
   <g id="PolyCollection_8">
    <defs>
     <path id="ma7a0349a6e" d="M 37.199531 -35.110075 
L 37.199531 -35.110075 
L 63.106674 -42.513835 
L 89.013817 -52.215835 
L 114.92096 -65.118235 
L 140.828103 -80.943835 
L 166.735246 -80.943835 
L 192.642388 -80.943835 
L 218.549531 -80.943835 
L 218.549531 -100.751035 
L 218.549531 -100.751035 
L 192.642388 -100.751035 
L 166.735246 -100.751035 
L 140.828103 -100.751035 
L 114.92096 -84.925435 
L 89.013817 -65.420635 
L 63.106674 -52.442635 
L 37.199531 -35.110075 
z
" style="stroke: #fb8560"/>
    </defs>
    <g clip-path="url(#p243df73e99)">
     <use xlink:href="#ma7a0349a6e" x="0" y="189.305781" style="fill: #fb8560; stroke: #fb8560"/>
    </g>
   </g>
   <g id="PolyCollection_9">
    <defs>
     <path id="m0952bfc7cd" d="M 37.199531 -35.110075 
L 37.199531 -35.110075 
L 63.106674 -52.442635 
L 89.013817 -65.420635 
L 114.92096 -84.925435 
L 140.828103 -100.751035 
L 166.735246 -100.751035 
L 192.642388 -100.751035 
L 218.549531 -100.751035 
L 218.549531 -115.921435 
L 218.549531 -115.921435 
L 192.642388 -115.921435 
L 166.735246 -115.921435 
L 140.828103 -115.921435 
L 114.92096 -99.037435 
L 89.013817 -79.532635 
L 63.106674 -52.442635 
L 37.199531 -35.110075 
z
" style="stroke: #641a80"/>
    </defs>
    <g clip-path="url(#p243df73e99)">
     <use xlink:href="#m0952bfc7cd" x="0" y="189.305781" style="fill: #641a80; stroke: #641a80"/>
    </g>
   </g>
   <g id="PolyCollection_10">
    <defs>
     <path id="ma2503da4e1" d="M 37.199531 -35.185675 
L 37.199531 -35.110075 
L 63.106674 -52.442635 
L 89.013817 -79.532635 
L 114.92096 -99.037435 
L 140.828103 -115.921435 
L 166.735246 -115.921435 
L 192.642388 -115.921435 
L 218.549531 -115.921435 
L 218.549531 -158.338075 
L 218.549531 -158.338075 
L 192.642388 -158.338075 
L 166.735246 -158.338075 
L 140.828103 -154.936075 
L 114.92096 -125.774635 
L 89.013817 -95.443915 
L 63.106674 -65.314795 
L 37.199531 -35.185675 
z
" style="stroke: #3b0f70"/>
    </defs>
    <g clip-path="url(#p243df73e99)">
     <use xlink:href="#ma2503da4e1" x="0" y="189.305781" style="fill: #3b0f70; stroke: #3b0f70"/>
    </g>
   </g>
   <g id="matplotlib.axis_1">
    <g id="xtick_1">
     <g id="line2d_1">
      <defs>
       <path id="md5109703ae" d="M 0 0 
L 0 3.5 
" style="stroke: #000000; stroke-width: 0.8"/>
      </defs>
      <g>
       <use xlink:href="#md5109703ae" x="37.199531" y="157.118906" style="stroke: #000000; stroke-width: 0.8"/>
      </g>
     </g>
     <g id="text_1">
      <!-- 2023 -->
      <g transform="translate(29.195469 169.437813) scale(0.07 -0.07)">
       <defs>
        <path id="OpenSans-Regular-32" d="M 3309 0 
L 316 0 
L 316 434 
L 1538 1675 
Q 1878 2019 2111 2287 
Q 2344 2556 2466 2817 
Q 2588 3078 2588 3391 
Q 2588 3778 2358 3983 
Q 2128 4188 1753 4188 
Q 1425 4188 1172 4075 
Q 919 3963 653 3756 
L 375 4106 
Q 556 4259 770 4378 
Q 984 4497 1229 4565 
Q 1475 4634 1753 4634 
Q 2175 4634 2481 4487 
Q 2788 4341 2955 4069 
Q 3122 3797 3122 3422 
Q 3122 3059 2978 2748 
Q 2834 2438 2575 2133 
Q 2316 1828 1969 1488 
L 975 497 
L 975 475 
L 3309 475 
L 3309 0 
z
" transform="scale(0.015625)"/>
        <path id="OpenSans-Regular-30" d="M 3334 2291 
Q 3334 1734 3250 1296 
Q 3166 859 2984 556 
Q 2803 253 2515 95 
Q 2228 -63 1825 -63 
Q 1316 -63 983 215 
Q 650 494 486 1020 
Q 322 1547 322 2291 
Q 322 3022 470 3548 
Q 619 4075 950 4358 
Q 1281 4641 1825 4641 
Q 2341 4641 2675 4361 
Q 3009 4081 3171 3554 
Q 3334 3028 3334 2291 
z
M 844 2291 
Q 844 1653 941 1228 
Q 1038 803 1255 592 
Q 1472 381 1825 381 
Q 2178 381 2395 590 
Q 2613 800 2711 1225 
Q 2809 1650 2809 2291 
Q 2809 2919 2712 3342 
Q 2616 3766 2400 3980 
Q 2184 4194 1825 4194 
Q 1466 4194 1250 3980 
Q 1034 3766 939 3342 
Q 844 2919 844 2291 
z
" transform="scale(0.015625)"/>
        <path id="OpenSans-Regular-33" d="M 3141 3503 
Q 3141 3197 3022 2972 
Q 2903 2747 2690 2605 
Q 2478 2463 2191 2406 
L 2191 2381 
Q 2734 2313 3007 2031 
Q 3281 1750 3281 1294 
Q 3281 897 3095 590 
Q 2909 284 2526 110 
Q 2144 -63 1547 -63 
Q 1184 -63 876 -5 
Q 569 53 288 188 
L 288 675 
Q 572 534 906 454 
Q 1241 375 1553 375 
Q 2178 375 2456 623 
Q 2734 872 2734 1303 
Q 2734 1600 2579 1783 
Q 2425 1966 2136 2052 
Q 1847 2138 1441 2138 
L 984 2138 
L 984 2581 
L 1444 2581 
Q 1816 2581 2075 2690 
Q 2334 2800 2470 2998 
Q 2606 3197 2606 3469 
Q 2606 3816 2375 4005 
Q 2144 4194 1747 4194 
Q 1503 4194 1303 4144 
Q 1103 4094 928 4006 
Q 753 3919 578 3803 
L 316 4159 
Q 566 4353 925 4493 
Q 1284 4634 1741 4634 
Q 2441 4634 2791 4315 
Q 3141 3997 3141 3503 
z
" transform="scale(0.015625)"/>
       </defs>
       <use xlink:href="#OpenSans-Regular-32"/>
       <use xlink:href="#OpenSans-Regular-30" x="57.177734"/>
       <use xlink:href="#OpenSans-Regular-32" x="114.355469"/>
       <use xlink:href="#OpenSans-Regular-33" x="171.533203"/>
      </g>
     </g>
    </g>
    <g id="xtick_2">
     <g id="line2d_2">
      <g>
       <use xlink:href="#md5109703ae" x="63.106674" y="157.118906" style="stroke: #000000; stroke-width: 0.8"/>
      </g>
     </g>
     <g id="text_2">
      <!-- 2024 -->
      <g transform="translate(55.102612 169.437813) scale(0.07 -0.07)">
       <defs>
        <path id="OpenSans-Regular-34" d="M 3538 1059 
L 2853 1059 
L 2853 0 
L 2347 0 
L 2347 1059 
L 138 1059 
L 138 1497 
L 2313 4594 
L 2853 4594 
L 2853 1528 
L 3538 1528 
L 3538 1059 
z
M 2347 1528 
L 2347 3022 
Q 2347 3194 2350 3333 
Q 2353 3472 2359 3592 
Q 2366 3713 2370 3822 
Q 2375 3931 2378 4038 
L 2353 4038 
Q 2294 3913 2217 3773 
Q 2141 3634 2063 3525 
L 653 1528 
L 2347 1528 
z
" transform="scale(0.015625)"/>
       </defs>
       <use xlink:href="#OpenSans-Regular-32"/>
       <use xlink:href="#OpenSans-Regular-30" x="57.177734"/>
       <use xlink:href="#OpenSans-Regular-32" x="114.355469"/>
       <use xlink:href="#OpenSans-Regular-34" x="171.533203"/>
      </g>
     </g>
    </g>
    <g id="xtick_3">
     <g id="line2d_3">
      <g>
       <use xlink:href="#md5109703ae" x="89.013817" y="157.118906" style="stroke: #000000; stroke-width: 0.8"/>
      </g>
     </g>
     <g id="text_3">
      <!-- 2025 -->
      <g transform="translate(81.009754 169.437813) scale(0.07 -0.07)">
       <defs>
        <path id="OpenSans-Regular-35" d="M 1759 2794 
Q 2225 2794 2569 2636 
Q 2913 2478 3102 2178 
Q 3291 1878 3291 1450 
Q 3291 981 3087 642 
Q 2884 303 2503 120 
Q 2122 -63 1591 -63 
Q 1234 -63 928 0 
Q 622 63 413 188 
L 413 681 
Q 641 544 966 462 
Q 1291 381 1597 381 
Q 1944 381 2205 492 
Q 2466 603 2611 829 
Q 2756 1056 2756 1400 
Q 2756 1856 2476 2104 
Q 2197 2353 1594 2353 
Q 1400 2353 1169 2322 
Q 938 2291 788 2253 
L 525 2425 
L 700 4569 
L 2972 4569 
L 2972 4094 
L 1144 4094 
L 1028 2716 
Q 1147 2741 1334 2767 
Q 1522 2794 1759 2794 
z
" transform="scale(0.015625)"/>
       </defs>
       <use xlink:href="#OpenSans-Regular-32"/>
       <use xlink:href="#OpenSans-Regular-30" x="57.177734"/>
       <use xlink:href="#OpenSans-Regular-32" x="114.355469"/>
       <use xlink:href="#OpenSans-Regular-35" x="171.533203"/>
      </g>
     </g>
    </g>
    <g id="xtick_4">
     <g id="line2d_4">
      <g>
       <use xlink:href="#md5109703ae" x="114.92096" y="157.118906" style="stroke: #000000; stroke-width: 0.8"/>
      </g>
     </g>
     <g id="text_4">
      <!-- 2026 -->
      <g transform="translate(106.916897 169.437813) scale(0.07 -0.07)">
       <defs>
        <path id="OpenSans-Regular-36" d="M 363 1953 
Q 363 2366 420 2759 
Q 478 3153 615 3492 
Q 753 3831 990 4087 
Q 1228 4344 1583 4489 
Q 1938 4634 2434 4634 
Q 2575 4634 2737 4620 
Q 2900 4606 3006 4575 
L 3006 4128 
Q 2891 4169 2742 4187 
Q 2594 4206 2444 4206 
Q 1863 4206 1530 3953 
Q 1197 3700 1050 3267 
Q 903 2834 881 2294 
L 916 2294 
Q 1013 2450 1163 2576 
Q 1313 2703 1527 2778 
Q 1741 2853 2025 2853 
Q 2425 2853 2723 2690 
Q 3022 2528 3186 2218 
Q 3350 1909 3350 1469 
Q 3350 997 3175 653 
Q 3000 309 2676 123 
Q 2353 -63 1906 -63 
Q 1572 -63 1290 65 
Q 1009 194 801 447 
Q 594 700 478 1076 
Q 363 1453 363 1953 
z
M 1900 375 
Q 2325 375 2581 647 
Q 2838 919 2838 1469 
Q 2838 1919 2609 2181 
Q 2381 2444 1922 2444 
Q 1609 2444 1378 2314 
Q 1147 2184 1019 1987 
Q 891 1791 891 1588 
Q 891 1381 952 1168 
Q 1013 956 1138 775 
Q 1263 594 1453 484 
Q 1644 375 1900 375 
z
" transform="scale(0.015625)"/>
       </defs>
       <use xlink:href="#OpenSans-Regular-32"/>
       <use xlink:href="#OpenSans-Regular-30" x="57.177734"/>
       <use xlink:href="#OpenSans-Regular-32" x="114.355469"/>
       <use xlink:href="#OpenSans-Regular-36" x="171.533203"/>
      </g>
     </g>
    </g>
    <g id="xtick_5">
     <g id="line2d_5">
      <g>
       <use xlink:href="#md5109703ae" x="140.828103" y="157.118906" style="stroke: #000000; stroke-width: 0.8"/>
      </g>
     </g>
     <g id="text_5">
      <!-- 2027 -->
      <g transform="translate(132.82404 169.437813) scale(0.07 -0.07)">
       <defs>
        <path id="OpenSans-Regular-37" d="M 906 0 
L 2781 4094 
L 291 4094 
L 291 4569 
L 3338 4569 
L 3338 4169 
L 1475 0 
L 906 0 
z
" transform="scale(0.015625)"/>
       </defs>
       <use xlink:href="#OpenSans-Regular-32"/>
       <use xlink:href="#OpenSans-Regular-30" x="57.177734"/>
       <use xlink:href="#OpenSans-Regular-32" x="114.355469"/>
       <use xlink:href="#OpenSans-Regular-37" x="171.533203"/>
      </g>
     </g>
    </g>
    <g id="xtick_6">
     <g id="line2d_6">
      <g>
       <use xlink:href="#md5109703ae" x="166.735246" y="157.118906" style="stroke: #000000; stroke-width: 0.8"/>
      </g>
     </g>
     <g id="text_6">
      <!-- 2028 -->
      <g transform="translate(158.731183 169.437813) scale(0.07 -0.07)">
       <defs>
        <path id="OpenSans-Regular-38" d="M 1825 4634 
Q 2222 4634 2528 4509 
Q 2834 4384 3007 4142 
Q 3181 3900 3181 3547 
Q 3181 3269 3061 3061 
Q 2941 2853 2737 2698 
Q 2534 2544 2288 2422 
Q 2581 2288 2817 2119 
Q 3053 1950 3190 1722 
Q 3328 1494 3328 1181 
Q 3328 797 3142 517 
Q 2956 238 2622 87 
Q 2288 -63 1838 -63 
Q 1353 -63 1014 82 
Q 675 228 498 501 
Q 322 775 322 1159 
Q 322 1475 456 1708 
Q 591 1941 812 2109 
Q 1034 2278 1297 2394 
Q 1069 2519 880 2678 
Q 691 2838 580 3052 
Q 469 3266 469 3550 
Q 469 3897 645 4139 
Q 822 4381 1130 4507 
Q 1438 4634 1825 4634 
z
M 831 1156 
Q 831 806 1078 579 
Q 1325 353 1825 353 
Q 2300 353 2559 579 
Q 2819 806 2819 1175 
Q 2819 1403 2700 1576 
Q 2581 1750 2362 1887 
Q 2144 2025 1847 2138 
L 1734 2178 
Q 1447 2059 1245 1914 
Q 1044 1769 937 1584 
Q 831 1400 831 1156 
z
M 1819 4209 
Q 1450 4209 1215 4032 
Q 981 3856 981 3525 
Q 981 3288 1095 3123 
Q 1209 2959 1406 2842 
Q 1603 2725 1847 2625 
Q 2084 2725 2268 2845 
Q 2453 2966 2559 3131 
Q 2666 3297 2666 3528 
Q 2666 3859 2433 4034 
Q 2200 4209 1819 4209 
z
" transform="scale(0.015625)"/>
       </defs>
       <use xlink:href="#OpenSans-Regular-32"/>
       <use xlink:href="#OpenSans-Regular-30" x="57.177734"/>
       <use xlink:href="#OpenSans-Regular-32" x="114.355469"/>
       <use xlink:href="#OpenSans-Regular-38" x="171.533203"/>
      </g>
     </g>
    </g>
    <g id="xtick_7">
     <g id="line2d_7">
      <g>
       <use xlink:href="#md5109703ae" x="192.642388" y="157.118906" style="stroke: #000000; stroke-width: 0.8"/>
      </g>
     </g>
     <g id="text_7">
      <!-- 2029 -->
      <g transform="translate(184.638326 169.437813) scale(0.07 -0.07)">
       <defs>
        <path id="OpenSans-Regular-39" d="M 3316 2622 
Q 3316 2206 3258 1812 
Q 3200 1419 3061 1078 
Q 2922 738 2684 481 
Q 2447 225 2089 79 
Q 1731 -66 1234 -66 
Q 1100 -66 928 -48 
Q 756 -31 647 0 
L 647 450 
Q 763 409 919 386 
Q 1075 363 1225 363 
Q 1809 363 2143 614 
Q 2478 866 2625 1298 
Q 2772 1731 2791 2272 
L 2753 2272 
Q 2659 2122 2507 1995 
Q 2356 1869 2140 1792 
Q 1925 1716 1638 1716 
Q 1241 1716 945 1878 
Q 650 2041 486 2350 
Q 322 2659 322 3097 
Q 322 3569 501 3914 
Q 681 4259 1006 4446 
Q 1331 4634 1772 4634 
Q 2109 4634 2390 4506 
Q 2672 4378 2880 4123 
Q 3088 3869 3202 3494 
Q 3316 3119 3316 2622 
z
M 1772 4194 
Q 1356 4194 1098 3922 
Q 841 3650 841 3103 
Q 841 2650 1062 2387 
Q 1284 2125 1747 2125 
Q 2066 2125 2298 2253 
Q 2531 2381 2657 2578 
Q 2784 2775 2784 2981 
Q 2784 3188 2723 3400 
Q 2663 3613 2538 3792 
Q 2413 3972 2222 4083 
Q 2031 4194 1772 4194 
z
" transform="scale(0.015625)"/>
       </defs>
       <use xlink:href="#OpenSans-Regular-32"/>
       <use xlink:href="#OpenSans-Regular-30" x="57.177734"/>
       <use xlink:href="#OpenSans-Regular-32" x="114.355469"/>
       <use xlink:href="#OpenSans-Regular-39" x="171.533203"/>
      </g>
     </g>
    </g>
    <g id="xtick_8">
     <g id="line2d_8">
      <g>
       <use xlink:href="#md5109703ae" x="218.549531" y="157.118906" style="stroke: #000000; stroke-width: 0.8"/>
      </g>
     </g>
     <g id="text_8">
      <!-- 2030 -->
      <g transform="translate(210.545469 169.437813) scale(0.07 -0.07)">
       <use xlink:href="#OpenSans-Regular-32"/>
       <use xlink:href="#OpenSans-Regular-30" x="57.177734"/>
       <use xlink:href="#OpenSans-Regular-33" x="114.355469"/>
       <use xlink:href="#OpenSans-Regular-30" x="171.533203"/>
      </g>
     </g>
    </g>
    <g id="text_9">
     <!-- year -->
     <g transform="translate(120.780469 180.420313) scale(0.07 -0.07)">
      <defs>
       <path id="OpenSans-Regular-79" d="M 6 3425 
L 563 3425 
L 1319 1438 
Q 1384 1263 1440 1102 
Q 1497 941 1540 794 
Q 1584 647 1609 509 
L 1631 509 
Q 1675 666 1756 920 
Q 1838 1175 1931 1441 
L 2647 3425 
L 3206 3425 
L 1716 -503 
Q 1597 -819 1439 -1053 
Q 1281 -1288 1056 -1414 
Q 831 -1541 513 -1541 
Q 366 -1541 253 -1523 
Q 141 -1506 59 -1484 
L 59 -1069 
Q 128 -1084 226 -1096 
Q 325 -1109 431 -1109 
Q 625 -1109 767 -1036 
Q 909 -963 1012 -822 
Q 1116 -681 1191 -488 
L 1378 -6 
L 6 3425 
z
" transform="scale(0.015625)"/>
       <path id="OpenSans-Regular-65" d="M 1866 3488 
Q 2303 3488 2615 3294 
Q 2928 3100 3093 2751 
Q 3259 2403 3259 1938 
L 3259 1616 
L 894 1616 
Q 903 1013 1193 697 
Q 1484 381 2013 381 
Q 2338 381 2588 440 
Q 2838 500 3106 616 
L 3106 159 
Q 2847 44 2592 -9 
Q 2338 -63 1991 -63 
Q 1497 -63 1130 139 
Q 763 341 559 731 
Q 356 1122 356 1688 
Q 356 2241 542 2645 
Q 728 3050 1067 3269 
Q 1406 3488 1866 3488 
z
M 1859 3063 
Q 1444 3063 1197 2791 
Q 950 2519 903 2031 
L 2716 2031 
Q 2713 2338 2620 2570 
Q 2528 2803 2340 2933 
Q 2153 3063 1859 3063 
z
" transform="scale(0.015625)"/>
       <path id="OpenSans-Regular-61" d="M 1828 3481 
Q 2441 3481 2737 3206 
Q 3034 2931 3034 2328 
L 3034 0 
L 2656 0 
L 2556 506 
L 2531 506 
Q 2388 319 2231 192 
Q 2075 66 1870 1 
Q 1666 -63 1369 -63 
Q 1056 -63 814 46 
Q 572 156 433 378 
Q 294 600 294 941 
Q 294 1453 700 1728 
Q 1106 2003 1938 2028 
L 2528 2053 
L 2528 2263 
Q 2528 2706 2337 2884 
Q 2147 3063 1800 3063 
Q 1531 3063 1287 2984 
Q 1044 2906 825 2800 
L 666 3194 
Q 897 3313 1197 3397 
Q 1497 3481 1828 3481 
z
M 2522 1688 
L 2000 1666 
Q 1359 1641 1096 1456 
Q 834 1272 834 934 
Q 834 641 1012 500 
Q 1191 359 1484 359 
Q 1941 359 2231 612 
Q 2522 866 2522 1372 
L 2522 1688 
z
" transform="scale(0.015625)"/>
       <path id="OpenSans-Regular-72" d="M 2103 3488 
Q 2206 3488 2318 3477 
Q 2431 3466 2519 3447 
L 2453 2966 
Q 2369 2988 2266 3000 
Q 2163 3013 2072 3013 
Q 1866 3013 1683 2930 
Q 1500 2847 1362 2692 
Q 1225 2538 1147 2320 
Q 1069 2103 1069 1838 
L 1069 0 
L 547 0 
L 547 3425 
L 978 3425 
L 1034 2794 
L 1056 2794 
Q 1163 2984 1313 3142 
Q 1463 3300 1661 3394 
Q 1859 3488 2103 3488 
z
" transform="scale(0.015625)"/>
      </defs>
      <use xlink:href="#OpenSans-Regular-79"/>
      <use xlink:href="#OpenSans-Regular-65" x="50.097656"/>
      <use xlink:href="#OpenSans-Regular-61" x="106.25"/>
      <use xlink:href="#OpenSans-Regular-72" x="161.816406"/>
     </g>
    </g>
   </g>
   <g id="matplotlib.axis_2">
    <g id="ytick_1">
     <g id="line2d_9">
      <defs>
       <path id="mcb92731999" d="M 0 0 
L -3.5 0 
" style="stroke: #000000; stroke-width: 0.8"/>
      </defs>
      <g>
       <use xlink:href="#mcb92731999" x="37.199531" y="157.118906" style="stroke: #000000; stroke-width: 0.8"/>
      </g>
     </g>
     <g id="text_10">
      <!-- 0 -->
      <g transform="translate(26.1975 159.778359) scale(0.07 -0.07)">
       <use xlink:href="#OpenSans-Regular-30"/>
      </g>
     </g>
    </g>
    <g id="ytick_2">
     <g id="line2d_10">
      <g>
       <use xlink:href="#mcb92731999" x="37.199531" y="131.918906" style="stroke: #000000; stroke-width: 0.8"/>
      </g>
     </g>
     <g id="text_11">
      <!-- 50 -->
      <g transform="translate(22.195469 134.578359) scale(0.07 -0.07)">
       <use xlink:href="#OpenSans-Regular-35"/>
       <use xlink:href="#OpenSans-Regular-30" x="57.177734"/>
      </g>
     </g>
    </g>
    <g id="ytick_3">
     <g id="line2d_11">
      <g>
       <use xlink:href="#mcb92731999" x="37.199531" y="106.718906" style="stroke: #000000; stroke-width: 0.8"/>
      </g>
     </g>
     <g id="text_12">
      <!-- 100 -->
      <g transform="translate(18.193438 109.378359) scale(0.07 -0.07)">
       <defs>
        <path id="OpenSans-Regular-31" d="M 2247 0 
L 1741 0 
L 1741 3238 
Q 1741 3422 1742 3555 
Q 1744 3688 1748 3798 
Q 1753 3909 1763 4025 
Q 1666 3925 1581 3854 
Q 1497 3784 1372 3681 
L 850 3263 
L 578 3616 
L 1816 4569 
L 2247 4569 
L 2247 0 
z
" transform="scale(0.015625)"/>
       </defs>
       <use xlink:href="#OpenSans-Regular-31"/>
       <use xlink:href="#OpenSans-Regular-30" x="57.177734"/>
       <use xlink:href="#OpenSans-Regular-30" x="114.355469"/>
      </g>
     </g>
    </g>
    <g id="ytick_4">
     <g id="line2d_12">
      <g>
       <use xlink:href="#mcb92731999" x="37.199531" y="81.518906" style="stroke: #000000; stroke-width: 0.8"/>
      </g>
     </g>
     <g id="text_13">
      <!-- 150 -->
      <g transform="translate(18.193438 84.178359) scale(0.07 -0.07)">
       <use xlink:href="#OpenSans-Regular-31"/>
       <use xlink:href="#OpenSans-Regular-35" x="57.177734"/>
       <use xlink:href="#OpenSans-Regular-30" x="114.355469"/>
      </g>
     </g>
    </g>
    <g id="ytick_5">
     <g id="line2d_13">
      <g>
       <use xlink:href="#mcb92731999" x="37.199531" y="56.318906" style="stroke: #000000; stroke-width: 0.8"/>
      </g>
     </g>
     <g id="text_14">
      <!-- 200 -->
      <g transform="translate(18.193438 58.978359) scale(0.07 -0.07)">
       <use xlink:href="#OpenSans-Regular-32"/>
       <use xlink:href="#OpenSans-Regular-30" x="57.177734"/>
       <use xlink:href="#OpenSans-Regular-30" x="114.355469"/>
      </g>
     </g>
    </g>
    <g id="ytick_6">
     <g id="line2d_14">
      <g>
       <use xlink:href="#mcb92731999" x="37.199531" y="31.118906" style="stroke: #000000; stroke-width: 0.8"/>
      </g>
     </g>
     <g id="text_15">
      <!-- 250 -->
      <g transform="translate(18.193438 33.778359) scale(0.07 -0.07)">
       <use xlink:href="#OpenSans-Regular-32"/>
       <use xlink:href="#OpenSans-Regular-35" x="57.177734"/>
       <use xlink:href="#OpenSans-Regular-30" x="114.355469"/>
      </g>
     </g>
    </g>
    <g id="ytick_7">
     <g id="line2d_15">
      <defs>
       <path id="mf114cda4d8" d="M 0 0 
L -2 0 
" style="stroke: #000000; stroke-width: 0.6"/>
      </defs>
      <g>
       <use xlink:href="#mf114cda4d8" x="37.199531" y="144.518906" style="stroke: #000000; stroke-width: 0.6"/>
      </g>
     </g>
    </g>
    <g id="ytick_8">
     <g id="line2d_16">
      <g>
       <use xlink:href="#mf114cda4d8" x="37.199531" y="119.318906" style="stroke: #000000; stroke-width: 0.6"/>
      </g>
     </g>
    </g>
    <g id="ytick_9">
     <g id="line2d_17">
      <g>
       <use xlink:href="#mf114cda4d8" x="37.199531" y="94.118906" style="stroke: #000000; stroke-width: 0.6"/>
      </g>
     </g>
    </g>
    <g id="ytick_10">
     <g id="line2d_18">
      <g>
       <use xlink:href="#mf114cda4d8" x="37.199531" y="68.918906" style="stroke: #000000; stroke-width: 0.6"/>
      </g>
     </g>
    </g>
    <g id="ytick_11">
     <g id="line2d_19">
      <g>
       <use xlink:href="#mf114cda4d8" x="37.199531" y="43.718906" style="stroke: #000000; stroke-width: 0.6"/>
      </g>
     </g>
    </g>
    <g id="ytick_12">
     <g id="line2d_20">
      <g>
       <use xlink:href="#mf114cda4d8" x="37.199531" y="18.518906" style="stroke: #000000; stroke-width: 0.6"/>
      </g>
     </g>
    </g>
    <g id="text_16">
     <!-- mtpa -->
     <g transform="translate(12.518906 96.392813) rotate(-90) scale(0.07 -0.07)">
      <defs>
       <path id="OpenSans-Regular-6d" d="M 4266 3488 
Q 4831 3488 5118 3192 
Q 5406 2897 5406 2244 
L 5406 0 
L 4894 0 
L 4894 2219 
Q 4894 2634 4714 2842 
Q 4534 3050 4181 3050 
Q 3684 3050 3459 2762 
Q 3234 2475 3234 1916 
L 3234 0 
L 2719 0 
L 2719 2219 
Q 2719 2497 2639 2681 
Q 2559 2866 2401 2958 
Q 2244 3050 2003 3050 
Q 1663 3050 1456 2909 
Q 1250 2769 1158 2492 
Q 1066 2216 1066 1813 
L 1066 0 
L 547 0 
L 547 3425 
L 966 3425 
L 1044 2941 
L 1072 2941 
Q 1175 3119 1331 3241 
Q 1488 3363 1681 3425 
Q 1875 3488 2094 3488 
Q 2484 3488 2748 3342 
Q 3013 3197 3131 2900 
L 3159 2900 
Q 3328 3197 3622 3342 
Q 3916 3488 4266 3488 
z
" transform="scale(0.015625)"/>
       <path id="OpenSans-Regular-74" d="M 1653 363 
Q 1781 363 1915 384 
Q 2050 406 2134 438 
L 2134 34 
Q 2044 -6 1883 -34 
Q 1722 -63 1569 -63 
Q 1297 -63 1075 32 
Q 853 128 720 356 
Q 588 584 588 988 
L 588 3019 
L 100 3019 
L 100 3272 
L 591 3475 
L 797 4219 
L 1109 4219 
L 1109 3425 
L 2113 3425 
L 2113 3019 
L 1109 3019 
L 1109 1003 
Q 1109 681 1257 522 
Q 1406 363 1653 363 
z
" transform="scale(0.015625)"/>
       <path id="OpenSans-Regular-70" d="M 2156 3488 
Q 2797 3488 3178 3047 
Q 3559 2606 3559 1722 
Q 3559 1138 3384 741 
Q 3209 344 2892 140 
Q 2575 -63 2144 -63 
Q 1872 -63 1665 9 
Q 1459 81 1312 203 
Q 1166 325 1069 469 
L 1031 469 
Q 1041 347 1055 175 
Q 1069 3 1069 -125 
L 1069 -1531 
L 547 -1531 
L 547 3425 
L 975 3425 
L 1044 2919 
L 1069 2919 
Q 1169 3075 1312 3204 
Q 1456 3334 1664 3411 
Q 1872 3488 2156 3488 
z
M 2066 3050 
Q 1709 3050 1492 2912 
Q 1275 2775 1175 2501 
Q 1075 2228 1069 1816 
L 1069 1716 
Q 1069 1281 1164 981 
Q 1259 681 1479 525 
Q 1700 369 2072 369 
Q 2391 369 2603 541 
Q 2816 713 2920 1020 
Q 3025 1328 3025 1728 
Q 3025 2334 2789 2692 
Q 2553 3050 2066 3050 
z
" transform="scale(0.015625)"/>
      </defs>
      <use xlink:href="#OpenSans-Regular-6d"/>
      <use xlink:href="#OpenSans-Regular-74" x="92.578125"/>
      <use xlink:href="#OpenSans-Regular-70" x="128.222656"/>
      <use xlink:href="#OpenSans-Regular-61" x="189.404297"/>
     </g>
    </g>
   </g>
   <g id="patch_3">
    <path d="M 37.199531 157.118906 
L 37.199531 18.518906 
" style="fill: none; stroke: #000000; stroke-width: 0.8; stroke-linejoin: miter; stroke-linecap: square"/>
   </g>
   <g id="patch_4">
    <path d="M 37.199531 157.118906 
L 218.549531 157.118906 
" style="fill: none; stroke: #000000; stroke-width: 0.8; stroke-linejoin: miter; stroke-linecap: square"/>
   </g>
   <g id="text_17">
    <!-- Regional Buildout -->
    <g transform="translate(99.159219 12.518906) scale(0.07 -0.07)">
     <defs>
      <path id="OpenSans-Regular-52" d="M 1859 4569 
Q 2422 4569 2789 4430 
Q 3156 4291 3337 4006 
Q 3519 3722 3519 3281 
Q 3519 2919 3387 2676 
Q 3256 2434 3043 2284 
Q 2831 2134 2591 2053 
L 3844 0 
L 3225 0 
L 2106 1906 
L 1156 1906 
L 1156 0 
L 625 0 
L 625 4569 
L 1859 4569 
z
M 1828 4109 
L 1156 4109 
L 1156 2356 
L 1881 2356 
Q 2441 2356 2705 2584 
Q 2969 2813 2969 3256 
Q 2969 3722 2689 3915 
Q 2409 4109 1828 4109 
z
" transform="scale(0.015625)"/>
      <path id="OpenSans-Regular-67" d="M 1503 -1538 
Q 828 -1538 462 -1286 
Q 97 -1034 97 -581 
Q 97 -259 301 -31 
Q 506 197 869 272 
Q 734 334 639 459 
Q 544 584 544 747 
Q 544 934 648 1076 
Q 753 1219 969 1350 
Q 700 1459 533 1720 
Q 366 1981 366 2328 
Q 366 2697 519 2958 
Q 672 3219 962 3356 
Q 1253 3494 1666 3494 
Q 1756 3494 1848 3486 
Q 1941 3478 2025 3464 
Q 2109 3450 2172 3431 
L 3347 3431 
L 3347 3097 
L 2716 3019 
Q 2809 2897 2871 2725 
Q 2934 2553 2934 2344 
Q 2934 1831 2587 1529 
Q 2241 1228 1634 1228 
Q 1491 1228 1341 1253 
Q 1188 1169 1108 1066 
Q 1028 963 1028 828 
Q 1028 728 1089 668 
Q 1150 609 1265 582 
Q 1381 556 1544 556 
L 2147 556 
Q 2706 556 3004 322 
Q 3303 88 3303 -363 
Q 3303 -931 2840 -1234 
Q 2378 -1538 1503 -1538 
z
M 1519 -1131 
Q 1944 -1131 2223 -1045 
Q 2503 -959 2642 -798 
Q 2781 -638 2781 -416 
Q 2781 -209 2687 -104 
Q 2594 0 2412 36 
Q 2231 72 1969 72 
L 1375 72 
Q 1144 72 972 0 
Q 800 -72 708 -212 
Q 616 -353 616 -563 
Q 616 -841 850 -986 
Q 1084 -1131 1519 -1131 
z
M 1653 1606 
Q 2025 1606 2212 1793 
Q 2400 1981 2400 2341 
Q 2400 2725 2209 2917 
Q 2019 3109 1647 3109 
Q 1291 3109 1098 2911 
Q 906 2713 906 2331 
Q 906 1981 1100 1793 
Q 1294 1606 1653 1606 
z
" transform="scale(0.015625)"/>
      <path id="OpenSans-Regular-69" d="M 1066 3425 
L 1066 0 
L 547 0 
L 547 3425 
L 1066 3425 
z
M 813 4706 
Q 941 4706 1033 4623 
Q 1125 4541 1125 4366 
Q 1125 4194 1033 4109 
Q 941 4025 813 4025 
Q 678 4025 589 4109 
Q 500 4194 500 4366 
Q 500 4541 589 4623 
Q 678 4706 813 4706 
z
" transform="scale(0.015625)"/>
      <path id="OpenSans-Regular-6f" d="M 3500 1719 
Q 3500 1297 3390 965 
Q 3281 634 3075 406 
Q 2869 178 2576 57 
Q 2284 -63 1916 -63 
Q 1572 -63 1286 57 
Q 1000 178 792 406 
Q 584 634 470 965 
Q 356 1297 356 1719 
Q 356 2281 547 2676 
Q 738 3072 1092 3280 
Q 1447 3488 1938 3488 
Q 2406 3488 2757 3278 
Q 3109 3069 3304 2673 
Q 3500 2278 3500 1719 
z
M 894 1719 
Q 894 1306 1003 1003 
Q 1113 700 1341 534 
Q 1569 369 1928 369 
Q 2284 369 2514 534 
Q 2744 700 2853 1003 
Q 2963 1306 2963 1719 
Q 2963 2128 2853 2426 
Q 2744 2725 2516 2887 
Q 2288 3050 1925 3050 
Q 1391 3050 1142 2697 
Q 894 2344 894 1719 
z
" transform="scale(0.015625)"/>
      <path id="OpenSans-Regular-6e" d="M 2169 3488 
Q 2778 3488 3090 3189 
Q 3403 2891 3403 2231 
L 3403 0 
L 2891 0 
L 2891 2197 
Q 2891 2625 2695 2837 
Q 2500 3050 2097 3050 
Q 1528 3050 1297 2728 
Q 1066 2406 1066 1794 
L 1066 0 
L 547 0 
L 547 3425 
L 966 3425 
L 1044 2931 
L 1072 2931 
Q 1181 3113 1350 3236 
Q 1519 3359 1728 3423 
Q 1938 3488 2169 3488 
z
" transform="scale(0.015625)"/>
      <path id="OpenSans-Regular-6c" d="M 1069 0 
L 547 0 
L 547 4863 
L 1069 4863 
L 1069 0 
z
" transform="scale(0.015625)"/>
      <path id="OpenSans-Regular-20" transform="scale(0.015625)"/>
      <path id="OpenSans-Regular-42" d="M 625 4569 
L 1919 4569 
Q 2775 4569 3206 4312 
Q 3638 4056 3638 3441 
Q 3638 3175 3536 2964 
Q 3434 2753 3240 2615 
Q 3047 2478 2763 2425 
L 2763 2394 
Q 3063 2347 3294 2222 
Q 3525 2097 3656 1872 
Q 3788 1647 3788 1300 
Q 3788 878 3592 587 
Q 3397 297 3040 148 
Q 2684 0 2197 0 
L 625 0 
L 625 4569 
z
M 1156 2609 
L 2031 2609 
Q 2628 2609 2858 2806 
Q 3088 3003 3088 3381 
Q 3088 3772 2814 3944 
Q 2541 4116 1944 4116 
L 1156 4116 
L 1156 2609 
z
M 1156 2163 
L 1156 453 
L 2106 453 
Q 2716 453 2969 692 
Q 3222 931 3222 1338 
Q 3222 1597 3108 1781 
Q 2994 1966 2739 2064 
Q 2484 2163 2059 2163 
L 1156 2163 
z
" transform="scale(0.015625)"/>
      <path id="OpenSans-Regular-75" d="M 3375 3425 
L 3375 0 
L 2950 0 
L 2875 481 
L 2847 481 
Q 2741 303 2572 181 
Q 2403 59 2192 -2 
Q 1981 -63 1744 -63 
Q 1338 -63 1063 68 
Q 788 200 648 475 
Q 509 750 509 1181 
L 509 3425 
L 1034 3425 
L 1034 1219 
Q 1034 791 1228 580 
Q 1422 369 1819 369 
Q 2200 369 2426 512 
Q 2653 656 2753 936 
Q 2853 1216 2853 1622 
L 2853 3425 
L 3375 3425 
z
" transform="scale(0.015625)"/>
      <path id="OpenSans-Regular-64" d="M 1766 -63 
Q 1116 -63 736 381 
Q 356 825 356 1700 
Q 356 2584 743 3036 
Q 1131 3488 1775 3488 
Q 2047 3488 2250 3416 
Q 2453 3344 2600 3223 
Q 2747 3103 2847 2950 
L 2884 2950 
Q 2872 3047 2859 3215 
Q 2847 3384 2847 3491 
L 2847 4863 
L 3366 4863 
L 3366 0 
L 2947 0 
L 2869 488 
L 2847 488 
Q 2750 334 2601 209 
Q 2453 84 2248 10 
Q 2044 -63 1766 -63 
z
M 1847 369 
Q 2397 369 2625 681 
Q 2853 994 2853 1609 
L 2853 1703 
Q 2853 2356 2636 2706 
Q 2419 3056 1847 3056 
Q 1369 3056 1131 2689 
Q 894 2322 894 1688 
Q 894 1056 1130 712 
Q 1366 369 1847 369 
z
" transform="scale(0.015625)"/>
     </defs>
     <use xlink:href="#OpenSans-Regular-52"/>
     <use xlink:href="#OpenSans-Regular-65" x="61.71875"/>
     <use xlink:href="#OpenSans-Regular-67" x="117.871094"/>
     <use xlink:href="#OpenSans-Regular-69" x="172.167969"/>
     <use xlink:href="#OpenSans-Regular-6f" x="197.412109"/>
     <use xlink:href="#OpenSans-Regular-6e" x="257.568359"/>
     <use xlink:href="#OpenSans-Regular-61" x="318.896484"/>
     <use xlink:href="#OpenSans-Regular-6c" x="374.462891"/>
     <use xlink:href="#OpenSans-Regular-20" x="399.707031"/>
     <use xlink:href="#OpenSans-Regular-42" x="425.683594"/>
     <use xlink:href="#OpenSans-Regular-75" x="490.283203"/>
     <use xlink:href="#OpenSans-Regular-69" x="551.611328"/>
     <use xlink:href="#OpenSans-Regular-6c" x="576.855469"/>
     <use xlink:href="#OpenSans-Regular-64" x="602.099609"/>
     <use xlink:href="#OpenSans-Regular-6f" x="663.28125"/>
     <use xlink:href="#OpenSans-Regular-75" x="723.4375"/>
     <use xlink:href="#OpenSans-Regular-74" x="784.765625"/>
    </g>
   </g>
   <g id="legend_1">
    <g id="patch_5">
     <path d="M 226.663031 31.523812 
L 231.913031 31.523812 
L 231.913031 26.623812 
L 226.663031 26.623812 
z
" style="fill: #3b0f70; stroke: #3b0f70; stroke-linejoin: miter"/>
    </g>
    <g id="text_18">
     <!-- United States -->
     <g transform="translate(237.513031 31.523812) scale(0.07 -0.07)">
      <defs>
       <path id="OpenSans-Regular-55" d="M 4081 4569 
L 4081 1613 
Q 4081 1128 3886 750 
Q 3691 372 3297 154 
Q 2903 -63 2309 -63 
Q 1463 -63 1020 396 
Q 578 856 578 1625 
L 578 4569 
L 1113 4569 
L 1113 1609 
Q 1113 1028 1420 712 
Q 1728 397 2341 397 
Q 2759 397 3026 548 
Q 3294 700 3423 973 
Q 3553 1247 3553 1606 
L 3553 4569 
L 4081 4569 
z
" transform="scale(0.015625)"/>
       <path id="OpenSans-Regular-53" d="M 3203 1216 
Q 3203 809 3001 523 
Q 2800 238 2437 87 
Q 2075 -63 1584 -63 
Q 1325 -63 1094 -38 
Q 863 -13 669 34 
Q 475 81 328 150 
L 328 659 
Q 563 563 900 480 
Q 1238 397 1606 397 
Q 1950 397 2187 489 
Q 2425 581 2548 754 
Q 2672 928 2672 1172 
Q 2672 1406 2569 1564 
Q 2466 1722 2227 1851 
Q 1988 1981 1575 2128 
Q 1284 2231 1062 2354 
Q 841 2478 691 2634 
Q 541 2791 464 2997 
Q 388 3203 388 3469 
Q 388 3834 573 4095 
Q 759 4356 1089 4495 
Q 1419 4634 1847 4634 
Q 2213 4634 2523 4565 
Q 2834 4497 3094 4381 
L 2928 3925 
Q 2681 4028 2404 4097 
Q 2128 4166 1834 4166 
Q 1541 4166 1339 4080 
Q 1138 3994 1031 3837 
Q 925 3681 925 3466 
Q 925 3225 1026 3065 
Q 1128 2906 1351 2782 
Q 1575 2659 1944 2525 
Q 2347 2378 2628 2214 
Q 2909 2050 3056 1814 
Q 3203 1578 3203 1216 
z
" transform="scale(0.015625)"/>
       <path id="OpenSans-Regular-73" d="M 2763 938 
Q 2763 609 2598 386 
Q 2434 163 2129 50 
Q 1825 -63 1403 -63 
Q 1044 -63 781 -6 
Q 519 50 322 153 
L 322 631 
Q 531 528 822 443 
Q 1113 359 1416 359 
Q 1859 359 2059 503 
Q 2259 647 2259 894 
Q 2259 1034 2179 1142 
Q 2100 1250 1912 1351 
Q 1725 1453 1394 1575 
Q 1066 1700 827 1823 
Q 588 1947 458 2125 
Q 328 2303 328 2588 
Q 328 3022 679 3255 
Q 1031 3488 1603 3488 
Q 1913 3488 2183 3427 
Q 2453 3366 2688 3263 
L 2513 2847 
Q 2300 2938 2059 3000 
Q 1819 3063 1569 3063 
Q 1209 3063 1017 2944 
Q 825 2825 825 2619 
Q 825 2459 914 2356 
Q 1003 2253 1200 2162 
Q 1397 2072 1719 1950 
Q 2041 1831 2275 1704 
Q 2509 1578 2636 1398 
Q 2763 1219 2763 938 
z
" transform="scale(0.015625)"/>
      </defs>
      <use xlink:href="#OpenSans-Regular-55"/>
      <use xlink:href="#OpenSans-Regular-6e" x="72.900391"/>
      <use xlink:href="#OpenSans-Regular-69" x="134.228516"/>
      <use xlink:href="#OpenSans-Regular-74" x="159.472656"/>
      <use xlink:href="#OpenSans-Regular-65" x="195.117188"/>
      <use xlink:href="#OpenSans-Regular-64" x="251.269531"/>
      <use xlink:href="#OpenSans-Regular-20" x="312.451172"/>
      <use xlink:href="#OpenSans-Regular-53" x="338.427734"/>
      <use xlink:href="#OpenSans-Regular-74" x="393.261719"/>
      <use xlink:href="#OpenSans-Regular-61" x="428.90625"/>
      <use xlink:href="#OpenSans-Regular-74" x="484.472656"/>
      <use xlink:href="#OpenSans-Regular-65" x="520.117188"/>
      <use xlink:href="#OpenSans-Regular-73" x="576.269531"/>
     </g>
    </g>
    <g id="patch_6">
     <path d="M 226.663031 42.01725 
L 231.913031 42.01725 
L 231.913031 37.11725 
L 226.663031 37.11725 
z
" style="fill: #641a80; stroke: #641a80; stroke-linejoin: miter"/>
    </g>
    <g id="text_19">
     <!-- Other Northern America -->
     <g transform="translate(237.513031 42.01725) scale(0.07 -0.07)">
      <defs>
       <path id="OpenSans-Regular-4f" d="M 4588 2291 
Q 4588 1763 4453 1330 
Q 4319 897 4055 586 
Q 3791 275 3400 106 
Q 3009 -63 2494 -63 
Q 1963 -63 1567 106 
Q 1172 275 911 587 
Q 650 900 520 1334 
Q 391 1769 391 2297 
Q 391 2997 622 3525 
Q 853 4053 1323 4347 
Q 1794 4641 2503 4641 
Q 3181 4641 3645 4350 
Q 4109 4059 4348 3532 
Q 4588 3006 4588 2291 
z
M 950 2291 
Q 950 1709 1115 1284 
Q 1281 859 1623 628 
Q 1966 397 2494 397 
Q 3025 397 3364 628 
Q 3703 859 3865 1284 
Q 4028 1709 4028 2291 
Q 4028 3175 3658 3673 
Q 3288 4172 2503 4172 
Q 1972 4172 1628 3944 
Q 1284 3716 1117 3295 
Q 950 2875 950 2291 
z
" transform="scale(0.015625)"/>
       <path id="OpenSans-Regular-68" d="M 1066 4863 
L 1066 3409 
Q 1066 3284 1059 3157 
Q 1053 3031 1038 2925 
L 1072 2925 
Q 1178 3106 1342 3229 
Q 1506 3353 1715 3417 
Q 1925 3481 2159 3481 
Q 2572 3481 2848 3350 
Q 3125 3219 3264 2944 
Q 3403 2669 3403 2231 
L 3403 0 
L 2891 0 
L 2891 2197 
Q 2891 2625 2695 2837 
Q 2500 3050 2097 3050 
Q 1716 3050 1489 2904 
Q 1263 2759 1164 2478 
Q 1066 2197 1066 1791 
L 1066 0 
L 547 0 
L 547 4863 
L 1066 4863 
z
" transform="scale(0.015625)"/>
       <path id="OpenSans-Regular-4e" d="M 4197 0 
L 3584 0 
L 1094 3838 
L 1069 3838 
Q 1078 3684 1090 3489 
Q 1103 3294 1111 3073 
Q 1119 2853 1119 2625 
L 1119 0 
L 625 0 
L 625 4569 
L 1234 4569 
L 3716 744 
L 3738 744 
Q 3731 853 3722 1054 
Q 3713 1256 3705 1489 
Q 3697 1722 3697 1922 
L 3697 4569 
L 4197 4569 
L 4197 0 
z
" transform="scale(0.015625)"/>
       <path id="OpenSans-Regular-41" d="M 3491 0 
L 2928 1450 
L 1097 1450 
L 538 0 
L 0 0 
L 1788 4588 
L 2266 4588 
L 4041 0 
L 3491 0 
z
M 2769 1922 
L 2234 3363 
Q 2216 3419 2173 3547 
Q 2131 3675 2087 3812 
Q 2044 3950 2016 4034 
Q 1984 3906 1948 3779 
Q 1913 3653 1878 3545 
Q 1844 3438 1819 3363 
L 1275 1922 
L 2769 1922 
z
" transform="scale(0.015625)"/>
       <path id="OpenSans-Regular-63" d="M 1919 -63 
Q 1456 -63 1103 128 
Q 750 319 553 709 
Q 356 1100 356 1694 
Q 356 2316 564 2711 
Q 772 3106 1137 3297 
Q 1503 3488 1969 3488 
Q 2225 3488 2464 3436 
Q 2703 3384 2856 3306 
L 2700 2872 
Q 2544 2934 2339 2984 
Q 2134 3034 1956 3034 
Q 1600 3034 1364 2881 
Q 1128 2728 1011 2431 
Q 894 2134 894 1700 
Q 894 1284 1008 990 
Q 1122 697 1348 542 
Q 1575 388 1916 388 
Q 2188 388 2406 445 
Q 2625 503 2803 581 
L 2803 119 
Q 2631 31 2420 -16 
Q 2209 -63 1919 -63 
z
" transform="scale(0.015625)"/>
      </defs>
      <use xlink:href="#OpenSans-Regular-4f"/>
      <use xlink:href="#OpenSans-Regular-74" x="77.783203"/>
      <use xlink:href="#OpenSans-Regular-68" x="113.427734"/>
      <use xlink:href="#OpenSans-Regular-65" x="174.755859"/>
      <use xlink:href="#OpenSans-Regular-72" x="230.908203"/>
      <use xlink:href="#OpenSans-Regular-20" x="271.777344"/>
      <use xlink:href="#OpenSans-Regular-4e" x="297.753906"/>
      <use xlink:href="#OpenSans-Regular-6f" x="373.046875"/>
      <use xlink:href="#OpenSans-Regular-72" x="433.203125"/>
      <use xlink:href="#OpenSans-Regular-74" x="474.072266"/>
      <use xlink:href="#OpenSans-Regular-68" x="509.716797"/>
      <use xlink:href="#OpenSans-Regular-65" x="571.044922"/>
      <use xlink:href="#OpenSans-Regular-72" x="627.197266"/>
      <use xlink:href="#OpenSans-Regular-6e" x="668.066406"/>
      <use xlink:href="#OpenSans-Regular-20" x="729.394531"/>
      <use xlink:href="#OpenSans-Regular-41" x="755.371094"/>
      <use xlink:href="#OpenSans-Regular-6d" x="818.603516"/>
      <use xlink:href="#OpenSans-Regular-65" x="911.181641"/>
      <use xlink:href="#OpenSans-Regular-72" x="967.333984"/>
      <use xlink:href="#OpenSans-Regular-69" x="1008.203125"/>
      <use xlink:href="#OpenSans-Regular-63" x="1033.447266"/>
      <use xlink:href="#OpenSans-Regular-61" x="1081.347656"/>
     </g>
    </g>
    <g id="patch_7">
     <path d="M 226.663031 52.510687 
L 231.913031 52.510687 
L 231.913031 47.610687 
L 226.663031 47.610687 
z
" style="fill: #fb8560; stroke: #fb8560; stroke-linejoin: miter"/>
    </g>
    <g id="text_20">
     <!-- Eastern Europe -->
     <g transform="translate(237.513031 52.510687) scale(0.07 -0.07)">
      <defs>
       <path id="OpenSans-Regular-45" d="M 3169 0 
L 625 0 
L 625 4569 
L 3169 4569 
L 3169 4100 
L 1156 4100 
L 1156 2622 
L 3053 2622 
L 3053 2159 
L 1156 2159 
L 1156 469 
L 3169 469 
L 3169 0 
z
" transform="scale(0.015625)"/>
      </defs>
      <use xlink:href="#OpenSans-Regular-45"/>
      <use xlink:href="#OpenSans-Regular-61" x="55.566406"/>
      <use xlink:href="#OpenSans-Regular-73" x="111.132812"/>
      <use xlink:href="#OpenSans-Regular-74" x="158.789062"/>
      <use xlink:href="#OpenSans-Regular-65" x="194.433594"/>
      <use xlink:href="#OpenSans-Regular-72" x="250.585938"/>
      <use xlink:href="#OpenSans-Regular-6e" x="291.455078"/>
      <use xlink:href="#OpenSans-Regular-20" x="352.783203"/>
      <use xlink:href="#OpenSans-Regular-45" x="378.759766"/>
      <use xlink:href="#OpenSans-Regular-75" x="434.326172"/>
      <use xlink:href="#OpenSans-Regular-72" x="495.654297"/>
      <use xlink:href="#OpenSans-Regular-6f" x="536.523438"/>
      <use xlink:href="#OpenSans-Regular-70" x="596.679688"/>
      <use xlink:href="#OpenSans-Regular-65" x="657.861328"/>
     </g>
    </g>
    <g id="patch_8">
     <path d="M 226.663031 63.004125 
L 231.913031 63.004125 
L 231.913031 58.104125 
L 226.663031 58.104125 
z
" style="fill: #f56b5c; stroke: #f56b5c; stroke-linejoin: miter"/>
    </g>
    <g id="text_21">
     <!-- Western Asia -->
     <g transform="translate(237.513031 63.004125) scale(0.07 -0.07)">
      <defs>
       <path id="OpenSans-Regular-57" d="M 5816 4569 
L 4594 0 
L 4059 0 
L 3153 3075 
Q 3113 3206 3077 3339 
Q 3041 3472 3009 3592 
Q 2978 3713 2958 3805 
Q 2938 3897 2928 3944 
Q 2922 3897 2905 3806 
Q 2888 3716 2861 3597 
Q 2834 3478 2798 3343 
Q 2763 3209 2722 3072 
L 1841 0 
L 1306 0 
L 94 4569 
L 647 4569 
L 1381 1703 
Q 1419 1559 1451 1420 
Q 1484 1281 1511 1150 
Q 1538 1019 1559 894 
Q 1581 769 1600 650 
Q 1616 772 1641 905 
Q 1666 1038 1695 1175 
Q 1725 1313 1761 1453 
Q 1797 1594 1838 1734 
L 2659 4569 
L 3206 4569 
L 4063 1713 
Q 4106 1566 4143 1422 
Q 4181 1278 4211 1142 
Q 4241 1006 4264 882 
Q 4288 759 4306 650 
Q 4328 803 4359 972 
Q 4391 1141 4433 1325 
Q 4475 1509 4525 1706 
L 5259 4569 
L 5816 4569 
z
" transform="scale(0.015625)"/>
      </defs>
      <use xlink:href="#OpenSans-Regular-57"/>
      <use xlink:href="#OpenSans-Regular-65" x="92.333984"/>
      <use xlink:href="#OpenSans-Regular-73" x="148.486328"/>
      <use xlink:href="#OpenSans-Regular-74" x="196.142578"/>
      <use xlink:href="#OpenSans-Regular-65" x="231.787109"/>
      <use xlink:href="#OpenSans-Regular-72" x="287.939453"/>
      <use xlink:href="#OpenSans-Regular-6e" x="328.808594"/>
      <use xlink:href="#OpenSans-Regular-20" x="390.136719"/>
      <use xlink:href="#OpenSans-Regular-41" x="416.113281"/>
      <use xlink:href="#OpenSans-Regular-73" x="479.345703"/>
      <use xlink:href="#OpenSans-Regular-69" x="527.001953"/>
      <use xlink:href="#OpenSans-Regular-61" x="552.246094"/>
     </g>
    </g>
    <g id="patch_9">
     <path d="M 226.663031 73.497562 
L 231.913031 73.497562 
L 231.913031 68.597562 
L 226.663031 68.597562 
z
" style="fill: #e85362; stroke: #e85362; stroke-linejoin: miter"/>
    </g>
    <g id="text_22">
     <!-- Sub-Saharan Africa -->
     <g transform="translate(237.513031 73.497562) scale(0.07 -0.07)">
      <defs>
       <path id="OpenSans-Regular-62" d="M 1066 4863 
L 1066 3647 
Q 1066 3438 1055 3241 
Q 1044 3044 1038 2934 
L 1066 2934 
Q 1206 3166 1472 3325 
Q 1738 3484 2150 3484 
Q 2794 3484 3176 3039 
Q 3559 2594 3559 1716 
Q 3559 1138 3384 741 
Q 3209 344 2890 140 
Q 2572 -63 2138 -63 
Q 1731 -63 1470 89 
Q 1209 241 1069 459 
L 1028 459 
L 922 0 
L 547 0 
L 547 4863 
L 1066 4863 
z
M 2066 3050 
Q 1694 3050 1475 2904 
Q 1256 2759 1161 2467 
Q 1066 2175 1066 1728 
L 1066 1700 
Q 1066 1053 1281 711 
Q 1497 369 2066 369 
Q 2544 369 2783 719 
Q 3022 1069 3022 1719 
Q 3022 2381 2786 2715 
Q 2550 3050 2066 3050 
z
" transform="scale(0.015625)"/>
       <path id="OpenSans-Regular-2d" d="M 256 1488 
L 256 1950 
L 1806 1950 
L 1806 1488 
L 256 1488 
z
" transform="scale(0.015625)"/>
       <path id="OpenSans-Regular-66" d="M 2072 3019 
L 1219 3019 
L 1219 0 
L 700 0 
L 700 3019 
L 94 3019 
L 94 3269 
L 700 3441 
L 700 3669 
Q 700 4100 828 4370 
Q 956 4641 1200 4769 
Q 1444 4897 1794 4897 
Q 1991 4897 2155 4862 
Q 2319 4828 2444 4784 
L 2309 4375 
Q 2203 4409 2070 4439 
Q 1938 4469 1800 4469 
Q 1503 4469 1361 4276 
Q 1219 4084 1219 3675 
L 1219 3425 
L 2072 3425 
L 2072 3019 
z
" transform="scale(0.015625)"/>
      </defs>
      <use xlink:href="#OpenSans-Regular-53"/>
      <use xlink:href="#OpenSans-Regular-75" x="54.833984"/>
      <use xlink:href="#OpenSans-Regular-62" x="116.162109"/>
      <use xlink:href="#OpenSans-Regular-2d" x="177.34375"/>
      <use xlink:href="#OpenSans-Regular-53" x="209.521484"/>
      <use xlink:href="#OpenSans-Regular-61" x="264.355469"/>
      <use xlink:href="#OpenSans-Regular-68" x="319.921875"/>
      <use xlink:href="#OpenSans-Regular-61" x="381.25"/>
      <use xlink:href="#OpenSans-Regular-72" x="436.816406"/>
      <use xlink:href="#OpenSans-Regular-61" x="477.685547"/>
      <use xlink:href="#OpenSans-Regular-6e" x="533.251953"/>
      <use xlink:href="#OpenSans-Regular-20" x="594.580078"/>
      <use xlink:href="#OpenSans-Regular-41" x="620.556641"/>
      <use xlink:href="#OpenSans-Regular-66" x="683.789062"/>
      <use xlink:href="#OpenSans-Regular-72" x="717.431641"/>
      <use xlink:href="#OpenSans-Regular-69" x="758.300781"/>
      <use xlink:href="#OpenSans-Regular-63" x="783.544922"/>
      <use xlink:href="#OpenSans-Regular-61" x="831.445312"/>
     </g>
    </g>
    <g id="patch_10">
     <path d="M 226.663031 83.991 
L 231.913031 83.991 
L 231.913031 79.091 
L 226.663031 79.091 
z
" style="fill: #d5446d; stroke: #d5446d; stroke-linejoin: miter"/>
    </g>
    <g id="text_23">
     <!-- Latin America and the Caribbean -->
     <g transform="translate(237.513031 83.991) scale(0.07 -0.07)">
      <defs>
       <path id="OpenSans-Regular-4c" d="M 625 0 
L 625 4569 
L 1156 4569 
L 1156 475 
L 3184 475 
L 3184 0 
L 625 0 
z
" transform="scale(0.015625)"/>
       <path id="OpenSans-Regular-43" d="M 2578 4166 
Q 2200 4166 1898 4036 
Q 1597 3906 1386 3661 
Q 1175 3416 1062 3069 
Q 950 2722 950 2288 
Q 950 1713 1129 1289 
Q 1309 866 1667 634 
Q 2025 403 2563 403 
Q 2869 403 3139 454 
Q 3409 506 3666 584 
L 3666 122 
Q 3416 28 3141 -17 
Q 2866 -63 2488 -63 
Q 1791 -63 1323 226 
Q 856 516 623 1044 
Q 391 1572 391 2291 
Q 391 2809 536 3239 
Q 681 3669 961 3981 
Q 1241 4294 1648 4464 
Q 2056 4634 2584 4634 
Q 2931 4634 3253 4565 
Q 3575 4497 3834 4369 
L 3622 3919 
Q 3403 4019 3142 4092 
Q 2881 4166 2578 4166 
z
" transform="scale(0.015625)"/>
      </defs>
      <use xlink:href="#OpenSans-Regular-4c"/>
      <use xlink:href="#OpenSans-Regular-61" x="52.197266"/>
      <use xlink:href="#OpenSans-Regular-74" x="107.763672"/>
      <use xlink:href="#OpenSans-Regular-69" x="143.408203"/>
      <use xlink:href="#OpenSans-Regular-6e" x="168.652344"/>
      <use xlink:href="#OpenSans-Regular-20" x="229.980469"/>
      <use xlink:href="#OpenSans-Regular-41" x="255.957031"/>
      <use xlink:href="#OpenSans-Regular-6d" x="319.189453"/>
      <use xlink:href="#OpenSans-Regular-65" x="411.767578"/>
      <use xlink:href="#OpenSans-Regular-72" x="467.919922"/>
      <use xlink:href="#OpenSans-Regular-69" x="508.789062"/>
      <use xlink:href="#OpenSans-Regular-63" x="534.033203"/>
      <use xlink:href="#OpenSans-Regular-61" x="581.933594"/>
      <use xlink:href="#OpenSans-Regular-20" x="637.5"/>
      <use xlink:href="#OpenSans-Regular-61" x="663.476562"/>
      <use xlink:href="#OpenSans-Regular-6e" x="719.042969"/>
      <use xlink:href="#OpenSans-Regular-64" x="780.371094"/>
      <use xlink:href="#OpenSans-Regular-20" x="841.552734"/>
      <use xlink:href="#OpenSans-Regular-74" x="867.529297"/>
      <use xlink:href="#OpenSans-Regular-68" x="903.173828"/>
      <use xlink:href="#OpenSans-Regular-65" x="964.501953"/>
      <use xlink:href="#OpenSans-Regular-20" x="1020.654297"/>
      <use xlink:href="#OpenSans-Regular-43" x="1046.630859"/>
      <use xlink:href="#OpenSans-Regular-61" x="1109.619141"/>
      <use xlink:href="#OpenSans-Regular-72" x="1165.185547"/>
      <use xlink:href="#OpenSans-Regular-69" x="1206.054688"/>
      <use xlink:href="#OpenSans-Regular-62" x="1231.298828"/>
      <use xlink:href="#OpenSans-Regular-62" x="1292.480469"/>
      <use xlink:href="#OpenSans-Regular-65" x="1353.662109"/>
      <use xlink:href="#OpenSans-Regular-61" x="1409.814453"/>
      <use xlink:href="#OpenSans-Regular-6e" x="1465.380859"/>
     </g>
    </g>
    <g id="patch_11">
     <path d="M 226.663031 94.484437 
L 231.913031 94.484437 
L 231.913031 89.584437 
L 226.663031 89.584437 
z
" style="fill: #bd3977; stroke: #bd3977; stroke-linejoin: miter"/>
    </g>
    <g id="text_24">
     <!-- Southern Asia -->
     <g transform="translate(237.513031 94.484437) scale(0.07 -0.07)">
      <use xlink:href="#OpenSans-Regular-53"/>
      <use xlink:href="#OpenSans-Regular-6f" x="54.833984"/>
      <use xlink:href="#OpenSans-Regular-75" x="114.990234"/>
      <use xlink:href="#OpenSans-Regular-74" x="176.318359"/>
      <use xlink:href="#OpenSans-Regular-68" x="211.962891"/>
      <use xlink:href="#OpenSans-Regular-65" x="273.291016"/>
      <use xlink:href="#OpenSans-Regular-72" x="329.443359"/>
      <use xlink:href="#OpenSans-Regular-6e" x="370.3125"/>
      <use xlink:href="#OpenSans-Regular-20" x="431.640625"/>
      <use xlink:href="#OpenSans-Regular-41" x="457.617188"/>
      <use xlink:href="#OpenSans-Regular-73" x="520.849609"/>
      <use xlink:href="#OpenSans-Regular-69" x="568.505859"/>
      <use xlink:href="#OpenSans-Regular-61" x="593.75"/>
     </g>
    </g>
    <g id="patch_12">
     <path d="M 226.663031 104.977875 
L 231.913031 104.977875 
L 231.913031 100.077875 
L 226.663031 100.077875 
z
" style="fill: #a6317d; stroke: #a6317d; stroke-linejoin: miter"/>
    </g>
    <g id="text_25">
     <!-- South-eastern Asia -->
     <g transform="translate(237.513031 104.977875) scale(0.07 -0.07)">
      <use xlink:href="#OpenSans-Regular-53"/>
      <use xlink:href="#OpenSans-Regular-6f" x="54.833984"/>
      <use xlink:href="#OpenSans-Regular-75" x="114.990234"/>
      <use xlink:href="#OpenSans-Regular-74" x="176.318359"/>
      <use xlink:href="#OpenSans-Regular-68" x="211.962891"/>
      <use xlink:href="#OpenSans-Regular-2d" x="273.291016"/>
      <use xlink:href="#OpenSans-Regular-65" x="305.46875"/>
      <use xlink:href="#OpenSans-Regular-61" x="361.621094"/>
      <use xlink:href="#OpenSans-Regular-73" x="417.1875"/>
      <use xlink:href="#OpenSans-Regular-74" x="464.84375"/>
      <use xlink:href="#OpenSans-Regular-65" x="500.488281"/>
      <use xlink:href="#OpenSans-Regular-72" x="556.640625"/>
      <use xlink:href="#OpenSans-Regular-6e" x="597.509766"/>
      <use xlink:href="#OpenSans-Regular-20" x="658.837891"/>
      <use xlink:href="#OpenSans-Regular-41" x="684.814453"/>
      <use xlink:href="#OpenSans-Regular-73" x="748.046875"/>
      <use xlink:href="#OpenSans-Regular-69" x="795.703125"/>
      <use xlink:href="#OpenSans-Regular-61" x="820.947266"/>
     </g>
    </g>
    <g id="patch_13">
     <path d="M 226.663031 115.471312 
L 231.913031 115.471312 
L 231.913031 110.571312 
L 226.663031 110.571312 
z
" style="fill: #902a81; stroke: #902a81; stroke-linejoin: miter"/>
    </g>
    <g id="text_26">
     <!-- Australia and New Zealand -->
     <g transform="translate(237.513031 115.471312) scale(0.07 -0.07)">
      <defs>
       <path id="OpenSans-Regular-77" d="M 3334 6 
L 2725 2000 
Q 2684 2128 2648 2251 
Q 2613 2375 2583 2489 
Q 2553 2603 2529 2701 
Q 2506 2800 2491 2872 
L 2469 2872 
Q 2456 2800 2434 2701 
Q 2413 2603 2383 2487 
Q 2353 2372 2318 2245 
Q 2284 2119 2241 1991 
L 1603 6 
L 1019 6 
L 75 3431 
L 613 3431 
L 1106 1541 
Q 1156 1353 1201 1170 
Q 1247 988 1280 827 
Q 1313 666 1328 547 
L 1353 547 
Q 1372 625 1395 734 
Q 1419 844 1448 967 
Q 1478 1091 1512 1214 
Q 1547 1338 1581 1447 
L 2213 3431 
L 2772 3431 
L 3381 1450 
Q 3428 1300 3473 1137 
Q 3519 975 3556 823 
Q 3594 672 3609 553 
L 3634 553 
Q 3647 659 3681 815 
Q 3716 972 3761 1159 
Q 3806 1347 3856 1541 
L 4356 3431 
L 4884 3431 
L 3938 6 
L 3334 6 
z
" transform="scale(0.015625)"/>
       <path id="OpenSans-Regular-5a" d="M 3416 0 
L 244 0 
L 244 400 
L 2703 4094 
L 328 4094 
L 328 4569 
L 3350 4569 
L 3350 4169 
L 888 475 
L 3416 475 
L 3416 0 
z
" transform="scale(0.015625)"/>
      </defs>
      <use xlink:href="#OpenSans-Regular-41"/>
      <use xlink:href="#OpenSans-Regular-75" x="63.232422"/>
      <use xlink:href="#OpenSans-Regular-73" x="124.560547"/>
      <use xlink:href="#OpenSans-Regular-74" x="172.216797"/>
      <use xlink:href="#OpenSans-Regular-72" x="207.861328"/>
      <use xlink:href="#OpenSans-Regular-61" x="248.730469"/>
      <use xlink:href="#OpenSans-Regular-6c" x="304.296875"/>
      <use xlink:href="#OpenSans-Regular-69" x="329.541016"/>
      <use xlink:href="#OpenSans-Regular-61" x="354.785156"/>
      <use xlink:href="#OpenSans-Regular-20" x="410.351562"/>
      <use xlink:href="#OpenSans-Regular-61" x="436.328125"/>
      <use xlink:href="#OpenSans-Regular-6e" x="491.894531"/>
      <use xlink:href="#OpenSans-Regular-64" x="553.222656"/>
      <use xlink:href="#OpenSans-Regular-20" x="614.404297"/>
      <use xlink:href="#OpenSans-Regular-4e" x="640.380859"/>
      <use xlink:href="#OpenSans-Regular-65" x="715.673828"/>
      <use xlink:href="#OpenSans-Regular-77" x="771.826172"/>
      <use xlink:href="#OpenSans-Regular-20" x="849.316406"/>
      <use xlink:href="#OpenSans-Regular-5a" x="875.292969"/>
      <use xlink:href="#OpenSans-Regular-65" x="932.519531"/>
      <use xlink:href="#OpenSans-Regular-61" x="988.671875"/>
      <use xlink:href="#OpenSans-Regular-6c" x="1044.238281"/>
      <use xlink:href="#OpenSans-Regular-61" x="1069.482422"/>
      <use xlink:href="#OpenSans-Regular-6e" x="1125.048828"/>
      <use xlink:href="#OpenSans-Regular-64" x="1186.376953"/>
     </g>
    </g>
    <g id="patch_14">
     <path d="M 226.663031 125.96475 
L 231.913031 125.96475 
L 231.913031 121.06475 
L 226.663031 121.06475 
z
" style="fill: #782281; stroke: #782281; stroke-linejoin: miter"/>
    </g>
    <g id="text_27">
     <!-- Northern Africa -->
     <g transform="translate(237.513031 125.96475) scale(0.07 -0.07)">
      <use xlink:href="#OpenSans-Regular-4e"/>
      <use xlink:href="#OpenSans-Regular-6f" x="75.292969"/>
      <use xlink:href="#OpenSans-Regular-72" x="135.449219"/>
      <use xlink:href="#OpenSans-Regular-74" x="176.318359"/>
      <use xlink:href="#OpenSans-Regular-68" x="211.962891"/>
      <use xlink:href="#OpenSans-Regular-65" x="273.291016"/>
      <use xlink:href="#OpenSans-Regular-72" x="329.443359"/>
      <use xlink:href="#OpenSans-Regular-6e" x="370.3125"/>
      <use xlink:href="#OpenSans-Regular-20" x="431.640625"/>
      <use xlink:href="#OpenSans-Regular-41" x="457.617188"/>
      <use xlink:href="#OpenSans-Regular-66" x="520.849609"/>
      <use xlink:href="#OpenSans-Regular-72" x="554.492188"/>
      <use xlink:href="#OpenSans-Regular-69" x="595.361328"/>
      <use xlink:href="#OpenSans-Regular-63" x="620.605469"/>
      <use xlink:href="#OpenSans-Regular-61" x="668.505859"/>
     </g>
    </g>
   </g>
  </g>
 </g>
 <defs>
  <clipPath id="p243df73e99">
   <rect x="37.199531" y="18.518906" width="181.35" height="138.6"/>
  </clipPath>
 </defs>
</svg>
