<?xml version="1.0" encoding="utf-8"?>
<!-- Generator: Adobe Illustrator 26.5.0, SVG Export Plug-In . SVG Version: 6.00 Build 0)  -->
<svg version="1.1" xmlns="http://www.w3.org/2000/svg" xmlns:xlink="http://www.w3.org/1999/xlink" x="0px" y="0px"
	 viewBox="0 0 550 223.68" style="enable-background:new 0 0 550 223.68;" xml:space="preserve">
<style type="text/css">
	.st0{fill:none;}
	.st1{clip-path:url(#SVGID_00000169546759848552866130000003823374446441759380_);fill:#822B2B;}
	.st2{clip-path:url(#SVGID_00000169546759848552866130000003823374446441759380_);fill:none;stroke:#000000;stroke-miterlimit:10;}
	.st3{clip-path:url(#SVGID_00000029025117785361776690000012347590819275778485_);fill:#CD8F7A;}
	.st4{clip-path:url(#SVGID_00000029025117785361776690000012347590819275778485_);fill:none;stroke:#000000;stroke-miterlimit:10;}
	.st5{clip-path:url(#SVGID_00000004513975361620376950000004462735694738923664_);fill:#BC7266;}
	.st6{clip-path:url(#SVGID_00000004513975361620376950000004462735694738923664_);fill:none;stroke:#000000;stroke-miterlimit:10;}
	.st7{clip-path:url(#SVGID_00000096020669776812980490000008192907607336148129_);fill:#A14C45;}
	.st8{clip-path:url(#SVGID_00000096020669776812980490000008192907607336148129_);fill:none;stroke:#000000;stroke-miterlimit:10;}
	.st9{clip-path:url(#SVGID_00000016785210879053413340000015912368213384805775_);fill:#B9EDD2;}
	.st10{clip-path:url(#SVGID_00000016785210879053413340000015912368213384805775_);fill:none;stroke:#000000;stroke-miterlimit:10;}
	.st11{clip-path:url(#SVGID_00000121240190062778658300000004188039068468981946_);fill:#313E7B;}
	.st12{clip-path:url(#SVGID_00000121240190062778658300000004188039068468981946_);fill:none;stroke:#000000;stroke-miterlimit:10;}
	.st13{clip-path:url(#SVGID_00000105420154923060685440000013334434320945304961_);fill:#8DDCC2;}
	.st14{clip-path:url(#SVGID_00000105420154923060685440000013334434320945304961_);fill:none;stroke:#000000;stroke-miterlimit:10;}
	.st15{clip-path:url(#SVGID_00000156548596558498318870000002307190218349265794_);fill:#69C5B9;}
	.st16{clip-path:url(#SVGID_00000156548596558498318870000002307190218349265794_);fill:none;stroke:#000000;stroke-miterlimit:10;}
	.st17{clip-path:url(#SVGID_00000038413218466019833910000016023723446309599628_);fill:#50ACB3;}
	.st18{clip-path:url(#SVGID_00000038413218466019833910000016023723446309599628_);fill:none;stroke:#000000;stroke-miterlimit:10;}
	.st19{clip-path:url(#SVGID_00000089569946511511073980000003048896685017199252_);fill:#345691;}
	.st20{clip-path:url(#SVGID_00000089569946511511073980000003048896685017199252_);fill:none;stroke:#000000;stroke-miterlimit:10;}
	.st21{clip-path:url(#SVGID_00000149369444338398906850000015058735145255240617_);fill:#4090AD;}
	.st22{clip-path:url(#SVGID_00000149369444338398906850000015058735145255240617_);fill:none;stroke:#000000;stroke-miterlimit:10;}
	.st23{clip-path:url(#SVGID_00000128456397199772176780000000181597908381876146_);fill:#3873A2;}
	.st24{clip-path:url(#SVGID_00000128456397199772176780000000181597908381876146_);fill:none;stroke:#000000;stroke-miterlimit:10;}
	.st25{clip-path:url(#SVGID_00000114767506542165536160000013962437139919757467_);fill:#D8AB91;}
	.st26{clip-path:url(#SVGID_00000114767506542165536160000013962437139919757467_);fill:none;stroke:#000000;stroke-miterlimit:10;}
	.st27{fill:url(#SVGID_00000022540323386697589970000011649162184036668810_);}
	.st28{fill:#6958B2;}
	.st29{fill:url(#SVGID_00000130641753488961642150000005837533309513348281_);}
	.st30{fill:#6E95D7;}
	.st31{fill:url(#SVGID_00000040566894885771342360000014091227443672906143_);}
	.st32{fill:#76B2DB;}
	.st33{display:none;opacity:0.5;}
	.st34{display:inline;fill:url(#SVGID_00000158020656743150764930000006326610650050186626_);}
	.st35{display:inline;fill:#6B77CA;}
	.st36{display:inline;fill:url(#SVGID_00000097462383804070569820000002065676862574621342_);}
	.st37{display:inline;fill:#85CADB;}
	.st38{display:inline;fill:url(#SVGID_00000006704743068158160220000009874414729882719912_);}
	.st39{display:inline;fill:#9BDEDA;}
	.st40{display:inline;fill:url(#SVGID_00000087391253622738228190000016123376553135300021_);}
	.st41{display:inline;fill:#B8ECDD;}
	.st42{display:inline;fill:url(#SVGID_00000028320068536203269330000006341863889763755659_);}
	.st43{display:inline;fill:#D9F6E7;}
	.st44{font-family:'Helvetica';}
	.st45{font-size:7px;}
	.st46{font-family:'Helvetica-Bold';}
	.st47{letter-spacing:1;}
	.st48{opacity:0.5;}
	.st49{fill:none;stroke:#FFFFFF;stroke-width:0.5;stroke-linecap:round;stroke-linejoin:round;stroke-miterlimit:10;}
	.st50{opacity:0.2;fill-rule:evenodd;clip-rule:evenodd;stroke:#000000;stroke-width:0.75;stroke-miterlimit:10;}
	.st51{clip-path:url(#SVGID_00000111885321626395516660000006055859295646957699_);}
	.st52{fill:none;stroke:#000000;stroke-width:0.75;stroke-miterlimit:10;}
	.st53{fill-rule:evenodd;clip-rule:evenodd;fill:none;stroke:#FFFFFF;stroke-miterlimit:10;}
	.st54{fill:#67000D;}
	.st55{fill:#BC141A;}
	.st56{fill:#F14432;}
	.st57{fill:none;stroke:#000000;stroke-width:0.8;stroke-linejoin:round;stroke-miterlimit:10;}
	.st58{fill:none;stroke:#000000;stroke-width:0.6;stroke-linejoin:round;stroke-miterlimit:10;}
	.st59{fill:none;stroke:#000000;stroke-width:0.8;stroke-linecap:square;stroke-miterlimit:10;}
	.st60{opacity:0.5;fill:none;stroke:#AD0000;stroke-width:0.5;stroke-miterlimit:10;}
	.st61{opacity:0.5;fill:none;stroke:#CE2417;stroke-width:0.5;stroke-miterlimit:10;}
	.st62{opacity:0.5;fill:none;stroke:#E7533A;stroke-width:0.5;stroke-miterlimit:10;}
	.st63{opacity:0.5;fill:none;stroke:#F67B51;stroke-width:0.5;stroke-miterlimit:10;}
	.st64{fill:url(#SVGID_00000133499766440855902390000006677776660370304916_);}
	.st65{fill:#FCA26D;}
	.st66{fill:url(#SVGID_00000110449648363198062000000012292140415138703771_);}
	.st67{fill:#F67B51;}
	.st68{fill:url(#SVGID_00000102533964123502879130000006544140446087052199_);}
	.st69{fill:#E7533A;}
	.st70{fill:url(#SVGID_00000113328665444267908110000006401889194211807665_);}
	.st71{fill:#CE2417;}
	.st72{fill:url(#SVGID_00000036971671339987940430000008953267996372500378_);}
	.st73{fill:#AD0000;}
	.st74{fill:none;stroke:#FFFFFF;stroke-width:0.75;stroke-miterlimit:10;}
</style>
<pattern  y="299.31" width="72" height="72" patternUnits="userSpaceOnUse" id="Unnamed_Pattern_11" viewBox="36.35 -108.35 72 72" style="overflow:visible;">
	<g>
		<rect x="36.35" y="-108.35" class="st0" width="72" height="72"/>
		<g>
			<defs>
				<rect id="SVGID_1_" x="36.35" y="-108.35" width="72" height="72"/>
			</defs>
			<clipPath id="SVGID_00000007430523720890006840000006802780923471521152_">
				<use xlink:href="#SVGID_1_"  style="overflow:visible;"/>
			</clipPath>
			
				<rect x="36.35" y="-108.35" style="clip-path:url(#SVGID_00000007430523720890006840000006802780923471521152_);fill:#822B2B;" width="72" height="72"/>
			<path style="clip-path:url(#SVGID_00000007430523720890006840000006802780923471521152_);fill:#822B2B;" d="M72.35-144.35l72,72
				 M69.35-141.35l72,72 M66.35-138.35l72,72 M63.35-135.35l72,72 M60.35-132.35l72,72 M57.35-129.35l72,72 M54.35-126.35l72,72
				 M51.35-123.35l72,72 M48.35-120.35l72,72 M45.35-117.35l72,72 M42.35-114.35l72,72 M39.35-111.35l72,72 M36.35-108.35l72,72
				 M33.35-105.35l72,72 M30.35-102.35l72,72 M27.35-99.35l72,72 M24.35-96.35l72,72 M21.35-93.35l72,72 M18.35-90.35l72,72
				 M15.35-87.35l72,72 M12.35-84.35l72,72 M9.35-81.35l72,72 M6.35-78.35l72,72 M3.35-75.35l72,72 M0.35-72.35l72,72"/>
			
				<path style="clip-path:url(#SVGID_00000007430523720890006840000006802780923471521152_);fill:none;stroke:#000000;stroke-miterlimit:10;" d="
				M72.35-144.35l72,72 M69.35-141.35l72,72 M66.35-138.35l72,72 M63.35-135.35l72,72 M60.35-132.35l72,72 M57.35-129.35l72,72
				 M54.35-126.35l72,72 M51.35-123.35l72,72 M48.35-120.35l72,72 M45.35-117.35l72,72 M42.35-114.35l72,72 M39.35-111.35l72,72
				 M36.35-108.35l72,72 M33.35-105.35l72,72 M30.35-102.35l72,72 M27.35-99.35l72,72 M24.35-96.35l72,72 M21.35-93.35l72,72
				 M18.35-90.35l72,72 M15.35-87.35l72,72 M12.35-84.35l72,72 M9.35-81.35l72,72 M6.35-78.35l72,72 M3.35-75.35l72,72 M0.35-72.35
				l72,72"/>
		</g>
	</g>
</pattern>
<pattern  y="299.31" width="72" height="72" patternUnits="userSpaceOnUse" id="Unnamed_Pattern_12" viewBox="36.35 -108.35 72 72" style="overflow:visible;">
	<g>
		<rect x="36.35" y="-108.35" class="st0" width="72" height="72"/>
		<g>
			<defs>
				<rect id="SVGID_00000164496258893627718260000015667346475485029275_" x="36.35" y="-108.35" width="72" height="72"/>
			</defs>
			<clipPath id="SVGID_00000145765517482473923730000006953361065662364312_">
				<use xlink:href="#SVGID_00000164496258893627718260000015667346475485029275_"  style="overflow:visible;"/>
			</clipPath>
			
				<rect x="36.35" y="-108.35" style="clip-path:url(#SVGID_00000145765517482473923730000006953361065662364312_);fill:#CD8F7A;" width="72" height="72"/>
			<path style="clip-path:url(#SVGID_00000145765517482473923730000006953361065662364312_);fill:#CD8F7A;" d="M72.35-144.35l72,72
				 M69.35-141.35l72,72 M66.35-138.35l72,72 M63.35-135.35l72,72 M60.35-132.35l72,72 M57.35-129.35l72,72 M54.35-126.35l72,72
				 M51.35-123.35l72,72 M48.35-120.35l72,72 M45.35-117.35l72,72 M42.35-114.35l72,72 M39.35-111.35l72,72 M36.35-108.35l72,72
				 M33.35-105.35l72,72 M30.35-102.35l72,72 M27.35-99.35l72,72 M24.35-96.35l72,72 M21.35-93.35l72,72 M18.35-90.35l72,72
				 M15.35-87.35l72,72 M12.35-84.35l72,72 M9.35-81.35l72,72 M6.35-78.35l72,72 M3.35-75.35l72,72 M0.35-72.35l72,72"/>
			
				<path style="clip-path:url(#SVGID_00000145765517482473923730000006953361065662364312_);fill:none;stroke:#000000;stroke-miterlimit:10;" d="
				M72.35-144.35l72,72 M69.35-141.35l72,72 M66.35-138.35l72,72 M63.35-135.35l72,72 M60.35-132.35l72,72 M57.35-129.35l72,72
				 M54.35-126.35l72,72 M51.35-123.35l72,72 M48.35-120.35l72,72 M45.35-117.35l72,72 M42.35-114.35l72,72 M39.35-111.35l72,72
				 M36.35-108.35l72,72 M33.35-105.35l72,72 M30.35-102.35l72,72 M27.35-99.35l72,72 M24.35-96.35l72,72 M21.35-93.35l72,72
				 M18.35-90.35l72,72 M15.35-87.35l72,72 M12.35-84.35l72,72 M9.35-81.35l72,72 M6.35-78.35l72,72 M3.35-75.35l72,72 M0.35-72.35
				l72,72"/>
		</g>
	</g>
</pattern>
<pattern  y="299.31" width="72" height="72" patternUnits="userSpaceOnUse" id="Unnamed_Pattern_13" viewBox="36.35 -108.35 72 72" style="overflow:visible;">
	<g>
		<rect x="36.35" y="-108.35" class="st0" width="72" height="72"/>
		<g>
			<defs>
				<rect id="SVGID_00000072984587647878285250000003426282244060067749_" x="36.35" y="-108.35" width="72" height="72"/>
			</defs>
			<clipPath id="SVGID_00000036252716154294310190000014252308344890504868_">
				<use xlink:href="#SVGID_00000072984587647878285250000003426282244060067749_"  style="overflow:visible;"/>
			</clipPath>
			
				<rect x="36.35" y="-108.35" style="clip-path:url(#SVGID_00000036252716154294310190000014252308344890504868_);fill:#BC7266;" width="72" height="72"/>
			<path style="clip-path:url(#SVGID_00000036252716154294310190000014252308344890504868_);fill:#BC7266;" d="M72.35-144.35l72,72
				 M69.35-141.35l72,72 M66.35-138.35l72,72 M63.35-135.35l72,72 M60.35-132.35l72,72 M57.35-129.35l72,72 M54.35-126.35l72,72
				 M51.35-123.35l72,72 M48.35-120.35l72,72 M45.35-117.35l72,72 M42.35-114.35l72,72 M39.35-111.35l72,72 M36.35-108.35l72,72
				 M33.35-105.35l72,72 M30.35-102.35l72,72 M27.35-99.35l72,72 M24.35-96.35l72,72 M21.35-93.35l72,72 M18.35-90.35l72,72
				 M15.35-87.35l72,72 M12.35-84.35l72,72 M9.35-81.35l72,72 M6.35-78.35l72,72 M3.35-75.35l72,72 M0.35-72.35l72,72"/>
			
				<path style="clip-path:url(#SVGID_00000036252716154294310190000014252308344890504868_);fill:none;stroke:#000000;stroke-miterlimit:10;" d="
				M72.35-144.35l72,72 M69.35-141.35l72,72 M66.35-138.35l72,72 M63.35-135.35l72,72 M60.35-132.35l72,72 M57.35-129.35l72,72
				 M54.35-126.35l72,72 M51.35-123.35l72,72 M48.35-120.35l72,72 M45.35-117.35l72,72 M42.35-114.35l72,72 M39.35-111.35l72,72
				 M36.35-108.35l72,72 M33.35-105.35l72,72 M30.35-102.35l72,72 M27.35-99.35l72,72 M24.35-96.35l72,72 M21.35-93.35l72,72
				 M18.35-90.35l72,72 M15.35-87.35l72,72 M12.35-84.35l72,72 M9.35-81.35l72,72 M6.35-78.35l72,72 M3.35-75.35l72,72 M0.35-72.35
				l72,72"/>
		</g>
	</g>
</pattern>
<pattern  y="299.31" width="72" height="72" patternUnits="userSpaceOnUse" id="Unnamed_Pattern_14" viewBox="36.35 -108.35 72 72" style="overflow:visible;">
	<g>
		<rect x="36.35" y="-108.35" class="st0" width="72" height="72"/>
		<g>
			<defs>
				<rect id="SVGID_00000089543365322132128040000009875836713191231627_" x="36.35" y="-108.35" width="72" height="72"/>
			</defs>
			<clipPath id="SVGID_00000170258493268690083200000000233990541131141045_">
				<use xlink:href="#SVGID_00000089543365322132128040000009875836713191231627_"  style="overflow:visible;"/>
			</clipPath>
			
				<rect x="36.35" y="-108.35" style="clip-path:url(#SVGID_00000170258493268690083200000000233990541131141045_);fill:#A14C45;" width="72" height="72"/>
			<path style="clip-path:url(#SVGID_00000170258493268690083200000000233990541131141045_);fill:#A14C45;" d="M72.35-144.35l72,72
				 M69.35-141.35l72,72 M66.35-138.35l72,72 M63.35-135.35l72,72 M60.35-132.35l72,72 M57.35-129.35l72,72 M54.35-126.35l72,72
				 M51.35-123.35l72,72 M48.35-120.35l72,72 M45.35-117.35l72,72 M42.35-114.35l72,72 M39.35-111.35l72,72 M36.35-108.35l72,72
				 M33.35-105.35l72,72 M30.35-102.35l72,72 M27.35-99.35l72,72 M24.35-96.35l72,72 M21.35-93.35l72,72 M18.35-90.35l72,72
				 M15.35-87.35l72,72 M12.35-84.35l72,72 M9.35-81.35l72,72 M6.35-78.35l72,72 M3.35-75.35l72,72 M0.35-72.35l72,72"/>
			
				<path style="clip-path:url(#SVGID_00000170258493268690083200000000233990541131141045_);fill:none;stroke:#000000;stroke-miterlimit:10;" d="
				M72.35-144.35l72,72 M69.35-141.35l72,72 M66.35-138.35l72,72 M63.35-135.35l72,72 M60.35-132.35l72,72 M57.35-129.35l72,72
				 M54.35-126.35l72,72 M51.35-123.35l72,72 M48.35-120.35l72,72 M45.35-117.35l72,72 M42.35-114.35l72,72 M39.35-111.35l72,72
				 M36.35-108.35l72,72 M33.35-105.35l72,72 M30.35-102.35l72,72 M27.35-99.35l72,72 M24.35-96.35l72,72 M21.35-93.35l72,72
				 M18.35-90.35l72,72 M15.35-87.35l72,72 M12.35-84.35l72,72 M9.35-81.35l72,72 M6.35-78.35l72,72 M3.35-75.35l72,72 M0.35-72.35
				l72,72"/>
		</g>
	</g>
</pattern>
<pattern  y="299.31" width="72" height="72" patternUnits="userSpaceOnUse" id="Unnamed_Pattern_15" viewBox="36.35 -108.35 72 72" style="overflow:visible;">
	<g>
		<rect x="36.35" y="-108.35" class="st0" width="72" height="72"/>
		<g>
			<defs>
				<rect id="SVGID_00000078002757908926868170000001740289437064145341_" x="36.35" y="-108.35" width="72" height="72"/>
			</defs>
			<clipPath id="SVGID_00000070833301306648085840000003279519472686801329_">
				<use xlink:href="#SVGID_00000078002757908926868170000001740289437064145341_"  style="overflow:visible;"/>
			</clipPath>
			
				<rect x="36.35" y="-108.35" style="clip-path:url(#SVGID_00000070833301306648085840000003279519472686801329_);fill:#B9EDD2;" width="72" height="72"/>
			<path style="clip-path:url(#SVGID_00000070833301306648085840000003279519472686801329_);fill:#B9EDD2;" d="M72.35-144.35l72,72
				 M69.35-141.35l72,72 M66.35-138.35l72,72 M63.35-135.35l72,72 M60.35-132.35l72,72 M57.35-129.35l72,72 M54.35-126.35l72,72
				 M51.35-123.35l72,72 M48.35-120.35l72,72 M45.35-117.35l72,72 M42.35-114.35l72,72 M39.35-111.35l72,72 M36.35-108.35l72,72
				 M33.35-105.35l72,72 M30.35-102.35l72,72 M27.35-99.35l72,72 M24.35-96.35l72,72 M21.35-93.35l72,72 M18.35-90.35l72,72
				 M15.35-87.35l72,72 M12.35-84.35l72,72 M9.35-81.35l72,72 M6.35-78.35l72,72 M3.35-75.35l72,72 M0.35-72.35l72,72"/>
			
				<path style="clip-path:url(#SVGID_00000070833301306648085840000003279519472686801329_);fill:none;stroke:#000000;stroke-miterlimit:10;" d="
				M72.35-144.35l72,72 M69.35-141.35l72,72 M66.35-138.35l72,72 M63.35-135.35l72,72 M60.35-132.35l72,72 M57.35-129.35l72,72
				 M54.35-126.35l72,72 M51.35-123.35l72,72 M48.35-120.35l72,72 M45.35-117.35l72,72 M42.35-114.35l72,72 M39.35-111.35l72,72
				 M36.35-108.35l72,72 M33.35-105.35l72,72 M30.35-102.35l72,72 M27.35-99.35l72,72 M24.35-96.35l72,72 M21.35-93.35l72,72
				 M18.35-90.35l72,72 M15.35-87.35l72,72 M12.35-84.35l72,72 M9.35-81.35l72,72 M6.35-78.35l72,72 M3.35-75.35l72,72 M0.35-72.35
				l72,72"/>
		</g>
	</g>
</pattern>
<pattern  y="299.31" width="72" height="72" patternUnits="userSpaceOnUse" id="Unnamed_Pattern_16" viewBox="36.35 -108.35 72 72" style="overflow:visible;">
	<g>
		<rect x="36.35" y="-108.35" class="st0" width="72" height="72"/>
		<g>
			<defs>
				<rect id="SVGID_00000138568308516060592410000015157725148465549727_" x="36.35" y="-108.35" width="72" height="72"/>
			</defs>
			<clipPath id="SVGID_00000004510381485693123570000016896969016349149578_">
				<use xlink:href="#SVGID_00000138568308516060592410000015157725148465549727_"  style="overflow:visible;"/>
			</clipPath>
			
				<rect x="36.35" y="-108.35" style="clip-path:url(#SVGID_00000004510381485693123570000016896969016349149578_);fill:#313E7B;" width="72" height="72"/>
			<path style="clip-path:url(#SVGID_00000004510381485693123570000016896969016349149578_);fill:#313E7B;" d="M72.35-144.35l72,72
				 M69.35-141.35l72,72 M66.35-138.35l72,72 M63.35-135.35l72,72 M60.35-132.35l72,72 M57.35-129.35l72,72 M54.35-126.35l72,72
				 M51.35-123.35l72,72 M48.35-120.35l72,72 M45.35-117.35l72,72 M42.35-114.35l72,72 M39.35-111.35l72,72 M36.35-108.35l72,72
				 M33.35-105.35l72,72 M30.35-102.35l72,72 M27.35-99.35l72,72 M24.35-96.35l72,72 M21.35-93.35l72,72 M18.35-90.35l72,72
				 M15.35-87.35l72,72 M12.35-84.35l72,72 M9.35-81.35l72,72 M6.35-78.35l72,72 M3.35-75.35l72,72 M0.35-72.35l72,72"/>
			
				<path style="clip-path:url(#SVGID_00000004510381485693123570000016896969016349149578_);fill:none;stroke:#000000;stroke-miterlimit:10;" d="
				M72.35-144.35l72,72 M69.35-141.35l72,72 M66.35-138.35l72,72 M63.35-135.35l72,72 M60.35-132.35l72,72 M57.35-129.35l72,72
				 M54.35-126.35l72,72 M51.35-123.35l72,72 M48.35-120.35l72,72 M45.35-117.35l72,72 M42.35-114.35l72,72 M39.35-111.35l72,72
				 M36.35-108.35l72,72 M33.35-105.35l72,72 M30.35-102.35l72,72 M27.35-99.35l72,72 M24.35-96.35l72,72 M21.35-93.35l72,72
				 M18.35-90.35l72,72 M15.35-87.35l72,72 M12.35-84.35l72,72 M9.35-81.35l72,72 M6.35-78.35l72,72 M3.35-75.35l72,72 M0.35-72.35
				l72,72"/>
		</g>
	</g>
</pattern>
<pattern  y="299.31" width="72" height="72" patternUnits="userSpaceOnUse" id="Unnamed_Pattern_2" viewBox="36.35 -108.35 72 72" style="overflow:visible;">
	<g>
		<rect x="36.35" y="-108.35" class="st0" width="72" height="72"/>
		<g>
			<defs>
				<rect id="SVGID_00000152967974812800518170000010529851580468485013_" x="36.35" y="-108.35" width="72" height="72"/>
			</defs>
			<clipPath id="SVGID_00000117646724729650518190000018040267166791334075_">
				<use xlink:href="#SVGID_00000152967974812800518170000010529851580468485013_"  style="overflow:visible;"/>
			</clipPath>
			
				<rect x="36.35" y="-108.35" style="clip-path:url(#SVGID_00000117646724729650518190000018040267166791334075_);fill:#8DDCC2;" width="72" height="72"/>
			<path style="clip-path:url(#SVGID_00000117646724729650518190000018040267166791334075_);fill:#8DDCC2;" d="M72.35-144.35l72,72
				 M69.35-141.35l72,72 M66.35-138.35l72,72 M63.35-135.35l72,72 M60.35-132.35l72,72 M57.35-129.35l72,72 M54.35-126.35l72,72
				 M51.35-123.35l72,72 M48.35-120.35l72,72 M45.35-117.35l72,72 M42.35-114.35l72,72 M39.35-111.35l72,72 M36.35-108.35l72,72
				 M33.35-105.35l72,72 M30.35-102.35l72,72 M27.35-99.35l72,72 M24.35-96.35l72,72 M21.35-93.35l72,72 M18.35-90.35l72,72
				 M15.35-87.35l72,72 M12.35-84.35l72,72 M9.35-81.35l72,72 M6.35-78.35l72,72 M3.35-75.35l72,72 M0.35-72.35l72,72"/>
			
				<path style="clip-path:url(#SVGID_00000117646724729650518190000018040267166791334075_);fill:none;stroke:#000000;stroke-miterlimit:10;" d="
				M72.35-144.35l72,72 M69.35-141.35l72,72 M66.35-138.35l72,72 M63.35-135.35l72,72 M60.35-132.35l72,72 M57.35-129.35l72,72
				 M54.35-126.35l72,72 M51.35-123.35l72,72 M48.35-120.35l72,72 M45.35-117.35l72,72 M42.35-114.35l72,72 M39.35-111.35l72,72
				 M36.35-108.35l72,72 M33.35-105.35l72,72 M30.35-102.35l72,72 M27.35-99.35l72,72 M24.35-96.35l72,72 M21.35-93.35l72,72
				 M18.35-90.35l72,72 M15.35-87.35l72,72 M12.35-84.35l72,72 M9.35-81.35l72,72 M6.35-78.35l72,72 M3.35-75.35l72,72 M0.35-72.35
				l72,72"/>
		</g>
	</g>
</pattern>
<pattern  y="299.31" width="72" height="72" patternUnits="userSpaceOnUse" id="Unnamed_Pattern_3" viewBox="36.35 -108.35 72 72" style="overflow:visible;">
	<g>
		<rect x="36.35" y="-108.35" class="st0" width="72" height="72"/>
		<g>
			<defs>
				<rect id="SVGID_00000121975528845633147070000011639055904197212863_" x="36.35" y="-108.35" width="72" height="72"/>
			</defs>
			<clipPath id="SVGID_00000177460362925108409760000006371186008785691296_">
				<use xlink:href="#SVGID_00000121975528845633147070000011639055904197212863_"  style="overflow:visible;"/>
			</clipPath>
			
				<rect x="36.35" y="-108.35" style="clip-path:url(#SVGID_00000177460362925108409760000006371186008785691296_);fill:#69C5B9;" width="72" height="72"/>
			<path style="clip-path:url(#SVGID_00000177460362925108409760000006371186008785691296_);fill:#69C5B9;" d="M72.35-144.35l72,72
				 M69.35-141.35l72,72 M66.35-138.35l72,72 M63.35-135.35l72,72 M60.35-132.35l72,72 M57.35-129.35l72,72 M54.35-126.35l72,72
				 M51.35-123.35l72,72 M48.35-120.35l72,72 M45.35-117.35l72,72 M42.35-114.35l72,72 M39.35-111.35l72,72 M36.35-108.35l72,72
				 M33.35-105.35l72,72 M30.35-102.35l72,72 M27.35-99.35l72,72 M24.35-96.35l72,72 M21.35-93.35l72,72 M18.35-90.35l72,72
				 M15.35-87.35l72,72 M12.35-84.35l72,72 M9.35-81.35l72,72 M6.35-78.35l72,72 M3.35-75.35l72,72 M0.35-72.35l72,72"/>
			
				<path style="clip-path:url(#SVGID_00000177460362925108409760000006371186008785691296_);fill:none;stroke:#000000;stroke-miterlimit:10;" d="
				M72.35-144.35l72,72 M69.35-141.35l72,72 M66.35-138.35l72,72 M63.35-135.35l72,72 M60.35-132.35l72,72 M57.35-129.35l72,72
				 M54.35-126.35l72,72 M51.35-123.35l72,72 M48.35-120.35l72,72 M45.35-117.35l72,72 M42.35-114.35l72,72 M39.35-111.35l72,72
				 M36.35-108.35l72,72 M33.35-105.35l72,72 M30.35-102.35l72,72 M27.35-99.35l72,72 M24.35-96.35l72,72 M21.35-93.35l72,72
				 M18.35-90.35l72,72 M15.35-87.35l72,72 M12.35-84.35l72,72 M9.35-81.35l72,72 M6.35-78.35l72,72 M3.35-75.35l72,72 M0.35-72.35
				l72,72"/>
		</g>
	</g>
</pattern>
<pattern  y="299.31" width="72" height="72" patternUnits="userSpaceOnUse" id="Unnamed_Pattern_4" viewBox="36.35 -108.35 72 72" style="overflow:visible;">
	<g>
		<rect x="36.35" y="-108.35" class="st0" width="72" height="72"/>
		<g>
			<defs>
				<rect id="SVGID_00000035499866581532367990000008954055990252763051_" x="36.35" y="-108.35" width="72" height="72"/>
			</defs>
			<clipPath id="SVGID_00000103231305550833936650000006678103195857786541_">
				<use xlink:href="#SVGID_00000035499866581532367990000008954055990252763051_"  style="overflow:visible;"/>
			</clipPath>
			
				<rect x="36.35" y="-108.35" style="clip-path:url(#SVGID_00000103231305550833936650000006678103195857786541_);fill:#50ACB3;" width="72" height="72"/>
			<path style="clip-path:url(#SVGID_00000103231305550833936650000006678103195857786541_);fill:#50ACB3;" d="M72.35-144.35l72,72
				 M69.35-141.35l72,72 M66.35-138.35l72,72 M63.35-135.35l72,72 M60.35-132.35l72,72 M57.35-129.35l72,72 M54.35-126.35l72,72
				 M51.35-123.35l72,72 M48.35-120.35l72,72 M45.35-117.35l72,72 M42.35-114.35l72,72 M39.35-111.35l72,72 M36.35-108.35l72,72
				 M33.35-105.35l72,72 M30.35-102.35l72,72 M27.35-99.35l72,72 M24.35-96.35l72,72 M21.35-93.35l72,72 M18.35-90.35l72,72
				 M15.35-87.35l72,72 M12.35-84.35l72,72 M9.35-81.35l72,72 M6.35-78.35l72,72 M3.35-75.35l72,72 M0.35-72.35l72,72"/>
			
				<path style="clip-path:url(#SVGID_00000103231305550833936650000006678103195857786541_);fill:none;stroke:#000000;stroke-miterlimit:10;" d="
				M72.35-144.35l72,72 M69.35-141.35l72,72 M66.35-138.35l72,72 M63.35-135.35l72,72 M60.35-132.35l72,72 M57.35-129.35l72,72
				 M54.35-126.35l72,72 M51.35-123.35l72,72 M48.35-120.35l72,72 M45.35-117.35l72,72 M42.35-114.35l72,72 M39.35-111.35l72,72
				 M36.35-108.35l72,72 M33.35-105.35l72,72 M30.35-102.35l72,72 M27.35-99.35l72,72 M24.35-96.35l72,72 M21.35-93.35l72,72
				 M18.35-90.35l72,72 M15.35-87.35l72,72 M12.35-84.35l72,72 M9.35-81.35l72,72 M6.35-78.35l72,72 M3.35-75.35l72,72 M0.35-72.35
				l72,72"/>
		</g>
	</g>
</pattern>
<pattern  y="299.31" width="72" height="72" patternUnits="userSpaceOnUse" id="Unnamed_Pattern_5" viewBox="36.35 -108.35 72 72" style="overflow:visible;">
	<g>
		<rect x="36.35" y="-108.35" class="st0" width="72" height="72"/>
		<g>
			<defs>
				<rect id="SVGID_00000013904806255100679240000008255945304940205443_" x="36.35" y="-108.35" width="72" height="72"/>
			</defs>
			<clipPath id="SVGID_00000075860402395934828980000014403119363324985738_">
				<use xlink:href="#SVGID_00000013904806255100679240000008255945304940205443_"  style="overflow:visible;"/>
			</clipPath>
			
				<rect x="36.35" y="-108.35" style="clip-path:url(#SVGID_00000075860402395934828980000014403119363324985738_);fill:#345691;" width="72" height="72"/>
			<path style="clip-path:url(#SVGID_00000075860402395934828980000014403119363324985738_);fill:#345691;" d="M72.35-144.35l72,72
				 M69.35-141.35l72,72 M66.35-138.35l72,72 M63.35-135.35l72,72 M60.35-132.35l72,72 M57.35-129.35l72,72 M54.35-126.35l72,72
				 M51.35-123.35l72,72 M48.35-120.35l72,72 M45.35-117.35l72,72 M42.35-114.35l72,72 M39.35-111.35l72,72 M36.35-108.35l72,72
				 M33.35-105.35l72,72 M30.35-102.35l72,72 M27.35-99.35l72,72 M24.35-96.35l72,72 M21.35-93.35l72,72 M18.35-90.35l72,72
				 M15.35-87.35l72,72 M12.35-84.35l72,72 M9.35-81.35l72,72 M6.35-78.35l72,72 M3.35-75.35l72,72 M0.35-72.35l72,72"/>
			
				<path style="clip-path:url(#SVGID_00000075860402395934828980000014403119363324985738_);fill:none;stroke:#000000;stroke-miterlimit:10;" d="
				M72.35-144.35l72,72 M69.35-141.35l72,72 M66.35-138.35l72,72 M63.35-135.35l72,72 M60.35-132.35l72,72 M57.35-129.35l72,72
				 M54.35-126.35l72,72 M51.35-123.35l72,72 M48.35-120.35l72,72 M45.35-117.35l72,72 M42.35-114.35l72,72 M39.35-111.35l72,72
				 M36.35-108.35l72,72 M33.35-105.35l72,72 M30.35-102.35l72,72 M27.35-99.35l72,72 M24.35-96.35l72,72 M21.35-93.35l72,72
				 M18.35-90.35l72,72 M15.35-87.35l72,72 M12.35-84.35l72,72 M9.35-81.35l72,72 M6.35-78.35l72,72 M3.35-75.35l72,72 M0.35-72.35
				l72,72"/>
		</g>
	</g>
</pattern>
<pattern  y="299.31" width="72" height="72" patternUnits="userSpaceOnUse" id="Unnamed_Pattern_6" viewBox="36.35 -108.35 72 72" style="overflow:visible;">
	<g>
		<rect x="36.35" y="-108.35" class="st0" width="72" height="72"/>
		<g>
			<defs>
				<rect id="SVGID_00000165229196640812310860000012175820602372304005_" x="36.35" y="-108.35" width="72" height="72"/>
			</defs>
			<clipPath id="SVGID_00000168826048298855640720000006432229884343147672_">
				<use xlink:href="#SVGID_00000165229196640812310860000012175820602372304005_"  style="overflow:visible;"/>
			</clipPath>
			
				<rect x="36.35" y="-108.35" style="clip-path:url(#SVGID_00000168826048298855640720000006432229884343147672_);fill:#4090AD;" width="72" height="72"/>
			<path style="clip-path:url(#SVGID_00000168826048298855640720000006432229884343147672_);fill:#4090AD;" d="M72.35-144.35l72,72
				 M69.35-141.35l72,72 M66.35-138.35l72,72 M63.35-135.35l72,72 M60.35-132.35l72,72 M57.35-129.35l72,72 M54.35-126.35l72,72
				 M51.35-123.35l72,72 M48.35-120.35l72,72 M45.35-117.35l72,72 M42.35-114.35l72,72 M39.35-111.35l72,72 M36.35-108.35l72,72
				 M33.35-105.35l72,72 M30.35-102.35l72,72 M27.35-99.35l72,72 M24.35-96.35l72,72 M21.35-93.35l72,72 M18.35-90.35l72,72
				 M15.35-87.35l72,72 M12.35-84.35l72,72 M9.35-81.35l72,72 M6.35-78.35l72,72 M3.35-75.35l72,72 M0.35-72.35l72,72"/>
			
				<path style="clip-path:url(#SVGID_00000168826048298855640720000006432229884343147672_);fill:none;stroke:#000000;stroke-miterlimit:10;" d="
				M72.35-144.35l72,72 M69.35-141.35l72,72 M66.35-138.35l72,72 M63.35-135.35l72,72 M60.35-132.35l72,72 M57.35-129.35l72,72
				 M54.35-126.35l72,72 M51.35-123.35l72,72 M48.35-120.35l72,72 M45.35-117.35l72,72 M42.35-114.35l72,72 M39.35-111.35l72,72
				 M36.35-108.35l72,72 M33.35-105.35l72,72 M30.35-102.35l72,72 M27.35-99.35l72,72 M24.35-96.35l72,72 M21.35-93.35l72,72
				 M18.35-90.35l72,72 M15.35-87.35l72,72 M12.35-84.35l72,72 M9.35-81.35l72,72 M6.35-78.35l72,72 M3.35-75.35l72,72 M0.35-72.35
				l72,72"/>
		</g>
	</g>
</pattern>
<pattern  y="299.31" width="72" height="72" patternUnits="userSpaceOnUse" id="Unnamed_Pattern_8" viewBox="36.35 -108.35 72 72" style="overflow:visible;">
	<g>
		<rect x="36.35" y="-108.35" class="st0" width="72" height="72"/>
		<g>
			<defs>
				<rect id="SVGID_00000147203159579380663590000003158035128420939932_" x="36.35" y="-108.35" width="72" height="72"/>
			</defs>
			<clipPath id="SVGID_00000036944695720143127530000002110362074292531864_">
				<use xlink:href="#SVGID_00000147203159579380663590000003158035128420939932_"  style="overflow:visible;"/>
			</clipPath>
			
				<rect x="36.35" y="-108.35" style="clip-path:url(#SVGID_00000036944695720143127530000002110362074292531864_);fill:#3873A2;" width="72" height="72"/>
			<path style="clip-path:url(#SVGID_00000036944695720143127530000002110362074292531864_);fill:#3873A2;" d="M72.35-144.35l72,72
				 M69.35-141.35l72,72 M66.35-138.35l72,72 M63.35-135.35l72,72 M60.35-132.35l72,72 M57.35-129.35l72,72 M54.35-126.35l72,72
				 M51.35-123.35l72,72 M48.35-120.35l72,72 M45.35-117.35l72,72 M42.35-114.35l72,72 M39.35-111.35l72,72 M36.35-108.35l72,72
				 M33.35-105.35l72,72 M30.35-102.35l72,72 M27.35-99.35l72,72 M24.35-96.35l72,72 M21.35-93.35l72,72 M18.35-90.35l72,72
				 M15.35-87.35l72,72 M12.35-84.35l72,72 M9.35-81.35l72,72 M6.35-78.35l72,72 M3.35-75.35l72,72 M0.35-72.35l72,72"/>
			
				<path style="clip-path:url(#SVGID_00000036944695720143127530000002110362074292531864_);fill:none;stroke:#000000;stroke-miterlimit:10;" d="
				M72.35-144.35l72,72 M69.35-141.35l72,72 M66.35-138.35l72,72 M63.35-135.35l72,72 M60.35-132.35l72,72 M57.35-129.35l72,72
				 M54.35-126.35l72,72 M51.35-123.35l72,72 M48.35-120.35l72,72 M45.35-117.35l72,72 M42.35-114.35l72,72 M39.35-111.35l72,72
				 M36.35-108.35l72,72 M33.35-105.35l72,72 M30.35-102.35l72,72 M27.35-99.35l72,72 M24.35-96.35l72,72 M21.35-93.35l72,72
				 M18.35-90.35l72,72 M15.35-87.35l72,72 M12.35-84.35l72,72 M9.35-81.35l72,72 M6.35-78.35l72,72 M3.35-75.35l72,72 M0.35-72.35
				l72,72"/>
		</g>
	</g>
</pattern>
<pattern  y="299.31" width="72" height="72" patternUnits="userSpaceOnUse" id="Unnamed_Pattern_9" viewBox="36.35 -108.35 72 72" style="overflow:visible;">
	<g>
		<rect x="36.35" y="-108.35" class="st0" width="72" height="72"/>
		<g>
			<defs>
				<rect id="SVGID_00000174572532426303273560000005058617145299745454_" x="36.35" y="-108.35" width="72" height="72"/>
			</defs>
			<clipPath id="SVGID_00000124130461901043955910000007626506312304513705_">
				<use xlink:href="#SVGID_00000174572532426303273560000005058617145299745454_"  style="overflow:visible;"/>
			</clipPath>
			
				<rect x="36.35" y="-108.35" style="clip-path:url(#SVGID_00000124130461901043955910000007626506312304513705_);fill:#D8AB91;" width="72" height="72"/>
			<path style="clip-path:url(#SVGID_00000124130461901043955910000007626506312304513705_);fill:#D8AB91;" d="M72.35-144.35l72,72
				 M69.35-141.35l72,72 M66.35-138.35l72,72 M63.35-135.35l72,72 M60.35-132.35l72,72 M57.35-129.35l72,72 M54.35-126.35l72,72
				 M51.35-123.35l72,72 M48.35-120.35l72,72 M45.35-117.35l72,72 M42.35-114.35l72,72 M39.35-111.35l72,72 M36.35-108.35l72,72
				 M33.35-105.35l72,72 M30.35-102.35l72,72 M27.35-99.35l72,72 M24.35-96.35l72,72 M21.35-93.35l72,72 M18.35-90.35l72,72
				 M15.35-87.35l72,72 M12.35-84.35l72,72 M9.35-81.35l72,72 M6.35-78.35l72,72 M3.35-75.35l72,72 M0.35-72.35l72,72"/>
			
				<path style="clip-path:url(#SVGID_00000124130461901043955910000007626506312304513705_);fill:none;stroke:#000000;stroke-miterlimit:10;" d="
				M72.35-144.35l72,72 M69.35-141.35l72,72 M66.35-138.35l72,72 M63.35-135.35l72,72 M60.35-132.35l72,72 M57.35-129.35l72,72
				 M54.35-126.35l72,72 M51.35-123.35l72,72 M48.35-120.35l72,72 M45.35-117.35l72,72 M42.35-114.35l72,72 M39.35-111.35l72,72
				 M36.35-108.35l72,72 M33.35-105.35l72,72 M30.35-102.35l72,72 M27.35-99.35l72,72 M24.35-96.35l72,72 M21.35-93.35l72,72
				 M18.35-90.35l72,72 M15.35-87.35l72,72 M12.35-84.35l72,72 M9.35-81.35l72,72 M6.35-78.35l72,72 M3.35-75.35l72,72 M0.35-72.35
				l72,72"/>
		</g>
	</g>
</pattern>
<g id="Layer_2">
	<g>
		<g>
			
				<pattern  id="SVGID_00000045587149052213420740000003005724459616929713_" xlink:href="#Unnamed_Pattern_16" patternTransform="matrix(1 0 0 -1 -47.7047 -854.8739)">
			</pattern>
			<path style="fill:url(#SVGID_00000045587149052213420740000003005724459616929713_);" d="M201.77,118.03
				c0-9.28-1.96-18.45-5.75-26.92c-3.79-8.47-9.32-16.05-16.24-22.23l-29.28,32.74c2.31,2.07,4.16,4.6,5.42,7.43
				s1.92,5.89,1.92,8.99H201.77z"/>
			<path class="st28" d="M179.78,68.88c-11.42-10.21-26.05-16.13-41.36-16.74c-15.31-0.6-30.36,4.15-42.55,13.43l26.61,34.94
				c4.07-3.1,9.1-4.69,14.21-4.49s10,2.18,13.81,5.59L179.78,68.88z"/>
			
				<pattern  id="SVGID_00000129206203499344186210000007459729138144290690_" xlink:href="#Unnamed_Pattern_8" patternTransform="matrix(1 0 0 -1 -47.7047 -854.8739)">
			</pattern>
			<path style="fill:url(#SVGID_00000129206203499344186210000007459729138144290690_);" d="M81.33,155.18
				c1.88,2.76,3.98,5.38,6.26,7.83c2.28,2.45,4.75,4.72,7.37,6.79l27.21-34.47c-0.88-0.69-1.7-1.45-2.46-2.27
				c-0.76-0.82-1.46-1.69-2.09-2.61L81.33,155.18z"/>
			<path class="st30" d="M94.96,169.79c5.42,4.28,11.48,7.68,17.95,10.08c6.47,2.4,13.28,3.77,20.18,4.05l1.82-43.88
				c-2.3-0.1-4.58-0.55-6.74-1.35c-2.16-0.8-4.19-1.94-5.99-3.37L94.96,169.79z"/>
			
				<pattern  id="SVGID_00000096049343674041101870000012683088776009239483_" xlink:href="#Unnamed_Pattern_6" patternTransform="matrix(1 0 0 -1 -47.7047 -854.8739)">
			</pattern>
			<path style="fill:url(#SVGID_00000096049343674041101870000012683088776009239483_);" d="M133.09,183.92
				c2.19,0.09,4.39,0.07,6.58-0.06c2.19-0.13,4.37-0.37,6.54-0.71l-6.92-43.37c-0.72,0.12-1.45,0.19-2.19,0.24
				c-0.73,0.04-1.47,0.05-2.2,0.02L133.09,183.92z"/>
			<path class="st32" d="M146.21,183.15c7.88-1.26,15.47-3.93,22.39-7.9c6.92-3.97,13.07-9.16,18.14-15.32l-33.92-27.91
				c-1.69,2.06-3.75,3.79-6.06,5.12c-2.31,1.32-4.85,2.22-7.48,2.64L146.21,183.15z"/>
		</g>
		<g class="st33">
			
				<pattern  id="SVGID_00000003102607395342168580000000173568154819919016_" xlink:href="#Unnamed_Pattern_5" patternTransform="matrix(1 0 0 -1 -47.7047 -854.8739)"  class="st48">
			</pattern>
			<path style="display:inline;fill:url(#SVGID_00000003102607395342168580000000173568154819919016_);" d="M95.87,65.57
				c-2.04,1.55-3.99,3.22-5.83,5c-1.85,1.78-3.59,3.67-5.21,5.65l33.96,27.85c0.54-0.66,1.12-1.29,1.74-1.89s1.27-1.15,1.95-1.67
				L95.87,65.57z"/>
			<path class="st35" d="M84.83,76.22c-9.03,11.02-14.26,24.67-14.89,38.9c-0.63,14.23,3.37,28.29,11.39,40.06l36.29-24.74
				c-2.68-3.93-4.02-8.63-3.81-13.38c0.21-4.75,1.96-9.31,4.97-12.99L84.83,76.22z"/>
			
				<pattern  id="SVGID_00000078017708590388070040000015851654135777664437_" xlink:href="#Unnamed_Pattern_4" patternTransform="matrix(1 0 0 -1 -47.7047 -854.8739)"  class="st48">
			</pattern>
			<path style="display:inline;fill:url(#SVGID_00000078017708590388070040000015851654135777664437_);" d="M186.74,159.93
				c0.79-0.96,1.55-1.94,2.29-2.95c0.73-1,1.44-2.03,2.12-3.07l-36.85-23.9c-0.23,0.35-0.46,0.69-0.71,1.03s-0.5,0.66-0.76,0.98
				L186.74,159.93z"/>
			<path class="st37" d="M191.15,153.91c2.4-3.7,4.42-7.63,6.03-11.73s2.81-8.36,3.58-12.7l-43.25-7.62
				c-0.26,1.45-0.66,2.87-1.2,4.24c-0.54,1.37-1.21,2.68-2.02,3.92L191.15,153.91z"/>
			
				<pattern  id="SVGID_00000082348059400941864640000017731019011101534909_" xlink:href="#Unnamed_Pattern_3" patternTransform="matrix(1 0 0 -1 -47.7047 -854.8739)"  class="st48">
			</pattern>
			<path style="display:inline;fill:url(#SVGID_00000082348059400941864640000017731019011101534909_);" d="M200.76,129.48
				c0.03-0.17,0.06-0.34,0.09-0.51c0.03-0.17,0.06-0.34,0.08-0.51l-43.37-6.95c-0.01,0.06-0.02,0.11-0.03,0.17s-0.02,0.11-0.03,0.17
				L200.76,129.48z"/>
			<path class="st39" d="M200.94,128.46c0.11-0.69,0.21-1.38,0.3-2.07c0.09-0.69,0.17-1.38,0.23-2.08l-43.72-4.18
				c-0.02,0.23-0.05,0.46-0.08,0.69s-0.06,0.46-0.1,0.69L200.94,128.46z"/>
			
				<pattern  id="SVGID_00000014603276891861073850000012756639195165359033_" xlink:href="#Unnamed_Pattern_2" patternTransform="matrix(1 0 0 -1 -47.7047 -854.8739)"  class="st48">
			</pattern>
			<path style="display:inline;fill:url(#SVGID_00000014603276891861073850000012756639195165359033_);" d="M201.47,124.31
				c0.02-0.19,0.04-0.38,0.05-0.58s0.03-0.38,0.05-0.58l-43.79-3.42c-0.01,0.06-0.01,0.13-0.02,0.19c-0.01,0.06-0.01,0.13-0.02,0.19
				L201.47,124.31z"/>
			<path class="st41" d="M201.57,123.16c0.03-0.33,0.05-0.67,0.07-1c0.02-0.33,0.04-0.67,0.06-1l-43.87-2.08
				c-0.01,0.11-0.01,0.22-0.02,0.33s-0.01,0.22-0.02,0.33L201.57,123.16z"/>
			
				<pattern  id="SVGID_00000125581036787669814260000010470912692927458741_" xlink:href="#Unnamed_Pattern_15" patternTransform="matrix(1 0 0 -1 -47.7047 -854.8739)"  class="st48">
			</pattern>
			<polygon style="display:inline;fill:url(#SVGID_00000125581036787669814260000010470912692927458741_);" points="201.69,121.16 
				201.69,121.16 157.82,119.08 			"/>
			<path class="st43" d="M201.69,121.16c0.02-0.52,0.04-1.04,0.06-1.56c0.01-0.52,0.02-1.04,0.02-1.57h-43.92
				c0,0.17,0,0.35-0.01,0.52s-0.01,0.35-0.02,0.52L201.69,121.16z"/>
		</g>
	</g>
	<g>
		<text transform="matrix(1 0 0 1 130.1592 115.9965)" class="st44 st45">682</text>
		<text transform="matrix(1 0 0 1 128.2172 123.4765)" class="st44 st45">mtpa</text>
		<text transform="matrix(1 0 0 1 160.6422 39.0745)"><tspan x="0" y="0" class="st46 st45">Eas</tspan><tspan x="12.46" y="0" class="st46 st45 st47">t</tspan><tspan x="16.73" y="0" class="st46 st45">Asia</tspan></text>
		<text transform="matrix(1 0 0 1 160.6422 46.5545)"><tspan x="0" y="0" class="st44 st45">24</tspan><tspan x="7.79" y="0" class="st44 st45 st47">1</tspan><tspan x="13.62" y="0" class="st44 st45">mtp</tspan><tspan x="25.29" y="0" class="st44 st45 st47">a</tspan><tspan x="31.13" y="0" class="st44 st45">(35.4%)</tspan></text>
		<text transform="matrix(1 0 0 1 160.6422 54.0345)"><tspan x="0" y="0" class="st44 st45">US$81.</tspan><tspan x="23.35" y="0" class="st44 st45 st47">3</tspan><tspan x="29.19" y="0" class="st44 st45">billion</tspan></text>
		<text transform="matrix(1 0 0 1 69.0612 183.3065)"><tspan x="0" y="0" class="st46 st45">Sout</tspan><tspan x="15.55" y="0" class="st46 st45 st47">h</tspan><tspan x="21.77" y="0" class="st46 st45">Asia</tspan></text>
		<text transform="matrix(1 0 0 1 49.2772 190.7865)"><tspan x="0" y="0" class="st44 st45">10</tspan><tspan x="7.79" y="0" class="st44 st45 st47">3</tspan><tspan x="13.62" y="0" class="st44 st45">mtp</tspan><tspan x="25.29" y="0" class="st44 st45 st47">a</tspan><tspan x="31.13" y="0" class="st44 st45">(15.1%)</tspan></text>
		<text transform="matrix(1 0 0 1 57.8382 198.2665)"><tspan x="0" y="0" class="st44 st45">US$16.</tspan><tspan x="23.35" y="0" class="st44 st45 st47">6</tspan><tspan x="29.19" y="0" class="st44 st45">billion</tspan></text>
		<text transform="matrix(1 0 0 1 134.2562 193.2005)"><tspan x="0" y="0" class="st46 st45">S</tspan><tspan x="4.67" y="0" class="st46 st45 st47">E</tspan><tspan x="11.28" y="0" class="st46 st45">Asia</tspan></text>
		<text transform="matrix(1 0 0 1 134.2562 200.6805)"><tspan x="0" y="0" class="st44 st45">98 mtp</tspan><tspan x="21.4" y="0" class="st44 st45 st47">a</tspan><tspan x="27.24" y="0" class="st44 st45">(14.5%)</tspan></text>
		<text transform="matrix(1 0 0 1 134.2562 208.1605)"><tspan x="0" y="0" class="st44 st45">US$21.</tspan><tspan x="23.35" y="0" class="st44 st45 st47">5</tspan><tspan x="29.19" y="0" class="st44 st45">billion</tspan></text>
		<g class="st48">
			<text transform="matrix(1 0 0 1 191.0002 167.3675)"><tspan x="0" y="0" class="st46 st45">Lati</tspan><tspan x="12.44" y="0" class="st46 st45 st47">n</tspan><tspan x="18.66" y="0" class="st46 st45">Americ</tspan><tspan x="42.39" y="0" class="st46 st45 st47">a</tspan><tspan x="48.23" y="0" class="st46 st45">and</tspan></text>
			<text transform="matrix(1 0 0 1 191.0002 174.8475)"><tspan x="0" y="0" class="st46 st45">th</tspan><tspan x="6.61" y="0" class="st46 st45 st47">e</tspan><tspan x="12.45" y="0" class="st46 st45">Caribbean</tspan></text>
			<text transform="matrix(1 0 0 1 191.0002 182.3275)"><tspan x="0" y="0" class="st44 st45">5</tspan><tspan x="3.89" y="0" class="st44 st45 st47">6</tspan><tspan x="9.73" y="0" class="st44 st45">mtp</tspan><tspan x="21.4" y="0" class="st44 st45 st47">a</tspan><tspan x="27.24" y="0" class="st44 st45">(8.2%)</tspan></text>
			<text transform="matrix(1 0 0 1 191.0002 189.8075)"><tspan x="0" y="0" class="st44 st45">US$6.</tspan><tspan x="19.46" y="0" class="st44 st45 st47">3</tspan><tspan x="25.29" y="0" class="st44 st45">billion</tspan></text>
			<text transform="matrix(1 0 0 1 213.8892 141.9495)"><tspan x="0" y="0" class="st46 st45">Sub-Sahara</tspan><tspan x="38.9" y="0" class="st46 st45 st47">n</tspan><tspan x="45.11" y="0" class="st46 st45">Africa</tspan></text>
			<text transform="matrix(1 0 0 1 213.8892 149.4295)"><tspan x="0" y="0" class="st44 st45 st47">9</tspan><tspan x="5.84" y="0" class="st44 st45">mtp</tspan><tspan x="17.51" y="0" class="st44 st45 st47">a</tspan><tspan x="23.35" y="0" class="st44 st45">(1.3%)</tspan></text>
			<text transform="matrix(1 0 0 1 213.8892 156.9095)"><tspan x="0" y="0" class="st44 st45">US$3.</tspan><tspan x="19.46" y="0" class="st44 st45 st47">5</tspan><tspan x="25.29" y="0" class="st44 st45">billion</tspan></text>
			<text transform="matrix(1 0 0 1 220.3552 107.4065)"><tspan x="0" y="0" class="st46 st45">Australi</tspan><tspan x="26.06" y="0" class="st46 st45 st47">a</tspan><tspan x="31.9" y="0" class="st46 st45">and</tspan></text>
			<text transform="matrix(1 0 0 1 220.3552 114.8865)"><tspan x="0" y="0" class="st46 st45">Ne</tspan><tspan x="8.95" y="0" class="st46 st45 st47">w</tspan><tspan x="16.33" y="0" class="st46 st45">Zealand</tspan></text>
			<text transform="matrix(1 0 0 1 220.3552 122.3665)"><tspan x="0" y="0" class="st44 st45 st47">5</tspan><tspan x="5.84" y="0" class="st44 st45">mtp</tspan><tspan x="17.51" y="0" class="st44 st45 st47">a</tspan><tspan x="23.35" y="0" class="st44 st45">(0.8%)</tspan></text>
			<text transform="matrix(1 0 0 1 220.3552 129.8465)"><tspan x="0" y="0" class="st44 st45">US$889.</tspan><tspan x="27.24" y="0" class="st44 st45 st47">4</tspan><tspan x="33.08" y="0" class="st44 st45">million</tspan></text>
			<text transform="matrix(1 0 0 1 206.5172 73.9805)"><tspan x="0" y="0" class="st46 st45">Middl</tspan><tspan x="18.27" y="0" class="st46 st45 st47">e</tspan><tspan x="24.11" y="0" class="st46 st45">Eas</tspan><tspan x="36.57" y="0" class="st46 st45 st47">t</tspan><tspan x="40.84" y="0" class="st46 st45">and</tspan></text>
			<text transform="matrix(1 0 0 1 206.5172 81.4605)"><tspan x="0" y="0" class="st46 st45">Nort</tspan><tspan x="14.39" y="0" class="st46 st45 st47">h</tspan><tspan x="20.6" y="0" class="st46 st45">Africa</tspan></text>
			<text transform="matrix(1 0 0 1 206.5172 88.9405)"><tspan x="0" y="0" class="st44 st45 st47">5</tspan><tspan x="5.84" y="0" class="st44 st45">mtp</tspan><tspan x="17.51" y="0" class="st44 st45 st47">a</tspan><tspan x="23.35" y="0" class="st44 st45">(0.8%)</tspan></text>
			<text transform="matrix(1 0 0 1 206.5172 96.4205)"><tspan x="0" y="0" class="st44 st45">US$4.</tspan><tspan x="19.46" y="0" class="st44 st45 st47">5</tspan><tspan x="25.29" y="0" class="st44 st45">billion</tspan></text>
			<text transform="matrix(1 0 0 1 57.8092 60.7575)" class="st46 st45">Europe</text>
			<text transform="matrix(1 0 0 1 26.7412 68.2375)"><tspan x="0" y="0" class="st44 st45">16</tspan><tspan x="7.79" y="0" class="st44 st45 st47">5</tspan><tspan x="13.62" y="0" class="st44 st45">mtp</tspan><tspan x="25.29" y="0" class="st44 st45 st47">a</tspan><tspan x="31.13" y="0" class="st44 st45">(24.2%)</tspan></text>
			<text transform="matrix(1 0 0 1 34.3022 75.7175)"><tspan x="0" y="0" class="st44 st45">US$29.</tspan><tspan x="23.35" y="0" class="st44 st45 st47">5</tspan><tspan x="29.19" y="0" class="st44 st45">billion</tspan></text>
		</g>
	</g>
	<g>
		<text transform="matrix(1 0 0 1 122.7161 17.0106)" class="st44 st45">Proposed</text>
		<text transform="matrix(1 0 0 1 122.7161 24.5416)" class="st44 st45">Construction</text>
		<rect x="113.97" y="11.18" class="st49" width="6.96" height="7.04"/>
		<rect x="113.97" y="18.23" class="st49" width="6.96" height="7.04"/>
		<rect x="113.97" y="11.18" class="st50" width="6.96" height="7.04"/>
		<g>
			<defs>
				<rect id="SVGID_00000130645979613555047480000012546334428365280923_" x="113.97" y="18.23" width="6.96" height="7.04"/>
			</defs>
			
				<use xlink:href="#SVGID_00000130645979613555047480000012546334428365280923_"  style="overflow:visible;opacity:0.4;fill-rule:evenodd;clip-rule:evenodd;"/>
			<clipPath id="SVGID_00000072986962970322616550000015489120963438162858_">
				<use xlink:href="#SVGID_00000130645979613555047480000012546334428365280923_"  style="overflow:visible;opacity:0.4;"/>
			</clipPath>
			<g style="clip-path:url(#SVGID_00000072986962970322616550000015489120963438162858_);">
				
					<rect x="90.43" y="7.58" transform="matrix(0.7071 -0.7071 0.7071 0.7071 10.8552 89.9553)" class="st52" width="47.17" height="48.59"/>
				<line class="st52" x1="146.23" y1="30.74" x2="112.88" y2="64.09"/>
				<line class="st52" x1="144.6" y1="29.1" x2="111.24" y2="62.46"/>
				<line class="st52" x1="142.96" y1="27.47" x2="109.61" y2="60.82"/>
				<line class="st52" x1="141.32" y1="25.83" x2="107.97" y2="59.19"/>
				<line class="st52" x1="139.69" y1="24.19" x2="106.33" y2="57.55"/>
				<line class="st52" x1="138.05" y1="22.56" x2="104.7" y2="55.91"/>
				<line class="st52" x1="136.42" y1="20.92" x2="103.06" y2="54.28"/>
				<line class="st52" x1="134.78" y1="19.29" x2="101.43" y2="52.64"/>
				<line class="st52" x1="133.14" y1="17.65" x2="99.79" y2="51.01"/>
				<line class="st52" x1="131.51" y1="16.01" x2="98.15" y2="49.37"/>
				<line class="st52" x1="129.87" y1="14.38" x2="96.52" y2="47.73"/>
				<line class="st52" x1="128.24" y1="12.74" x2="94.88" y2="46.1"/>
				<line class="st52" x1="126.6" y1="11.11" x2="93.25" y2="44.46"/>
				<line class="st52" x1="124.96" y1="9.47" x2="91.61" y2="42.83"/>
				<line class="st52" x1="123.33" y1="7.83" x2="89.97" y2="41.19"/>
				<line class="st52" x1="121.69" y1="6.2" x2="88.34" y2="39.55"/>
				<line class="st52" x1="120.06" y1="4.56" x2="86.7" y2="37.92"/>
				<line class="st52" x1="118.42" y1="2.93" x2="85.07" y2="36.28"/>
				<line class="st52" x1="116.79" y1="1.29" x2="83.43" y2="34.65"/>
				<line class="st52" x1="115.15" y1="-0.35" x2="81.79" y2="33.01"/>
			</g>
			
				<use xlink:href="#SVGID_00000130645979613555047480000012546334428365280923_"  style="overflow:visible;opacity:0.4;fill-rule:evenodd;clip-rule:evenodd;fill:none;stroke:#000000;stroke-width:0.75;stroke-miterlimit:10;"/>
		</g>
		
			<rect id="outline1_00000078723285618479358440000009399524364192670121_" x="113.85" y="10.81" class="st53" width="7.2" height="7.21"/>
		
			<rect id="outline2_00000081622127999393574440000005036283755379917735_" x="113.85" y="18.09" class="st53" width="7.2" height="7.29"/>
	</g>
	<g>
		<g>
			<rect x="353.75" y="101.6" class="st54" width="11.55" height="10.9"/>
		</g>
		<g>
			<rect x="353.75" y="83.43" class="st54" width="16.71" height="10.9"/>
		</g>
		<rect x="353.75" y="47.1" class="st54" width="113.84" height="10.9"/>
		<g>
			<rect x="365.29" y="101.6" class="st55" width="5.55" height="10.9"/>
		</g>
		<g>
			<rect x="370.46" y="83.43" class="st55" width="8.46" height="10.9"/>
		</g>
		<rect x="467.58" y="47.1" class="st55" width="23.39" height="10.9"/>
		<g>
			<rect x="370.85" y="101.6" class="st56" width="20.14" height="10.9"/>
		</g>
		<g>
			<rect x="378.92" y="83.43" class="st56" width="17.43" height="10.9"/>
		</g>
		<rect x="490.97" y="47.1" class="st56" width="38.39" height="10.9"/>
		<line x1="353.75" y1="39.28" x2="353.75" y2="35.78"/>
		<line class="st57" x1="353.75" y1="39.28" x2="353.75" y2="35.78"/>
		<text transform="matrix(1 0 0 1 351.7992 30.834)" class="st44 st45">0</text>
		<line x1="379.38" y1="39.28" x2="379.38" y2="35.78"/>
		<line class="st57" x1="379.38" y1="39.28" x2="379.38" y2="35.78"/>
		<text transform="matrix(1 0 0 1 373.5409 30.834)" class="st44 st45">100</text>
		<line x1="405.01" y1="39.28" x2="405.01" y2="35.78"/>
		<line class="st57" x1="405.01" y1="39.28" x2="405.01" y2="35.78"/>
		<text transform="matrix(1 0 0 1 399.1742 30.834)" class="st44 st45">200</text>
		<line x1="430.65" y1="39.28" x2="430.65" y2="35.78"/>
		<line class="st57" x1="430.65" y1="39.28" x2="430.65" y2="35.78"/>
		<text transform="matrix(1 0 0 1 424.8075 30.834)" class="st44 st45">300</text>
		<line x1="456.28" y1="39.28" x2="456.28" y2="35.78"/>
		<line class="st57" x1="456.28" y1="39.28" x2="456.28" y2="35.78"/>
		<text transform="matrix(1 0 0 1 450.4413 30.834)" class="st44 st45">400</text>
		<line x1="481.91" y1="39.28" x2="481.91" y2="35.78"/>
		<line class="st57" x1="481.91" y1="39.28" x2="481.91" y2="35.78"/>
		<text transform="matrix(1 0 0 1 476.075 30.834)" class="st44 st45">500</text>
		<line x1="507.55" y1="39.28" x2="507.55" y2="35.78"/>
		<line class="st57" x1="507.55" y1="39.28" x2="507.55" y2="35.78"/>
		<text transform="matrix(1 0 0 1 501.7088 30.834)" class="st44 st45">600</text>
		<line x1="533.18" y1="39.28" x2="533.18" y2="35.78"/>
		<line class="st57" x1="533.18" y1="39.28" x2="533.18" y2="35.78"/>
		<text transform="matrix(1 0 0 1 527.3427 30.834)" class="st44 st45">700</text>
		<line x1="366.56" y1="39.28" x2="366.56" y2="37.28"/>
		<line class="st58" x1="366.56" y1="39.28" x2="366.56" y2="37.28"/>
		<line x1="392.2" y1="39.28" x2="392.2" y2="37.28"/>
		<line class="st58" x1="392.2" y1="39.28" x2="392.2" y2="37.28"/>
		<line x1="417.83" y1="39.28" x2="417.83" y2="37.28"/>
		<line class="st58" x1="417.83" y1="39.28" x2="417.83" y2="37.28"/>
		<line x1="443.46" y1="39.28" x2="443.46" y2="37.28"/>
		<line class="st58" x1="443.46" y1="39.28" x2="443.46" y2="37.28"/>
		<line x1="469.1" y1="39.28" x2="469.1" y2="37.28"/>
		<line class="st58" x1="469.1" y1="39.28" x2="469.1" y2="37.28"/>
		<line x1="494.73" y1="39.28" x2="494.73" y2="37.28"/>
		<line class="st58" x1="494.73" y1="39.28" x2="494.73" y2="37.28"/>
		<line x1="520.36" y1="39.28" x2="520.36" y2="37.28"/>
		<line class="st58" x1="520.36" y1="39.28" x2="520.36" y2="37.28"/>
		<text transform="matrix(1 0 0 1 435.6825 21.8076)" class="st44 st45">mtpa</text>
		<text transform="matrix(1 0 0 1 321.846 108.8423)" class="st44 st45">SE Asia</text>
		<text transform="matrix(1 0 0 1 312.8934 90.6728)" class="st44 st45">South Asia</text>
		<g class="st48">
			<g>
				<rect x="353.75" y="192.45" class="st54" width="0.03" height="10.9"/>
			</g>
			<g>
				<rect x="353.75" y="174.28" class="st54" width="3.13" height="10.9"/>
			</g>
			<g>
				<rect x="353.75" y="156.11" class="st54" width="12.53" height="10.9"/>
			</g>
			<g>
				<rect x="353.75" y="137.94" class="st54" width="20.79" height="10.9"/>
			</g>
			<g>
				<rect x="353.75" y="119.77" class="st54" width="13.68" height="10.9"/>
			</g>
			<g>
				<rect x="353.75" y="65.26" class="st54" width="46.4" height="10.9"/>
			</g>
			<g>
				<rect x="353.77" y="192.45" class="st55" width="0.44" height="10.9"/>
			</g>
			<g>
				<polygon class="st55" points="356.87,185.18 356.87,185.18 356.87,174.28 				"/>
			</g>
			<g>
				<polygon class="st55" points="366.28,167.01 366.28,167.01 366.28,156.11 				"/>
			</g>
			<g>
				<polygon class="st55" points="374.53,148.84 374.53,148.84 374.53,137.94 				"/>
			</g>
			<g>
				<rect x="367.42" y="119.77" class="st55" width="3.15" height="10.9"/>
			</g>
			<g>
				<rect x="400.15" y="65.26" class="st55" width="6.49" height="10.9"/>
			</g>
			<g>
				<rect x="354.21" y="192.45" class="st56" width="1.76" height="10.9"/>
			</g>
			<g>
				<rect x="366.28" y="156.11" class="st56" width="1.32" height="10.9"/>
			</g>
			<g>
				<rect x="374.53" y="137.94" class="st56" width="0.01" height="10.9"/>
			</g>
			<g>
				<rect x="370.57" y="119.77" class="st56" width="11.15" height="10.9"/>
			</g>
			<g>
				<rect x="406.63" y="65.26" class="st56" width="35.74" height="10.9"/>
			</g>
			<text transform="matrix(1 0 0 1 305.5711 195.9477)" class="st44 st45">Sub-Saharan</text>
			<text transform="matrix(1 0 0 1 328.7484 203.4282)" class="st44 st45">Africa</text>
			<text transform="matrix(1 0 0 1 323.0853 181.519)" class="st44 st45">Eurasia</text>
			<text transform="matrix(1 0 0 1 296.555 159.6098)" class="st44 st45">Middle East and</text>
			<text transform="matrix(1 0 0 1 309.4071 167.0893)" class="st44 st45">North Africa</text>
			<text transform="matrix(1 0 0 1 301.6302 145.1802)" class="st44 st45">North America</text>
			<text transform="matrix(1 0 0 1 290.2274 123.271)" class="st44 st45">Latin America and</text>
			<text transform="matrix(1 0 0 1 302.743 130.7514)" class="st44 st45">the Caribbean</text>
			<text transform="matrix(1 0 0 1 324.1771 72.5039)" class="st44 st45">Europe</text>
		</g>
		<text transform="matrix(1 0 0 1 317.1771 54.3349)" class="st44 st45">East Asia</text>
		<line class="st59" x1="353.75" y1="39.28" x2="533.18" y2="39.28"/>
		<rect x="476.63" y="112.09" class="st54" width="5.25" height="4.9"/>
		<text transform="matrix(1 0 0 1 487.4842 116.9907)" class="st44 st45">Operating</text>
		<rect x="476.63" y="122.16" class="st55" width="5.25" height="4.9"/>
		<text transform="matrix(1 0 0 1 487.4842 127.0571)" class="st44 st45">Construction</text>
		<rect x="476.63" y="132.13" class="st56" width="5.25" height="4.9"/>
		<text transform="matrix(1 0 0 1 487.4842 137.0317)" class="st44 st45">Proposed</text>
	</g>
	<g class="st48">
		<path class="st60" d="M203.06,118.93c5.09-2.7,8.04-5.72,10.9-21.1"/>
		<path class="st61" d="M202.48,122.93c7.59-1.12,13.18-2.57,17.87-6.77"/>
		<path class="st62" d="M201.91,126.71c7.37-0.43,12.51,2.11,15.94,8.8"/>
		<path class="st63" d="M194.62,149.43c3.27,2.49,5.82,7.02,7.3,11.33"/>
	</g>
</g>
<g id="Layer_3">
	<g class="st48">
		
			<pattern  id="SVGID_00000042718999654033706560000001696063092243259069_" xlink:href="#Unnamed_Pattern_9" patternTransform="matrix(1 0 0 -1 -55.7303 -782.8742)"  class="st48">
		</pattern>
		<path style="fill:url(#SVGID_00000042718999654033706560000001696063092243259069_);" d="M95.73,65.57
			c-2.04,1.55-3.99,3.22-5.83,5c-1.85,1.78-3.59,3.67-5.21,5.65l33.96,27.85c0.54-0.66,1.12-1.29,1.74-1.89
			c0.62-0.59,1.27-1.15,1.95-1.67L95.73,65.57z"/>
		<path class="st65" d="M84.68,76.22c-9.03,11.02-14.26,24.67-14.89,38.9c-0.63,14.23,3.37,28.29,11.39,40.06l36.29-24.74
			c-2.68-3.93-4.02-8.63-3.81-13.38c0.21-4.75,1.96-9.31,4.97-12.99L84.68,76.22z"/>
		
			<pattern  id="SVGID_00000090979412594544048390000004963081921675288732_" xlink:href="#Unnamed_Pattern_12" patternTransform="matrix(1 0 0 -1 -55.7303 -782.8742)"  class="st48">
		</pattern>
		<path style="fill:url(#SVGID_00000090979412594544048390000004963081921675288732_);" d="M186.6,159.93
			c0.79-0.96,1.55-1.94,2.29-2.95c0.73-1,1.44-2.03,2.12-3.07l-36.85-23.9c-0.23,0.35-0.46,0.69-0.71,1.03
			c-0.25,0.34-0.5,0.66-0.76,0.98L186.6,159.93z"/>
		<path class="st67" d="M191.01,153.91c2.4-3.7,4.42-7.63,6.03-11.73c1.61-4.1,2.81-8.36,3.58-12.7l-43.25-7.62
			c-0.26,1.45-0.66,2.87-1.2,4.24c-0.54,1.37-1.21,2.68-2.02,3.92L191.01,153.91z"/>
		
			<pattern  id="SVGID_00000145029018321186671360000017047036077521765041_" xlink:href="#Unnamed_Pattern_13" patternTransform="matrix(1 0 0 -1 -55.7303 -782.8742)"  class="st48">
		</pattern>
		<path style="fill:url(#SVGID_00000145029018321186671360000017047036077521765041_);" d="M200.62,129.48
			c0.03-0.17,0.06-0.34,0.09-0.51c0.03-0.17,0.06-0.34,0.08-0.51l-43.37-6.95c-0.01,0.06-0.02,0.11-0.03,0.17
			c-0.01,0.06-0.02,0.11-0.03,0.17L200.62,129.48z"/>
		<path class="st69" d="M200.79,128.46c0.11-0.69,0.21-1.38,0.3-2.07c0.09-0.69,0.17-1.38,0.23-2.08l-43.72-4.18
			c-0.02,0.23-0.05,0.46-0.08,0.69s-0.06,0.46-0.1,0.69L200.79,128.46z"/>
		
			<pattern  id="SVGID_00000078727627909557984300000004046826689114294912_" xlink:href="#Unnamed_Pattern_14" patternTransform="matrix(1 0 0 -1 -55.7303 -782.8742)"  class="st48">
		</pattern>
		<path style="fill:url(#SVGID_00000078727627909557984300000004046826689114294912_);" d="M201.32,124.31
			c0.02-0.19,0.04-0.38,0.05-0.58s0.03-0.38,0.05-0.58l-43.79-3.42c-0.01,0.06-0.01,0.13-0.02,0.19c-0.01,0.06-0.01,0.13-0.02,0.19
			L201.32,124.31z"/>
		<path class="st71" d="M201.42,123.16c0.03-0.33,0.05-0.67,0.07-1s0.04-0.67,0.06-1l-43.87-2.08c-0.01,0.11-0.01,0.22-0.02,0.33
			c-0.01,0.11-0.01,0.22-0.02,0.33L201.42,123.16z"/>
		
			<pattern  id="SVGID_00000049924098277315946510000014513778777436313492_" xlink:href="#Unnamed_Pattern_11" patternTransform="matrix(1 0 0 -1 -55.7303 -782.8742)"  class="st48">
		</pattern>
		<polygon style="fill:url(#SVGID_00000049924098277315946510000014513778777436313492_);" points="201.55,121.16 201.55,121.16 
			157.68,119.08 		"/>
		<path class="st73" d="M201.55,121.16c0.02-0.52,0.04-1.04,0.06-1.56c0.01-0.52,0.02-1.04,0.02-1.57H157.7c0,0.17,0,0.35-0.01,0.52
			c0,0.17-0.01,0.35-0.02,0.52L201.55,121.16z"/>
	</g>
	<g>
		<path class="st74" d="M201.77,118.03c0-12.29-3.43-24.33-9.91-34.77c-6.48-10.44-15.75-18.86-26.76-24.32s-23.33-7.73-35.56-6.55
			c-12.23,1.17-23.89,5.74-33.67,13.18l26.61,34.94c3.26-2.49,7.16-4.01,11.25-4.4c4.09-0.39,8.2,0.37,11.88,2.19
			c3.68,1.82,6.77,4.64,8.94,8.12c2.16,3.49,3.31,7.51,3.31,11.61H201.77z"/>
		<path class="st74" d="M95.87,65.57C82.43,75.8,73.43,90.81,70.73,107.47c-2.7,16.67,1.1,33.75,10.61,47.71l36.29-24.74
			c-3.18-4.66-4.45-10.37-3.54-15.93s3.91-10.58,8.4-14L95.87,65.57z"/>
		<path class="st74" d="M81.33,155.18c5.79,8.49,13.49,15.52,22.47,20.51c8.99,4.99,19.02,7.81,29.29,8.24l1.82-43.88
			c-3.43-0.14-6.78-1.08-9.78-2.75c-3-1.67-5.57-4.01-7.51-6.85L81.33,155.18z"/>
		<path class="st74" d="M133.09,183.92c10.19,0.42,20.34-1.52,29.65-5.69c9.31-4.16,17.53-10.43,24.01-18.3l-33.92-27.91
			c-2.16,2.63-4.91,4.72-8.02,6.11c-3.11,1.39-6.5,2.04-9.9,1.9L133.09,183.92z"/>
		<path class="st74" d="M186.74,159.93c3.59-4.37,6.61-9.18,8.98-14.32c2.37-5.14,4.06-10.56,5.04-16.13l-43.25-7.62
			c-0.33,1.86-0.89,3.67-1.68,5.39c-0.79,1.72-1.8,3.32-3,4.78L186.74,159.93z"/>
		<path class="st74" d="M200.76,129.48c0.15-0.86,0.28-1.72,0.4-2.58c0.12-0.86,0.22-1.73,0.3-2.59l-43.72-4.18
			c-0.03,0.29-0.06,0.58-0.1,0.87c-0.04,0.29-0.08,0.57-0.13,0.86L200.76,129.48z"/>
		<path class="st74" d="M201.47,124.31c0.05-0.52,0.09-1.05,0.13-1.57c0.04-0.53,0.07-1.05,0.09-1.58l-43.87-2.08
			c-0.01,0.18-0.02,0.35-0.03,0.53c-0.01,0.18-0.03,0.35-0.04,0.53L201.47,124.31z"/>
		<path class="st74" d="M201.69,121.16c0.02-0.52,0.04-1.04,0.06-1.56c0.01-0.52,0.02-1.04,0.02-1.57l-43.92,0
			c0,0.17,0,0.35-0.01,0.52s-0.01,0.35-0.02,0.52L201.69,121.16z"/>
	</g>
</g>
</svg>
