<?xml version="1.0" encoding="utf-8" standalone="no"?>
<!DOCTYPE svg PUBLIC "-//W3C//DTD SVG 1.1//EN"
  "http://www.w3.org/Graphics/SVG/1.1/DTD/svg11.dtd">
<svg xmlns:xlink="http://www.w3.org/1999/xlink" width="262.676562pt" height="204.680938pt" viewBox="0 0 262.676562 204.680938" xmlns="http://www.w3.org/2000/svg" version="1.1">
 <metadata>
  <rdf:RDF xmlns:dc="http://purl.org/dc/elements/1.1/" xmlns:cc="http://creativecommons.org/ns#" xmlns:rdf="http://www.w3.org/1999/02/22-rdf-syntax-ns#">
   <cc:Work>
    <dc:type rdf:resource="http://purl.org/dc/dcmitype/StillImage"/>
    <dc:date>2022-11-18T11:54:28.838492</dc:date>
    <dc:format>image/svg+xml</dc:format>
    <dc:creator>
     <cc:Agent>
      <dc:title>Matplotlib v3.6.2, https://matplotlib.org/</dc:title>
     </cc:Agent>
    </dc:creator>
   </cc:Work>
  </rdf:RDF>
 </metadata>
 <defs>
  <style type="text/css">*{stroke-linejoin: round; stroke-linecap: butt}</style>
 </defs>
 <g id="figure_1">
  <g id="patch_1">
   <path d="M 0 204.680938 
L 262.676562 204.680938 
L 262.676562 0 
L 0 0 
L 0 204.680938 
z
" style="fill: none"/>
  </g>
  <g id="axes_1">
   <g id="patch_2">
    <path d="M 70.233906 173.52 
L 251.583906 173.52 
L 251.583906 7.2 
L 70.233906 7.2 
L 70.233906 173.52 
z
" style="fill: none"/>
   </g>
   <g id="patch_3">
    <path d="M 70.233906 165.96 
L 70.233906 165.96 
L 70.233906 159.912 
L 70.233906 159.912 
z
" clip-path="url(#p5dbceebc79)" style="fill: #7f2704"/>
   </g>
   <g id="patch_4">
    <path d="M 70.233906 153.864 
L 70.233906 153.864 
L 70.233906 147.816 
L 70.233906 147.816 
z
" clip-path="url(#p5dbceebc79)" style="fill: #7f2704"/>
   </g>
   <g id="patch_5">
    <path d="M 70.233906 141.768 
L 70.233906 141.768 
L 70.233906 135.72 
L 70.233906 135.72 
z
" clip-path="url(#p5dbceebc79)" style="fill: #7f2704"/>
   </g>
   <g id="patch_6">
    <path d="M 70.233906 129.672 
L 70.233906 129.672 
L 70.233906 123.624 
L 70.233906 123.624 
z
" clip-path="url(#p5dbceebc79)" style="fill: #7f2704"/>
   </g>
   <g id="patch_7">
    <path d="M 70.233906 117.576 
L 70.233906 117.576 
L 70.233906 111.528 
L 70.233906 111.528 
z
" clip-path="url(#p5dbceebc79)" style="fill: #7f2704"/>
   </g>
   <g id="patch_8">
    <path d="M 70.233906 105.48 
L 70.233906 105.48 
L 70.233906 99.432 
L 70.233906 99.432 
z
" clip-path="url(#p5dbceebc79)" style="fill: #7f2704"/>
   </g>
   <g id="patch_9">
    <path d="M 70.233906 93.384 
L 70.233906 93.384 
L 70.233906 87.336 
L 70.233906 87.336 
z
" clip-path="url(#p5dbceebc79)" style="fill: #7f2704"/>
   </g>
   <g id="patch_10">
    <path d="M 70.233906 81.288 
L 70.510528 81.288 
L 70.510528 75.24 
L 70.233906 75.24 
z
" clip-path="url(#p5dbceebc79)" style="fill: #7f2704"/>
   </g>
   <g id="patch_11">
    <path d="M 70.233906 69.192 
L 70.233906 69.192 
L 70.233906 63.144 
L 70.233906 63.144 
z
" clip-path="url(#p5dbceebc79)" style="fill: #7f2704"/>
   </g>
   <g id="patch_12">
    <path d="M 70.233906 57.096 
L 78.642743 57.096 
L 78.642743 51.048 
L 70.233906 51.048 
z
" clip-path="url(#p5dbceebc79)" style="fill: #7f2704"/>
   </g>
   <g id="patch_13">
    <path d="M 70.233906 45 
L 119.866538 45 
L 119.866538 38.952 
L 70.233906 38.952 
z
" clip-path="url(#p5dbceebc79)" style="fill: #7f2704"/>
   </g>
   <g id="patch_14">
    <path d="M 70.233906 32.904 
L 70.233906 32.904 
L 70.233906 26.856 
L 70.233906 26.856 
z
" clip-path="url(#p5dbceebc79)" style="fill: #7f2704"/>
   </g>
   <g id="patch_15">
    <path d="M 70.233906 20.808 
L 70.233906 20.808 
L 70.233906 14.76 
L 70.233906 14.76 
z
" clip-path="url(#p5dbceebc79)" style="fill: #7f2704"/>
   </g>
   <g id="patch_16">
    <path d="M 70.233906 165.96 
L 70.233906 165.96 
L 70.233906 159.912 
L 70.233906 159.912 
z
" clip-path="url(#p5dbceebc79)" style="fill: #d84801; opacity: 0.5"/>
   </g>
   <g id="patch_17">
    <path d="M 70.233906 153.864 
L 70.233906 153.864 
L 70.233906 147.816 
L 70.233906 147.816 
z
" clip-path="url(#p5dbceebc79)" style="fill: #d84801; opacity: 0.5"/>
   </g>
   <g id="patch_18">
    <path d="M 70.233906 141.768 
L 70.233906 141.768 
L 70.233906 135.72 
L 70.233906 135.72 
z
" clip-path="url(#p5dbceebc79)" style="fill: #d84801; opacity: 0.5"/>
   </g>
   <g id="patch_19">
    <path d="M 70.233906 129.672 
L 73.860906 129.672 
L 73.860906 123.624 
L 70.233906 123.624 
z
" clip-path="url(#p5dbceebc79)" style="fill: #d84801; opacity: 0.5"/>
   </g>
   <g id="patch_20">
    <path d="M 70.233906 117.576 
L 82.583251 117.576 
L 82.583251 111.528 
L 70.233906 111.528 
z
" clip-path="url(#p5dbceebc79)" style="fill: #d84801; opacity: 0.5"/>
   </g>
   <g id="patch_21">
    <path d="M 70.233906 105.48 
L 70.233906 105.48 
L 70.233906 99.432 
L 70.233906 99.432 
z
" clip-path="url(#p5dbceebc79)" style="fill: #d84801; opacity: 0.5"/>
   </g>
   <g id="patch_22">
    <path d="M 70.233906 93.384 
L 101.01857 93.384 
L 101.01857 87.336 
L 70.233906 87.336 
z
" clip-path="url(#p5dbceebc79)" style="fill: #d84801; opacity: 0.5"/>
   </g>
   <g id="patch_23">
    <path d="M 70.510528 81.288 
L 70.510528 81.288 
L 70.510528 75.24 
L 70.510528 75.24 
z
" clip-path="url(#p5dbceebc79)" style="fill: #d84801; opacity: 0.5"/>
   </g>
   <g id="patch_24">
    <path d="M 70.233906 69.192 
L 115.469505 69.192 
L 115.469505 63.144 
L 70.233906 63.144 
z
" clip-path="url(#p5dbceebc79)" style="fill: #d84801; opacity: 0.5"/>
   </g>
   <g id="patch_25">
    <path d="M 78.642743 57.096 
L 148.904642 57.096 
L 148.904642 51.048 
L 78.642743 51.048 
z
" clip-path="url(#p5dbceebc79)" style="fill: #d84801; opacity: 0.5"/>
   </g>
   <g id="patch_26">
    <path d="M 119.866538 45 
L 197.428922 45 
L 197.428922 38.952 
L 119.866538 38.952 
z
" clip-path="url(#p5dbceebc79)" style="fill: #d84801; opacity: 0.5"/>
   </g>
   <g id="patch_27">
    <path d="M 70.233906 32.904 
L 244.329906 32.904 
L 244.329906 26.856 
L 70.233906 26.856 
z
" clip-path="url(#p5dbceebc79)" style="fill: #d84801; opacity: 0.5"/>
   </g>
   <g id="patch_28">
    <path d="M 70.233906 20.808 
L 287.853906 20.808 
L 287.853906 14.76 
L 70.233906 14.76 
z
" clip-path="url(#p5dbceebc79)" style="fill: #d84801; opacity: 0.5"/>
   </g>
   <g id="patch_29">
    <path d="M 70.233906 165.96 
L 70.233906 165.96 
L 70.233906 159.912 
L 70.233906 159.912 
z
" clip-path="url(#p5dbceebc79)" style="fill: #3f007d"/>
   </g>
   <g id="patch_30">
    <path d="M 70.233906 153.864 
L 70.233906 153.864 
L 70.233906 147.816 
L 70.233906 147.816 
z
" clip-path="url(#p5dbceebc79)" style="fill: #3f007d"/>
   </g>
   <g id="patch_31">
    <path d="M 70.233906 141.768 
L 72.772806 141.768 
L 72.772806 135.72 
L 70.233906 135.72 
z
" clip-path="url(#p5dbceebc79)" style="fill: #3f007d"/>
   </g>
   <g id="patch_32">
    <path d="M 73.860906 129.672 
L 73.860906 129.672 
L 73.860906 123.624 
L 73.860906 123.624 
z
" clip-path="url(#p5dbceebc79)" style="fill: #3f007d"/>
   </g>
   <g id="patch_33">
    <path d="M 82.583251 117.576 
L 82.583251 117.576 
L 82.583251 111.528 
L 82.583251 111.528 
z
" clip-path="url(#p5dbceebc79)" style="fill: #3f007d"/>
   </g>
   <g id="patch_34">
    <path d="M 70.233906 105.48 
L 70.233906 105.48 
L 70.233906 99.432 
L 70.233906 99.432 
z
" clip-path="url(#p5dbceebc79)" style="fill: #3f007d"/>
   </g>
   <g id="patch_35">
    <path d="M 101.01857 93.384 
L 101.01857 93.384 
L 101.01857 87.336 
L 101.01857 87.336 
z
" clip-path="url(#p5dbceebc79)" style="fill: #3f007d"/>
   </g>
   <g id="patch_36">
    <path d="M 70.510528 81.288 
L 70.510528 81.288 
L 70.510528 75.24 
L 70.510528 75.24 
z
" clip-path="url(#p5dbceebc79)" style="fill: #3f007d"/>
   </g>
   <g id="patch_37">
    <path d="M 115.469505 69.192 
L 115.469505 69.192 
L 115.469505 63.144 
L 115.469505 63.144 
z
" clip-path="url(#p5dbceebc79)" style="fill: #3f007d"/>
   </g>
   <g id="patch_38">
    <path d="M 148.904642 57.096 
L 148.904642 57.096 
L 148.904642 51.048 
L 148.904642 51.048 
z
" clip-path="url(#p5dbceebc79)" style="fill: #3f007d"/>
   </g>
   <g id="patch_39">
    <path d="M 197.428922 45 
L 197.428922 45 
L 197.428922 38.952 
L 197.428922 38.952 
z
" clip-path="url(#p5dbceebc79)" style="fill: #3f007d"/>
   </g>
   <g id="patch_40">
    <path d="M 244.329906 32.904 
L 244.329906 32.904 
L 244.329906 26.856 
L 244.329906 26.856 
z
" clip-path="url(#p5dbceebc79)" style="fill: #3f007d"/>
   </g>
   <g id="patch_41">
    <path d="M 287.853906 20.808 
L 287.853906 20.808 
L 287.853906 14.76 
L 287.853906 14.76 
z
" clip-path="url(#p5dbceebc79)" style="fill: #3f007d"/>
   </g>
   <g id="patch_42">
    <path d="M 70.233906 165.96 
L 70.605207 165.96 
L 70.605207 159.912 
L 70.233906 159.912 
z
" clip-path="url(#p5dbceebc79)" style="fill: #796eb2; opacity: 0.5"/>
   </g>
   <g id="patch_43">
    <path d="M 70.233906 153.864 
L 72.410106 153.864 
L 72.410106 147.816 
L 70.233906 147.816 
z
" clip-path="url(#p5dbceebc79)" style="fill: #796eb2; opacity: 0.5"/>
   </g>
   <g id="patch_44">
    <path d="M 72.772806 141.768 
L 72.772806 141.768 
L 72.772806 135.72 
L 72.772806 135.72 
z
" clip-path="url(#p5dbceebc79)" style="fill: #796eb2; opacity: 0.5"/>
   </g>
   <g id="patch_45">
    <path d="M 73.860906 129.672 
L 73.860906 129.672 
L 73.860906 123.624 
L 73.860906 123.624 
z
" clip-path="url(#p5dbceebc79)" style="fill: #796eb2; opacity: 0.5"/>
   </g>
   <g id="patch_46">
    <path d="M 82.583251 117.576 
L 82.583251 117.576 
L 82.583251 111.528 
L 82.583251 111.528 
z
" clip-path="url(#p5dbceebc79)" style="fill: #796eb2; opacity: 0.5"/>
   </g>
   <g id="patch_47">
    <path d="M 70.233906 105.48 
L 86.696123 105.48 
L 86.696123 99.432 
L 70.233906 99.432 
z
" clip-path="url(#p5dbceebc79)" style="fill: #796eb2; opacity: 0.5"/>
   </g>
   <g id="patch_48">
    <path d="M 101.01857 93.384 
L 101.01857 93.384 
L 101.01857 87.336 
L 101.01857 87.336 
z
" clip-path="url(#p5dbceebc79)" style="fill: #796eb2; opacity: 0.5"/>
   </g>
   <g id="patch_49">
    <path d="M 70.510528 81.288 
L 103.153528 81.288 
L 103.153528 75.24 
L 70.510528 75.24 
z
" clip-path="url(#p5dbceebc79)" style="fill: #796eb2; opacity: 0.5"/>
   </g>
   <g id="patch_50">
    <path d="M 115.469505 69.192 
L 115.469505 69.192 
L 115.469505 63.144 
L 115.469505 63.144 
z
" clip-path="url(#p5dbceebc79)" style="fill: #796eb2; opacity: 0.5"/>
   </g>
   <g id="patch_51">
    <path d="M 148.904642 57.096 
L 148.904642 57.096 
L 148.904642 51.048 
L 148.904642 51.048 
z
" clip-path="url(#p5dbceebc79)" style="fill: #796eb2; opacity: 0.5"/>
   </g>
   <g id="patch_52">
    <path d="M 197.428922 45 
L 197.428922 45 
L 197.428922 38.952 
L 197.428922 38.952 
z
" clip-path="url(#p5dbceebc79)" style="fill: #796eb2; opacity: 0.5"/>
   </g>
   <g id="patch_53">
    <path d="M 244.329906 32.904 
L 248.319606 32.904 
L 248.319606 26.856 
L 244.329906 26.856 
z
" clip-path="url(#p5dbceebc79)" style="fill: #796eb2; opacity: 0.5"/>
   </g>
   <g id="patch_54">
    <path d="M 287.853906 20.808 
L 287.853906 20.808 
L 287.853906 14.76 
L 287.853906 14.76 
z
" clip-path="url(#p5dbceebc79)" style="fill: #796eb2; opacity: 0.5"/>
   </g>
   <g id="matplotlib.axis_1">
    <g id="xtick_1">
     <g id="line2d_1">
      <defs>
       <path id="m87418acd7f" d="M 0 0 
L 0 3.5 
" style="stroke: #000000; stroke-width: 0.8"/>
      </defs>
      <g>
       <use xlink:href="#m87418acd7f" x="70.233906" y="173.52" style="stroke: #000000; stroke-width: 0.8"/>
      </g>
     </g>
     <g id="text_1">
      <!-- 0 -->
      <g transform="translate(68.287578 185.541406) scale(0.07 -0.07)">
       <defs>
        <path id="Helvetica-30" d="M 1731 4475 
Q 2600 4475 2988 3759 
Q 3288 3206 3288 2244 
Q 3288 1331 3016 734 
Q 2622 -122 1728 -122 
Q 922 -122 528 578 
Q 200 1163 200 2147 
Q 200 2909 397 3456 
Q 766 4475 1731 4475 
z
M 1725 391 
Q 2163 391 2422 778 
Q 2681 1166 2681 2222 
Q 2681 2984 2493 3476 
Q 2306 3969 1766 3969 
Q 1269 3969 1039 3501 
Q 809 3034 809 2125 
Q 809 1441 956 1025 
Q 1181 391 1725 391 
z
" transform="scale(0.015625)"/>
       </defs>
       <use xlink:href="#Helvetica-30"/>
      </g>
     </g>
    </g>
    <g id="xtick_2">
     <g id="line2d_2">
      <g>
       <use xlink:href="#m87418acd7f" x="106.503906" y="173.52" style="stroke: #000000; stroke-width: 0.8"/>
      </g>
     </g>
     <g id="text_2">
      <!-- 5 -->
      <g transform="translate(104.557578 185.541406) scale(0.07 -0.07)">
       <defs>
        <path id="Helvetica-35" d="M 791 1141 
Q 847 659 1238 475 
Q 1438 381 1700 381 
Q 2200 381 2440 700 
Q 2681 1019 2681 1406 
Q 2681 1875 2395 2131 
Q 2109 2388 1709 2388 
Q 1419 2388 1211 2275 
Q 1003 2163 856 1963 
L 369 1991 
L 709 4400 
L 3034 4400 
L 3034 3856 
L 1131 3856 
L 941 2613 
Q 1097 2731 1238 2791 
Q 1488 2894 1816 2894 
Q 2431 2894 2859 2497 
Q 3288 2100 3288 1491 
Q 3288 856 2895 371 
Q 2503 -113 1644 -113 
Q 1097 -113 676 195 
Q 256 503 206 1141 
L 791 1141 
z
" transform="scale(0.015625)"/>
       </defs>
       <use xlink:href="#Helvetica-35"/>
      </g>
     </g>
    </g>
    <g id="xtick_3">
     <g id="line2d_3">
      <g>
       <use xlink:href="#m87418acd7f" x="142.773906" y="173.52" style="stroke: #000000; stroke-width: 0.8"/>
      </g>
     </g>
     <g id="text_3">
      <!-- 10 -->
      <g transform="translate(138.88125 185.541406) scale(0.07 -0.07)">
       <defs>
        <path id="Helvetica-31" d="M 613 3169 
L 613 3600 
Q 1222 3659 1462 3798 
Q 1703 3938 1822 4456 
L 2266 4456 
L 2266 0 
L 1666 0 
L 1666 3169 
L 613 3169 
z
" transform="scale(0.015625)"/>
       </defs>
       <use xlink:href="#Helvetica-31"/>
       <use xlink:href="#Helvetica-30" x="55.615234"/>
      </g>
     </g>
    </g>
    <g id="xtick_4">
     <g id="line2d_4">
      <g>
       <use xlink:href="#m87418acd7f" x="179.043906" y="173.52" style="stroke: #000000; stroke-width: 0.8"/>
      </g>
     </g>
     <g id="text_4">
      <!-- 15 -->
      <g transform="translate(175.15125 185.541406) scale(0.07 -0.07)">
       <use xlink:href="#Helvetica-31"/>
       <use xlink:href="#Helvetica-35" x="55.615234"/>
      </g>
     </g>
    </g>
    <g id="xtick_5">
     <g id="line2d_5">
      <g>
       <use xlink:href="#m87418acd7f" x="215.313906" y="173.52" style="stroke: #000000; stroke-width: 0.8"/>
      </g>
     </g>
     <g id="text_5">
      <!-- 20 -->
      <g transform="translate(211.42125 185.541406) scale(0.07 -0.07)">
       <defs>
        <path id="Helvetica-32" d="M 200 0 
Q 231 578 439 1006 
Q 647 1434 1250 1784 
L 1850 2131 
Q 2253 2366 2416 2531 
Q 2672 2791 2672 3125 
Q 2672 3516 2437 3745 
Q 2203 3975 1813 3975 
Q 1234 3975 1013 3538 
Q 894 3303 881 2888 
L 309 2888 
Q 319 3472 525 3841 
Q 891 4491 1816 4491 
Q 2584 4491 2939 4075 
Q 3294 3659 3294 3150 
Q 3294 2613 2916 2231 
Q 2697 2009 2131 1694 
L 1703 1456 
Q 1397 1288 1222 1134 
Q 909 863 828 531 
L 3272 531 
L 3272 0 
L 200 0 
z
" transform="scale(0.015625)"/>
       </defs>
       <use xlink:href="#Helvetica-32"/>
       <use xlink:href="#Helvetica-30" x="55.615234"/>
      </g>
     </g>
    </g>
    <g id="xtick_6">
     <g id="line2d_6">
      <g>
       <use xlink:href="#m87418acd7f" x="251.583906" y="173.52" style="stroke: #000000; stroke-width: 0.8"/>
      </g>
     </g>
     <g id="text_6">
      <!-- 25 -->
      <g transform="translate(247.69125 185.541406) scale(0.07 -0.07)">
       <use xlink:href="#Helvetica-32"/>
       <use xlink:href="#Helvetica-35" x="55.615234"/>
      </g>
     </g>
    </g>
    <g id="text_7">
     <!-- US$ billion -->
     <g transform="translate(144.178359 196.021875) scale(0.07 -0.07)">
      <defs>
       <path id="Helvetica-55" d="M 1163 4591 
L 1163 1753 
Q 1163 1253 1350 922 
Q 1628 422 2288 422 
Q 3078 422 3363 963 
Q 3516 1256 3516 1753 
L 3516 4591 
L 4147 4591 
L 4147 2013 
Q 4147 1166 3919 709 
Q 3500 -122 2338 -122 
Q 1175 -122 759 709 
Q 531 1166 531 2013 
L 531 4591 
L 1163 4591 
z
M 2341 4591 
L 2341 4591 
z
" transform="scale(0.015625)"/>
       <path id="Helvetica-53" d="M 894 1481 
Q 916 1091 1078 847 
Q 1388 391 2169 391 
Q 2519 391 2806 491 
Q 3363 684 3363 1184 
Q 3363 1559 3128 1719 
Q 2891 1875 2384 1991 
L 1763 2131 
Q 1153 2269 900 2434 
Q 463 2722 463 3294 
Q 463 3913 891 4309 
Q 1319 4706 2103 4706 
Q 2825 4706 3329 4357 
Q 3834 4009 3834 3244 
L 3250 3244 
Q 3203 3613 3050 3809 
Q 2766 4169 2084 4169 
Q 1534 4169 1293 3937 
Q 1053 3706 1053 3400 
Q 1053 3063 1334 2906 
Q 1519 2806 2169 2656 
L 2813 2509 
Q 3278 2403 3531 2219 
Q 3969 1897 3969 1284 
Q 3969 522 3414 194 
Q 2859 -134 2125 -134 
Q 1269 -134 784 303 
Q 300 738 309 1481 
L 894 1481 
z
M 2150 4716 
L 2150 4716 
z
" transform="scale(0.015625)"/>
       <path id="Helvetica-24" d="M 1909 325 
Q 2444 350 2647 716 
Q 2753 903 2753 1150 
Q 2753 1541 2466 1744 
Q 2300 1863 1909 1969 
L 1909 325 
z
M 850 3341 
Q 850 3031 1054 2856 
Q 1259 2681 1606 2613 
L 1606 4081 
Q 1197 4066 1023 3831 
Q 850 3597 850 3341 
z
M 288 3303 
Q 288 3778 636 4159 
Q 984 4541 1613 4547 
L 1613 4963 
L 1909 4963 
L 1909 4553 
Q 2531 4509 2864 4186 
Q 3197 3863 3213 3331 
L 2666 3331 
Q 2644 3569 2538 3741 
Q 2341 4056 1909 4072 
L 1909 2553 
Q 2634 2350 2894 2172 
Q 3316 1878 3316 1303 
Q 3316 472 2775 122 
Q 2475 -72 1909 -134 
L 1909 -741 
L 1613 -741 
L 1613 -134 
Q 703 -75 378 509 
Q 200 825 200 1363 
L 753 1363 
Q 778 934 888 738 
Q 1081 384 1606 341 
L 1606 2044 
Q 931 2172 609 2472 
Q 288 2772 288 3303 
z
" transform="scale(0.015625)"/>
       <path id="Helvetica-20" transform="scale(0.015625)"/>
       <path id="Helvetica-62" d="M 369 4606 
L 916 4606 
L 916 2941 
Q 1100 3181 1356 3307 
Q 1613 3434 1913 3434 
Q 2538 3434 2927 3004 
Q 3316 2575 3316 1738 
Q 3316 944 2931 419 
Q 2547 -106 1866 -106 
Q 1484 -106 1222 78 
Q 1066 188 888 428 
L 888 0 
L 369 0 
L 369 4606 
z
M 1831 391 
Q 2288 391 2514 753 
Q 2741 1116 2741 1709 
Q 2741 2238 2514 2584 
Q 2288 2931 1847 2931 
Q 1463 2931 1173 2647 
Q 884 2363 884 1709 
Q 884 1238 1003 944 
Q 1225 391 1831 391 
z
" transform="scale(0.015625)"/>
       <path id="Helvetica-69" d="M 413 3331 
L 984 3331 
L 984 0 
L 413 0 
L 413 3331 
z
M 413 4591 
L 984 4591 
L 984 3953 
L 413 3953 
L 413 4591 
z
" transform="scale(0.015625)"/>
       <path id="Helvetica-6c" d="M 428 4591 
L 991 4591 
L 991 0 
L 428 0 
L 428 4591 
z
" transform="scale(0.015625)"/>
       <path id="Helvetica-6f" d="M 1741 363 
Q 2300 363 2508 786 
Q 2716 1209 2716 1728 
Q 2716 2197 2566 2491 
Q 2328 2953 1747 2953 
Q 1231 2953 997 2559 
Q 763 2166 763 1609 
Q 763 1075 997 719 
Q 1231 363 1741 363 
z
M 1763 3444 
Q 2409 3444 2856 3012 
Q 3303 2581 3303 1744 
Q 3303 934 2909 406 
Q 2516 -122 1688 -122 
Q 997 -122 590 345 
Q 184 813 184 1600 
Q 184 2444 612 2944 
Q 1041 3444 1763 3444 
z
M 1744 3428 
L 1744 3428 
z
" transform="scale(0.015625)"/>
       <path id="Helvetica-6e" d="M 413 3347 
L 947 3347 
L 947 2872 
Q 1184 3166 1450 3294 
Q 1716 3422 2041 3422 
Q 2753 3422 3003 2925 
Q 3141 2653 3141 2147 
L 3141 0 
L 2569 0 
L 2569 2109 
Q 2569 2416 2478 2603 
Q 2328 2916 1934 2916 
Q 1734 2916 1606 2875 
Q 1375 2806 1200 2600 
Q 1059 2434 1017 2257 
Q 975 2081 975 1753 
L 975 0 
L 413 0 
L 413 3347 
z
M 1734 3428 
L 1734 3428 
z
" transform="scale(0.015625)"/>
      </defs>
      <use xlink:href="#Helvetica-55"/>
      <use xlink:href="#Helvetica-53" x="72.216797"/>
      <use xlink:href="#Helvetica-24" x="138.916016"/>
      <use xlink:href="#Helvetica-20" x="194.53125"/>
      <use xlink:href="#Helvetica-62" x="222.314453"/>
      <use xlink:href="#Helvetica-69" x="277.929688"/>
      <use xlink:href="#Helvetica-6c" x="300.146484"/>
      <use xlink:href="#Helvetica-6c" x="322.363281"/>
      <use xlink:href="#Helvetica-69" x="344.580078"/>
      <use xlink:href="#Helvetica-6f" x="366.796875"/>
      <use xlink:href="#Helvetica-6e" x="422.412109"/>
     </g>
    </g>
   </g>
   <g id="matplotlib.axis_2">
    <g id="ytick_1">
     <g id="text_8">
      <!-- Côte d'Ivoire -->
      <g transform="translate(24.158594 164.717172) scale(0.07 -0.07)">
       <defs>
        <path id="Helvetica-43" d="M 2422 4716 
Q 3294 4716 3775 4256 
Q 4256 3797 4309 3213 
L 3703 3213 
Q 3600 3656 3292 3915 
Q 2984 4175 2428 4175 
Q 1750 4175 1333 3698 
Q 916 3222 916 2238 
Q 916 1431 1292 929 
Q 1669 428 2416 428 
Q 3103 428 3463 956 
Q 3653 1234 3747 1688 
L 4353 1688 
Q 4272 963 3816 472 
Q 3269 -119 2341 -119 
Q 1541 -119 997 366 
Q 281 1006 281 2344 
Q 281 3359 819 4009 
Q 1400 4716 2422 4716 
z
M 2297 4716 
L 2297 4716 
z
" transform="scale(0.015625)"/>
        <path id="Helvetica-f4" d="M 1741 363 
Q 2300 363 2508 786 
Q 2716 1209 2716 1728 
Q 2716 2197 2566 2491 
Q 2328 2953 1747 2953 
Q 1231 2953 997 2559 
Q 763 2166 763 1609 
Q 763 1075 997 719 
Q 1231 363 1741 363 
z
M 1763 3444 
Q 2409 3444 2856 3012 
Q 3303 2581 3303 1744 
Q 3303 934 2909 406 
Q 2516 -122 1688 -122 
Q 997 -122 590 345 
Q 184 813 184 1600 
Q 184 2444 612 2944 
Q 1041 3444 1763 3444 
z
M 1744 3428 
L 1744 3428 
z
M 2088 4694 
L 2725 3791 
L 2213 3791 
L 1791 4391 
L 1369 3791 
L 859 3791 
L 1494 4694 
L 2088 4694 
z
" transform="scale(0.015625)"/>
        <path id="Helvetica-74" d="M 525 4281 
L 1094 4281 
L 1094 3347 
L 1628 3347 
L 1628 2888 
L 1094 2888 
L 1094 703 
Q 1094 528 1213 469 
Q 1278 434 1431 434 
Q 1472 434 1519 436 
Q 1566 438 1628 444 
L 1628 0 
Q 1531 -28 1426 -40 
Q 1322 -53 1200 -53 
Q 806 -53 665 148 
Q 525 350 525 672 
L 525 2888 
L 72 2888 
L 72 3347 
L 525 3347 
L 525 4281 
z
" transform="scale(0.015625)"/>
        <path id="Helvetica-65" d="M 1806 3422 
Q 2163 3422 2497 3255 
Q 2831 3088 3006 2822 
Q 3175 2569 3231 2231 
Q 3281 2000 3281 1494 
L 828 1494 
Q 844 984 1069 676 
Q 1294 369 1766 369 
Q 2206 369 2469 659 
Q 2619 828 2681 1050 
L 3234 1050 
Q 3213 866 3089 639 
Q 2966 413 2813 269 
Q 2556 19 2178 -69 
Q 1975 -119 1719 -119 
Q 1094 -119 659 336 
Q 225 791 225 1609 
Q 225 2416 662 2919 
Q 1100 3422 1806 3422 
z
M 2703 1941 
Q 2669 2306 2544 2525 
Q 2313 2931 1772 2931 
Q 1384 2931 1121 2651 
Q 859 2372 844 1941 
L 2703 1941 
z
M 1753 3428 
L 1753 3428 
z
" transform="scale(0.015625)"/>
        <path id="Helvetica-64" d="M 769 1634 
Q 769 1097 997 734 
Q 1225 372 1728 372 
Q 2119 372 2370 708 
Q 2622 1044 2622 1672 
Q 2622 2306 2362 2611 
Q 2103 2916 1722 2916 
Q 1297 2916 1033 2591 
Q 769 2266 769 1634 
z
M 1616 3406 
Q 2000 3406 2259 3244 
Q 2409 3150 2600 2916 
L 2600 4606 
L 3141 4606 
L 3141 0 
L 2634 0 
L 2634 466 
Q 2438 156 2169 18 
Q 1900 -119 1553 -119 
Q 994 -119 584 351 
Q 175 822 175 1603 
Q 175 2334 548 2870 
Q 922 3406 1616 3406 
z
" transform="scale(0.015625)"/>
        <path id="Helvetica-27" d="M 1056 4591 
L 953 2753 
L 591 2753 
L 488 4591 
L 1056 4591 
z
" transform="scale(0.015625)"/>
        <path id="Helvetica-49" d="M 628 4591 
L 1256 4591 
L 1256 0 
L 628 0 
L 628 4591 
z
" transform="scale(0.015625)"/>
        <path id="Helvetica-76" d="M 688 3347 
L 1581 622 
L 2516 3347 
L 3131 3347 
L 1869 0 
L 1269 0 
L 34 3347 
L 688 3347 
z
" transform="scale(0.015625)"/>
        <path id="Helvetica-72" d="M 428 3347 
L 963 3347 
L 963 2769 
Q 1028 2938 1284 3180 
Q 1541 3422 1875 3422 
Q 1891 3422 1928 3419 
Q 1966 3416 2056 3406 
L 2056 2813 
Q 2006 2822 1964 2825 
Q 1922 2828 1872 2828 
Q 1447 2828 1219 2554 
Q 991 2281 991 1925 
L 991 0 
L 428 0 
L 428 3347 
z
" transform="scale(0.015625)"/>
       </defs>
       <use xlink:href="#Helvetica-43"/>
       <use xlink:href="#Helvetica-f4" x="72.216797"/>
       <use xlink:href="#Helvetica-74" x="127.832031"/>
       <use xlink:href="#Helvetica-65" x="155.615234"/>
       <use xlink:href="#Helvetica-20" x="211.230469"/>
       <use xlink:href="#Helvetica-64" x="239.013672"/>
       <use xlink:href="#Helvetica-27" x="294.628906"/>
       <use xlink:href="#Helvetica-49" x="313.720703"/>
       <use xlink:href="#Helvetica-76" x="341.503906"/>
       <use xlink:href="#Helvetica-6f" x="391.503906"/>
       <use xlink:href="#Helvetica-69" x="447.119141"/>
       <use xlink:href="#Helvetica-72" x="469.335938"/>
       <use xlink:href="#Helvetica-65" x="502.636719"/>
      </g>
     </g>
    </g>
    <g id="ytick_2">
     <g id="text_9">
      <!-- Guinea -->
      <g transform="translate(40.663281 152.621172) scale(0.07 -0.07)">
       <defs>
        <path id="Helvetica-47" d="M 2472 4709 
Q 3119 4709 3591 4459 
Q 4275 4100 4428 3200 
L 3813 3200 
Q 3700 3703 3347 3933 
Q 2994 4163 2456 4163 
Q 1819 4163 1383 3684 
Q 947 3206 947 2259 
Q 947 1441 1306 927 
Q 1666 413 2478 413 
Q 3100 413 3508 773 
Q 3916 1134 3925 1941 
L 2488 1941 
L 2488 2456 
L 4503 2456 
L 4503 0 
L 4103 0 
L 3953 591 
Q 3638 244 3394 109 
Q 2984 -122 2353 -122 
Q 1538 -122 950 406 
Q 309 1069 309 2225 
Q 309 3378 934 4059 
Q 1528 4709 2472 4709 
z
M 2369 4716 
L 2369 4716 
z
" transform="scale(0.015625)"/>
        <path id="Helvetica-75" d="M 975 3347 
L 975 1125 
Q 975 869 1056 706 
Q 1206 406 1616 406 
Q 2203 406 2416 931 
Q 2531 1213 2531 1703 
L 2531 3347 
L 3094 3347 
L 3094 0 
L 2563 0 
L 2569 494 
Q 2459 303 2297 172 
Q 1975 -91 1516 -91 
Q 800 -91 541 388 
Q 400 644 400 1072 
L 400 3347 
L 975 3347 
z
M 1747 3428 
L 1747 3428 
z
" transform="scale(0.015625)"/>
        <path id="Helvetica-61" d="M 844 891 
Q 844 647 1022 506 
Q 1200 366 1444 366 
Q 1741 366 2019 503 
Q 2488 731 2488 1250 
L 2488 1703 
Q 2384 1638 2221 1594 
Q 2059 1550 1903 1531 
L 1563 1488 
Q 1256 1447 1103 1359 
Q 844 1213 844 891 
z
M 2206 2028 
Q 2400 2053 2466 2191 
Q 2503 2266 2503 2406 
Q 2503 2694 2298 2823 
Q 2094 2953 1713 2953 
Q 1272 2953 1088 2716 
Q 984 2584 953 2325 
L 428 2325 
Q 444 2944 830 3186 
Q 1216 3428 1725 3428 
Q 2316 3428 2684 3203 
Q 3050 2978 3050 2503 
L 3050 575 
Q 3050 488 3086 434 
Q 3122 381 3238 381 
Q 3275 381 3322 386 
Q 3369 391 3422 400 
L 3422 -16 
Q 3291 -53 3222 -62 
Q 3153 -72 3034 -72 
Q 2744 -72 2613 134 
Q 2544 244 2516 444 
Q 2344 219 2022 53 
Q 1700 -113 1313 -113 
Q 847 -113 551 170 
Q 256 453 256 878 
Q 256 1344 547 1600 
Q 838 1856 1309 1916 
L 2206 2028 
z
M 1741 3428 
L 1741 3428 
z
" transform="scale(0.015625)"/>
       </defs>
       <use xlink:href="#Helvetica-47"/>
       <use xlink:href="#Helvetica-75" x="77.783203"/>
       <use xlink:href="#Helvetica-69" x="133.398438"/>
       <use xlink:href="#Helvetica-6e" x="155.615234"/>
       <use xlink:href="#Helvetica-65" x="211.230469"/>
       <use xlink:href="#Helvetica-61" x="266.845703"/>
      </g>
     </g>
    </g>
    <g id="ytick_3">
     <g id="text_10">
      <!-- Ghana -->
      <g transform="translate(42.218594 140.525172) scale(0.07 -0.07)">
       <defs>
        <path id="Helvetica-68" d="M 413 4606 
L 975 4606 
L 975 2894 
Q 1175 3147 1334 3250 
Q 1606 3428 2013 3428 
Q 2741 3428 3000 2919 
Q 3141 2641 3141 2147 
L 3141 0 
L 2563 0 
L 2563 2109 
Q 2563 2478 2469 2650 
Q 2316 2925 1894 2925 
Q 1544 2925 1259 2684 
Q 975 2444 975 1775 
L 975 0 
L 413 0 
L 413 4606 
z
" transform="scale(0.015625)"/>
       </defs>
       <use xlink:href="#Helvetica-47"/>
       <use xlink:href="#Helvetica-68" x="77.783203"/>
       <use xlink:href="#Helvetica-61" x="133.398438"/>
       <use xlink:href="#Helvetica-6e" x="189.013672"/>
       <use xlink:href="#Helvetica-61" x="244.628906"/>
      </g>
     </g>
    </g>
    <g id="ytick_4">
     <g id="text_11">
      <!-- Cameroon -->
      <g transform="translate(30.55375 128.429172) scale(0.07 -0.07)">
       <defs>
        <path id="Helvetica-6d" d="M 413 3347 
L 969 3347 
L 969 2872 
Q 1169 3119 1331 3231 
Q 1609 3422 1963 3422 
Q 2363 3422 2606 3225 
Q 2744 3113 2856 2894 
Q 3044 3163 3297 3292 
Q 3550 3422 3866 3422 
Q 4541 3422 4784 2934 
Q 4916 2672 4916 2228 
L 4916 0 
L 4331 0 
L 4331 2325 
Q 4331 2659 4164 2784 
Q 3997 2909 3756 2909 
Q 3425 2909 3186 2687 
Q 2947 2466 2947 1947 
L 2947 0 
L 2375 0 
L 2375 2184 
Q 2375 2525 2294 2681 
Q 2166 2916 1816 2916 
Q 1497 2916 1236 2669 
Q 975 2422 975 1775 
L 975 0 
L 413 0 
L 413 3347 
z
" transform="scale(0.015625)"/>
       </defs>
       <use xlink:href="#Helvetica-43"/>
       <use xlink:href="#Helvetica-61" x="72.216797"/>
       <use xlink:href="#Helvetica-6d" x="127.832031"/>
       <use xlink:href="#Helvetica-65" x="211.132812"/>
       <use xlink:href="#Helvetica-72" x="266.748047"/>
       <use xlink:href="#Helvetica-6f" x="300.048828"/>
       <use xlink:href="#Helvetica-6f" x="355.664062"/>
       <use xlink:href="#Helvetica-6e" x="411.279297"/>
      </g>
     </g>
    </g>
    <g id="ytick_5">
     <g id="text_12">
      <!-- Congo -->
      <g transform="translate(42.607969 116.356688) scale(0.07 -0.07)">
       <defs>
        <path id="Helvetica-67" d="M 1594 3406 
Q 1988 3406 2281 3213 
Q 2441 3103 2606 2894 
L 2606 3316 
L 3125 3316 
L 3125 272 
Q 3125 -366 2938 -734 
Q 2588 -1416 1616 -1416 
Q 1075 -1416 706 -1173 
Q 338 -931 294 -416 
L 866 -416 
Q 906 -641 1028 -763 
Q 1219 -950 1628 -950 
Q 2275 -950 2475 -494 
Q 2594 -225 2584 466 
Q 2416 209 2178 84 
Q 1941 -41 1550 -41 
Q 1006 -41 598 345 
Q 191 731 191 1622 
Q 191 2463 602 2934 
Q 1013 3406 1594 3406 
z
M 2606 1688 
Q 2606 2309 2350 2609 
Q 2094 2909 1697 2909 
Q 1103 2909 884 2353 
Q 769 2056 769 1575 
Q 769 1009 998 714 
Q 1228 419 1616 419 
Q 2222 419 2469 966 
Q 2606 1275 2606 1688 
z
M 1659 3428 
L 1659 3428 
z
" transform="scale(0.015625)"/>
       </defs>
       <use xlink:href="#Helvetica-43"/>
       <use xlink:href="#Helvetica-6f" x="72.216797"/>
       <use xlink:href="#Helvetica-6e" x="127.832031"/>
       <use xlink:href="#Helvetica-67" x="183.447266"/>
       <use xlink:href="#Helvetica-6f" x="239.0625"/>
      </g>
     </g>
    </g>
    <g id="ytick_6">
     <g id="text_13">
      <!-- South Africa -->
      <g transform="translate(25.104688 104.237172) scale(0.07 -0.07)">
       <defs>
        <path id="Helvetica-41" d="M 2844 1881 
L 2147 3909 
L 1406 1881 
L 2844 1881 
z
M 1822 4591 
L 2525 4591 
L 4191 0 
L 3509 0 
L 3044 1375 
L 1228 1375 
L 731 0 
L 94 0 
L 1822 4591 
z
" transform="scale(0.015625)"/>
        <path id="Helvetica-66" d="M 553 3856 
Q 566 4206 675 4369 
Q 872 4656 1434 4656 
Q 1488 4656 1544 4653 
Q 1600 4650 1672 4644 
L 1672 4131 
Q 1584 4138 1545 4139 
Q 1506 4141 1472 4141 
Q 1216 4141 1166 4008 
Q 1116 3875 1116 3331 
L 1672 3331 
L 1672 2888 
L 1109 2888 
L 1109 0 
L 553 0 
L 553 2888 
L 88 2888 
L 88 3331 
L 553 3331 
L 553 3856 
z
" transform="scale(0.015625)"/>
        <path id="Helvetica-63" d="M 1703 3444 
Q 2269 3444 2623 3169 
Q 2978 2894 3050 2222 
L 2503 2222 
Q 2453 2531 2275 2736 
Q 2097 2941 1703 2941 
Q 1166 2941 934 2416 
Q 784 2075 784 1575 
Q 784 1072 996 728 
Q 1209 384 1666 384 
Q 2016 384 2220 598 
Q 2425 813 2503 1184 
L 3050 1184 
Q 2956 519 2581 211 
Q 2206 -97 1622 -97 
Q 966 -97 575 383 
Q 184 863 184 1581 
Q 184 2463 612 2953 
Q 1041 3444 1703 3444 
z
M 1616 3428 
L 1616 3428 
z
" transform="scale(0.015625)"/>
       </defs>
       <use xlink:href="#Helvetica-53"/>
       <use xlink:href="#Helvetica-6f" x="66.699219"/>
       <use xlink:href="#Helvetica-75" x="122.314453"/>
       <use xlink:href="#Helvetica-74" x="177.929688"/>
       <use xlink:href="#Helvetica-68" x="205.712891"/>
       <use xlink:href="#Helvetica-20" x="261.328125"/>
       <use xlink:href="#Helvetica-41" x="289.111328"/>
       <use xlink:href="#Helvetica-66" x="355.810547"/>
       <use xlink:href="#Helvetica-72" x="383.59375"/>
       <use xlink:href="#Helvetica-69" x="416.894531"/>
       <use xlink:href="#Helvetica-63" x="439.111328"/>
       <use xlink:href="#Helvetica-61" x="489.111328"/>
      </g>
     </g>
    </g>
    <g id="ytick_7">
     <g id="text_14">
      <!-- Equatorial Guinea -->
      <g transform="translate(7.2 92.209531) scale(0.07 -0.07)">
       <defs>
        <path id="Helvetica-45" d="M 547 4591 
L 3894 4591 
L 3894 4028 
L 1153 4028 
L 1153 2634 
L 3688 2634 
L 3688 2103 
L 1153 2103 
L 1153 547 
L 3941 547 
L 3941 0 
L 547 0 
L 547 4591 
z
M 2244 4591 
L 2244 4591 
z
" transform="scale(0.015625)"/>
        <path id="Helvetica-71" d="M 775 1628 
Q 775 1194 897 900 
Q 1113 378 1669 378 
Q 2256 378 2478 928 
Q 2600 1231 2600 1703 
Q 2600 2138 2466 2428 
Q 2238 2925 1663 2925 
Q 1297 2925 1036 2608 
Q 775 2291 775 1628 
z
M 1606 3422 
Q 2022 3422 2306 3213 
Q 2463 3100 2606 2881 
L 2606 3347 
L 3141 3347 
L 3141 -1334 
L 2575 -1334 
L 2575 384 
Q 2434 159 2186 26 
Q 1938 -106 1566 -106 
Q 1031 -106 609 312 
Q 188 731 188 1588 
Q 188 2391 583 2906 
Q 978 3422 1606 3422 
z
" transform="scale(0.015625)"/>
       </defs>
       <use xlink:href="#Helvetica-45"/>
       <use xlink:href="#Helvetica-71" x="66.699219"/>
       <use xlink:href="#Helvetica-75" x="122.314453"/>
       <use xlink:href="#Helvetica-61" x="177.929688"/>
       <use xlink:href="#Helvetica-74" x="233.544922"/>
       <use xlink:href="#Helvetica-6f" x="261.328125"/>
       <use xlink:href="#Helvetica-72" x="316.943359"/>
       <use xlink:href="#Helvetica-69" x="350.244141"/>
       <use xlink:href="#Helvetica-61" x="372.460938"/>
       <use xlink:href="#Helvetica-6c" x="428.076172"/>
       <use xlink:href="#Helvetica-20" x="450.292969"/>
       <use xlink:href="#Helvetica-47" x="478.076172"/>
       <use xlink:href="#Helvetica-75" x="555.859375"/>
       <use xlink:href="#Helvetica-69" x="611.474609"/>
       <use xlink:href="#Helvetica-6e" x="633.691406"/>
       <use xlink:href="#Helvetica-65" x="689.306641"/>
       <use xlink:href="#Helvetica-61" x="744.921875"/>
      </g>
     </g>
    </g>
    <g id="ytick_8">
     <g id="text_15">
      <!-- Morocco -->
      <g transform="translate(36.394375 80.045172) scale(0.07 -0.07)">
       <defs>
        <path id="Helvetica-4d" d="M 472 4591 
L 1363 4591 
L 2681 709 
L 3991 4591 
L 4872 4591 
L 4872 0 
L 4281 0 
L 4281 2709 
Q 4281 2850 4287 3175 
Q 4294 3500 4294 3872 
L 2984 0 
L 2369 0 
L 1050 3872 
L 1050 3731 
Q 1050 3563 1058 3217 
Q 1066 2872 1066 2709 
L 1066 0 
L 472 0 
L 472 4591 
z
" transform="scale(0.015625)"/>
       </defs>
       <use xlink:href="#Helvetica-4d"/>
       <use xlink:href="#Helvetica-6f" x="83.300781"/>
       <use xlink:href="#Helvetica-72" x="138.916016"/>
       <use xlink:href="#Helvetica-6f" x="172.216797"/>
       <use xlink:href="#Helvetica-63" x="227.832031"/>
       <use xlink:href="#Helvetica-63" x="277.832031"/>
       <use xlink:href="#Helvetica-6f" x="327.832031"/>
      </g>
     </g>
    </g>
    <g id="ytick_9">
     <g id="text_16">
      <!-- Senegal -->
      <g transform="translate(37.546094 67.972688) scale(0.07 -0.07)">
       <use xlink:href="#Helvetica-53"/>
       <use xlink:href="#Helvetica-65" x="66.699219"/>
       <use xlink:href="#Helvetica-6e" x="122.314453"/>
       <use xlink:href="#Helvetica-65" x="177.929688"/>
       <use xlink:href="#Helvetica-67" x="233.544922"/>
       <use xlink:href="#Helvetica-61" x="289.160156"/>
       <use xlink:href="#Helvetica-6c" x="344.775391"/>
      </g>
     </g>
    </g>
    <g id="ytick_10">
     <g id="text_17">
      <!-- Mauritania -->
      <g transform="translate(30.55375 55.853172) scale(0.07 -0.07)">
       <use xlink:href="#Helvetica-4d"/>
       <use xlink:href="#Helvetica-61" x="83.300781"/>
       <use xlink:href="#Helvetica-75" x="138.916016"/>
       <use xlink:href="#Helvetica-72" x="194.53125"/>
       <use xlink:href="#Helvetica-69" x="227.832031"/>
       <use xlink:href="#Helvetica-74" x="250.048828"/>
       <use xlink:href="#Helvetica-61" x="277.832031"/>
       <use xlink:href="#Helvetica-6e" x="333.447266"/>
       <use xlink:href="#Helvetica-69" x="389.0625"/>
       <use xlink:href="#Helvetica-61" x="411.279297"/>
      </g>
     </g>
    </g>
    <g id="ytick_11">
     <g id="text_18">
      <!-- Nigeria -->
      <g transform="translate(41.059219 43.712328) scale(0.07 -0.07)">
       <defs>
        <path id="Helvetica-4e" d="M 488 4591 
L 1222 4591 
L 3541 872 
L 3541 4591 
L 4131 4591 
L 4131 0 
L 3434 0 
L 1081 3716 
L 1081 0 
L 488 0 
L 488 4591 
z
M 2269 4591 
L 2269 4591 
z
" transform="scale(0.015625)"/>
       </defs>
       <use xlink:href="#Helvetica-4e"/>
       <use xlink:href="#Helvetica-69" x="72.216797"/>
       <use xlink:href="#Helvetica-67" x="94.433594"/>
       <use xlink:href="#Helvetica-65" x="150.048828"/>
       <use xlink:href="#Helvetica-72" x="205.664062"/>
       <use xlink:href="#Helvetica-69" x="238.964844"/>
       <use xlink:href="#Helvetica-61" x="261.181641"/>
      </g>
     </g>
    </g>
    <g id="ytick_12">
     <g id="text_19">
      <!-- Mozambique -->
      <g transform="translate(23.161094 31.669375) scale(0.07 -0.07)">
       <defs>
        <path id="Helvetica-7a" d="M 163 444 
L 2147 2844 
L 309 2844 
L 309 3347 
L 2903 3347 
L 2903 2888 
L 931 503 
L 2963 503 
L 2963 0 
L 163 0 
L 163 444 
z
M 1609 3428 
L 1609 3428 
z
" transform="scale(0.015625)"/>
       </defs>
       <use xlink:href="#Helvetica-4d"/>
       <use xlink:href="#Helvetica-6f" x="83.300781"/>
       <use xlink:href="#Helvetica-7a" x="138.916016"/>
       <use xlink:href="#Helvetica-61" x="188.916016"/>
       <use xlink:href="#Helvetica-6d" x="244.53125"/>
       <use xlink:href="#Helvetica-62" x="327.832031"/>
       <use xlink:href="#Helvetica-69" x="383.447266"/>
       <use xlink:href="#Helvetica-71" x="405.664062"/>
       <use xlink:href="#Helvetica-75" x="461.279297"/>
       <use xlink:href="#Helvetica-65" x="516.894531"/>
      </g>
     </g>
    </g>
    <g id="ytick_13">
     <g id="text_20">
      <!-- Tanzania -->
      <g transform="translate(34.439844 19.565172) scale(0.07 -0.07)">
       <defs>
        <path id="Helvetica-54" d="M 3828 4591 
L 3828 4044 
L 2281 4044 
L 2281 0 
L 1650 0 
L 1650 4044 
L 103 4044 
L 103 4591 
L 3828 4591 
z
" transform="scale(0.015625)"/>
       </defs>
       <use xlink:href="#Helvetica-54"/>
       <use xlink:href="#Helvetica-61" x="61.083984"/>
       <use xlink:href="#Helvetica-6e" x="116.699219"/>
       <use xlink:href="#Helvetica-7a" x="172.314453"/>
       <use xlink:href="#Helvetica-61" x="222.314453"/>
       <use xlink:href="#Helvetica-6e" x="277.929688"/>
       <use xlink:href="#Helvetica-69" x="333.544922"/>
       <use xlink:href="#Helvetica-61" x="355.761719"/>
      </g>
     </g>
    </g>
   </g>
   <g id="patch_55">
    <path d="M 70.233906 173.52 
L 251.583906 173.52 
" style="fill: none; stroke: #000000; stroke-width: 0.8; stroke-linejoin: miter; stroke-linecap: square"/>
   </g>
   <g id="legend_1">
    <g id="patch_56">
     <path d="M 168.303594 135.51875 
L 173.553594 135.51875 
L 173.553594 130.61875 
L 168.303594 130.61875 
z
" style="fill: #7f2704"/>
    </g>
    <g id="text_21">
     <!-- Construction (Export) -->
     <g transform="translate(179.153594 135.51875) scale(0.07 -0.07)">
      <defs>
       <path id="Helvetica-73" d="M 747 1050 
Q 772 769 888 619 
Q 1100 347 1625 347 
Q 1938 347 2175 483 
Q 2413 619 2413 903 
Q 2413 1119 2222 1231 
Q 2100 1300 1741 1391 
L 1294 1503 
Q 866 1609 663 1741 
Q 300 1969 300 2372 
Q 300 2847 642 3140 
Q 984 3434 1563 3434 
Q 2319 3434 2653 2991 
Q 2863 2709 2856 2384 
L 2325 2384 
Q 2309 2575 2191 2731 
Q 1997 2953 1519 2953 
Q 1200 2953 1036 2831 
Q 872 2709 872 2509 
Q 872 2291 1088 2159 
Q 1213 2081 1456 2022 
L 1828 1931 
Q 2434 1784 2641 1647 
Q 2969 1431 2969 969 
Q 2969 522 2630 197 
Q 2291 -128 1597 -128 
Q 850 -128 539 211 
Q 228 550 206 1050 
L 747 1050 
z
M 1578 3428 
L 1578 3428 
z
" transform="scale(0.015625)"/>
       <path id="Helvetica-28" d="M 1894 4666 
Q 1403 3713 1256 3263 
Q 1034 2578 1034 1681 
Q 1034 775 1288 25 
Q 1444 -438 1903 -1306 
L 1525 -1306 
Q 1069 -594 959 -397 
Q 850 -200 722 138 
Q 547 600 478 1125 
Q 444 1397 444 1644 
Q 444 2569 734 3291 
Q 919 3750 1503 4666 
L 1894 4666 
z
" transform="scale(0.015625)"/>
       <path id="Helvetica-78" d="M 94 3347 
L 822 3347 
L 1591 2169 
L 2369 3347 
L 3053 3331 
L 1925 1716 
L 3103 0 
L 2384 0 
L 1553 1256 
L 747 0 
L 34 0 
L 1213 1716 
L 94 3347 
z
" transform="scale(0.015625)"/>
       <path id="Helvetica-70" d="M 1825 378 
Q 2219 378 2480 708 
Q 2741 1038 2741 1694 
Q 2741 2094 2625 2381 
Q 2406 2934 1825 2934 
Q 1241 2934 1025 2350 
Q 909 2038 909 1556 
Q 909 1169 1025 897 
Q 1244 378 1825 378 
z
M 369 3331 
L 916 3331 
L 916 2888 
Q 1084 3116 1284 3241 
Q 1569 3428 1953 3428 
Q 2522 3428 2919 2992 
Q 3316 2556 3316 1747 
Q 3316 653 2744 184 
Q 2381 -113 1900 -113 
Q 1522 -113 1266 53 
Q 1116 147 931 375 
L 931 -1334 
L 369 -1334 
L 369 3331 
z
" transform="scale(0.015625)"/>
       <path id="Helvetica-29" d="M 222 -1306 
Q 719 -338 863 106 
Q 1081 778 1081 1681 
Q 1081 2584 828 3334 
Q 672 3797 213 4666 
L 591 4666 
Q 1072 3897 1173 3717 
Q 1275 3538 1394 3222 
Q 1544 2831 1608 2450 
Q 1672 2069 1672 1716 
Q 1672 791 1378 66 
Q 1194 -400 613 -1306 
L 222 -1306 
z
" transform="scale(0.015625)"/>
      </defs>
      <use xlink:href="#Helvetica-43"/>
      <use xlink:href="#Helvetica-6f" x="72.216797"/>
      <use xlink:href="#Helvetica-6e" x="127.832031"/>
      <use xlink:href="#Helvetica-73" x="183.447266"/>
      <use xlink:href="#Helvetica-74" x="233.447266"/>
      <use xlink:href="#Helvetica-72" x="261.230469"/>
      <use xlink:href="#Helvetica-75" x="294.53125"/>
      <use xlink:href="#Helvetica-63" x="350.146484"/>
      <use xlink:href="#Helvetica-74" x="400.146484"/>
      <use xlink:href="#Helvetica-69" x="427.929688"/>
      <use xlink:href="#Helvetica-6f" x="450.146484"/>
      <use xlink:href="#Helvetica-6e" x="505.761719"/>
      <use xlink:href="#Helvetica-20" x="561.376953"/>
      <use xlink:href="#Helvetica-28" x="589.160156"/>
      <use xlink:href="#Helvetica-45" x="622.460938"/>
      <use xlink:href="#Helvetica-78" x="689.160156"/>
      <use xlink:href="#Helvetica-70" x="739.160156"/>
      <use xlink:href="#Helvetica-6f" x="794.775391"/>
      <use xlink:href="#Helvetica-72" x="850.390625"/>
      <use xlink:href="#Helvetica-74" x="883.691406"/>
      <use xlink:href="#Helvetica-29" x="911.474609"/>
     </g>
    </g>
    <g id="patch_57">
     <path d="M 168.303594 145.58125 
L 173.553594 145.58125 
L 173.553594 140.68125 
L 168.303594 140.68125 
z
" style="fill: #d84801; opacity: 0.5"/>
    </g>
    <g id="text_22">
     <!-- Proposed (Export) -->
     <g transform="translate(179.153594 145.58125) scale(0.07 -0.07)">
      <defs>
       <path id="Helvetica-50" d="M 547 4591 
L 2613 4591 
Q 3225 4591 3600 4245 
Q 3975 3900 3975 3275 
Q 3975 2738 3640 2339 
Q 3306 1941 2613 1941 
L 1169 1941 
L 1169 0 
L 547 0 
L 547 4591 
z
M 3347 3272 
Q 3347 3778 2972 3959 
Q 2766 4056 2406 4056 
L 1169 4056 
L 1169 2466 
L 2406 2466 
Q 2825 2466 3086 2644 
Q 3347 2822 3347 3272 
z
" transform="scale(0.015625)"/>
      </defs>
      <use xlink:href="#Helvetica-50"/>
      <use xlink:href="#Helvetica-72" x="66.699219"/>
      <use xlink:href="#Helvetica-6f" x="100"/>
      <use xlink:href="#Helvetica-70" x="155.615234"/>
      <use xlink:href="#Helvetica-6f" x="211.230469"/>
      <use xlink:href="#Helvetica-73" x="266.845703"/>
      <use xlink:href="#Helvetica-65" x="316.845703"/>
      <use xlink:href="#Helvetica-64" x="372.460938"/>
      <use xlink:href="#Helvetica-20" x="428.076172"/>
      <use xlink:href="#Helvetica-28" x="455.859375"/>
      <use xlink:href="#Helvetica-45" x="489.160156"/>
      <use xlink:href="#Helvetica-78" x="555.859375"/>
      <use xlink:href="#Helvetica-70" x="605.859375"/>
      <use xlink:href="#Helvetica-6f" x="661.474609"/>
      <use xlink:href="#Helvetica-72" x="717.089844"/>
      <use xlink:href="#Helvetica-74" x="750.390625"/>
      <use xlink:href="#Helvetica-29" x="778.173828"/>
     </g>
    </g>
    <g id="patch_58">
     <path d="M 168.303594 155.698438 
L 173.553594 155.698438 
L 173.553594 150.798438 
L 168.303594 150.798438 
z
" style="fill: #3f007d"/>
    </g>
    <g id="text_23">
     <!-- Construction (Import) -->
     <g transform="translate(179.153594 155.698438) scale(0.07 -0.07)">
      <use xlink:href="#Helvetica-43"/>
      <use xlink:href="#Helvetica-6f" x="72.216797"/>
      <use xlink:href="#Helvetica-6e" x="127.832031"/>
      <use xlink:href="#Helvetica-73" x="183.447266"/>
      <use xlink:href="#Helvetica-74" x="233.447266"/>
      <use xlink:href="#Helvetica-72" x="261.230469"/>
      <use xlink:href="#Helvetica-75" x="294.53125"/>
      <use xlink:href="#Helvetica-63" x="350.146484"/>
      <use xlink:href="#Helvetica-74" x="400.146484"/>
      <use xlink:href="#Helvetica-69" x="427.929688"/>
      <use xlink:href="#Helvetica-6f" x="450.146484"/>
      <use xlink:href="#Helvetica-6e" x="505.761719"/>
      <use xlink:href="#Helvetica-20" x="561.376953"/>
      <use xlink:href="#Helvetica-28" x="589.160156"/>
      <use xlink:href="#Helvetica-49" x="622.460938"/>
      <use xlink:href="#Helvetica-6d" x="650.244141"/>
      <use xlink:href="#Helvetica-70" x="733.544922"/>
      <use xlink:href="#Helvetica-6f" x="789.160156"/>
      <use xlink:href="#Helvetica-72" x="844.775391"/>
      <use xlink:href="#Helvetica-74" x="878.076172"/>
      <use xlink:href="#Helvetica-29" x="905.859375"/>
     </g>
    </g>
    <g id="patch_59">
     <path d="M 168.303594 165.760938 
L 173.553594 165.760938 
L 173.553594 160.860938 
L 168.303594 160.860938 
z
" style="fill: #796eb2; opacity: 0.5"/>
    </g>
    <g id="text_24">
     <!-- Proposed (Import) -->
     <g transform="translate(179.153594 165.760938) scale(0.07 -0.07)">
      <use xlink:href="#Helvetica-50"/>
      <use xlink:href="#Helvetica-72" x="66.699219"/>
      <use xlink:href="#Helvetica-6f" x="100"/>
      <use xlink:href="#Helvetica-70" x="155.615234"/>
      <use xlink:href="#Helvetica-6f" x="211.230469"/>
      <use xlink:href="#Helvetica-73" x="266.845703"/>
      <use xlink:href="#Helvetica-65" x="316.845703"/>
      <use xlink:href="#Helvetica-64" x="372.460938"/>
      <use xlink:href="#Helvetica-20" x="428.076172"/>
      <use xlink:href="#Helvetica-28" x="455.859375"/>
      <use xlink:href="#Helvetica-49" x="489.160156"/>
      <use xlink:href="#Helvetica-6d" x="516.943359"/>
      <use xlink:href="#Helvetica-70" x="600.244141"/>
      <use xlink:href="#Helvetica-6f" x="655.859375"/>
      <use xlink:href="#Helvetica-72" x="711.474609"/>
      <use xlink:href="#Helvetica-74" x="744.775391"/>
      <use xlink:href="#Helvetica-29" x="772.558594"/>
     </g>
    </g>
   </g>
  </g>
 </g>
 <defs>
  <clipPath id="p5dbceebc79">
   <rect x="70.233906" y="7.2" width="181.35" height="166.32"/>
  </clipPath>
 </defs>
</svg>
