<svg version="1.1" viewBox="0.0 0.0 540.4803149606299 540.4803149606299" fill="none" stroke="none" stroke-linecap="square" stroke-miterlimit="10" xmlns:xlink="http://www.w3.org/1999/xlink" xmlns="http://www.w3.org/2000/svg"><clipPath id="p.0"><path d="m0 0l540.4803 0l0 540.4803l-540.4803 0l0 -540.4803z" clip-rule="nonzero"/></clipPath><g clip-path="url(#p.0)"><path fill="#ffffff" d="m0 0l540.4803 0l0 540.4803l-540.4803 0z" fill-rule="evenodd"/><path fill="#000000" fill-opacity="0.0" d="m49.501312 113.19683l128.34645 0" fill-rule="evenodd"/><path stroke="#91da91" stroke-width="12.0" stroke-linejoin="round" stroke-linecap="butt" d="m49.501312 113.19683l128.34645 0" fill-rule="evenodd"/><path fill="#000000" fill-opacity="0.0" d="m231.841 82.48817l252.0315 0l0 61.41732l-252.0315 0z" fill-rule="evenodd"/><path fill="#000000" d="m243.51288 124.768166l0 -24.8125l9.359375 0q2.46875 0 3.78125 0.234375q1.8125 0.3125 3.046875 1.171875q1.25 0.84375 2.0 2.390625q0.75 1.53125 0.75 3.390625q0 3.15625 -2.015625 5.359375q-2.015625 2.1875 -7.28125 2.1875l-6.359375 0l0 10.078125l-3.28125 0zm3.28125 -13.015625l6.421875 0q3.171875 0 4.5 -1.171875q1.34375 -1.1875 1.34375 -3.34375q0 -1.5625 -0.78125 -2.671875q-0.78125 -1.109375 -2.078125 -1.453125q-0.828125 -0.21875 -3.0625 -0.21875l-6.34375 0l0 8.859375zm19.412323 13.015625l0 -17.96875l2.734375 0l0 2.71875q1.0625 -1.90625 1.9375 -2.515625q0.890625 -0.609375 1.96875 -0.609375q1.53125 0 3.125 0.984375l-1.046875 2.828125q-1.125 -0.671875 -2.234375 -0.671875q-1.0 0 -1.796875 0.609375q-0.796875 0.59375 -1.140625 1.65625q-0.5 1.625 -0.5 3.5625l0 9.40625l-3.046875 0zm10.447052 -8.984375q0 -5.0 2.765625 -7.390625q2.328125 -2.0 5.65625 -2.0q3.703125 0 6.046875 2.4375q2.359375 2.421875 2.359375 6.703125q0 3.46875 -1.046875 5.453125q-1.03125 1.984375 -3.015625 3.09375q-1.984375 1.09375 -4.34375 1.09375q-3.78125 0 -6.109375 -2.421875q-2.3125 -2.421875 -2.3125 -6.96875zm3.125 0q0 3.453125 1.5 5.171875q1.515625 1.71875 3.796875 1.71875q2.265625 0 3.765625 -1.71875q1.515625 -1.734375 1.515625 -5.28125q0 -3.328125 -1.515625 -5.046875q-1.515625 -1.71875 -3.765625 -1.71875q-2.28125 0 -3.796875 1.71875q-1.5 1.703125 -1.5 5.15625zm17.27414 15.875008l0 -24.859383l2.78125 0l0 2.328125q0.984375 -1.359375 2.21875 -2.046875q1.234375 -0.6875 2.984375 -0.6875q2.3125 0 4.0625 1.1875q1.765625 1.171875 2.65625 3.34375q0.90625 2.15625 0.90625 4.71875q0 2.765625 -1.0 4.96875q-0.984375 2.203125 -2.875 3.390625q-1.875 1.171875 -3.96875 1.171875q-1.515625 0 -2.734375 -0.640625q-1.203125 -0.640625 -1.984375 -1.625l0 8.750008l-3.046875 0zm2.765625 -15.781258q0 3.46875 1.40625 5.140625q1.40625 1.65625 3.390625 1.65625q2.03125 0 3.46875 -1.71875q1.453125 -1.71875 1.453125 -5.328125q0 -3.4375 -1.40625 -5.140625q-1.40625 -1.703125 -3.375 -1.703125q-1.953125 0 -3.453125 1.8125q-1.484375 1.8125 -1.484375 5.28125zm15.383545 -0.09375q0 -5.0 2.765625 -7.390625q2.328125 -2.0 5.65625 -2.0q3.703125 0 6.046875 2.4375q2.359375 2.421875 2.359375 6.703125q0 3.46875 -1.046875 5.453125q-1.03125 1.984375 -3.015625 3.09375q-1.984375 1.09375 -4.34375 1.09375q-3.78125 0 -6.109375 -2.421875q-2.3125 -2.421875 -2.3125 -6.96875zm3.125 0q0 3.453125 1.5 5.171875q1.515625 1.71875 3.796875 1.71875q2.265625 0 3.765625 -1.71875q1.515625 -1.734375 1.515625 -5.28125q0 -3.328125 -1.515625 -5.046875q-1.515625 -1.71875 -3.765625 -1.71875q-2.28125 0 -3.796875 1.71875q-1.5 1.703125 -1.5 5.15625zm16.05539 3.625l3.015625 -0.484375q0.25 1.8125 1.40625 2.78125q1.171875 0.96875 3.25 0.96875q2.09375 0 3.109375 -0.859375q1.015625 -0.859375 1.015625 -2.0q0 -1.03125 -0.890625 -1.625q-0.625 -0.40625 -3.125 -1.03125q-3.34375 -0.859375 -4.640625 -1.46875q-1.296875 -0.625 -1.96875 -1.703125q-0.65625 -1.09375 -0.65625 -2.421875q0 -1.203125 0.546875 -2.21875q0.546875 -1.03125 1.5 -1.703125q0.703125 -0.53125 1.921875 -0.890625q1.234375 -0.359375 2.640625 -0.359375q2.125 0 3.71875 0.609375q1.59375 0.609375 2.359375 1.65625q0.765625 1.03125 1.046875 2.78125l-2.96875 0.40625q-0.203125 -1.390625 -1.1875 -2.171875q-0.96875 -0.78125 -2.75 -0.78125q-2.09375 0 -3.0 0.703125q-0.890625 0.6875 -0.890625 1.625q0 0.578125 0.375 1.0625q0.375 0.484375 1.171875 0.8125q0.453125 0.171875 2.6875 0.78125q3.234375 0.859375 4.5 1.40625q1.28125 0.546875 2.0 1.59375q0.734375 1.046875 0.734375 2.609375q0 1.53125 -0.890625 2.875q-0.875 1.34375 -2.5625 2.078125q-1.671875 0.734375 -3.78125 0.734375q-3.5 0 -5.34375 -1.453125q-1.828125 -1.453125 -2.34375 -4.3125zm30.859375 -0.421875l3.140625 0.390625q-0.75 2.75 -2.765625 4.28125q-2.0 1.515625 -5.140625 1.515625q-3.9375 0 -6.25 -2.421875q-2.3125 -2.4375 -2.3125 -6.8125q0 -4.546875 2.328125 -7.046875q2.34375 -2.5 6.0625 -2.5q3.609375 0 5.890625 2.453125q2.28125 2.453125 2.28125 6.90625q0 0.265625 -0.015625 0.8125l-13.390625 0q0.15625 2.953125 1.65625 4.53125q1.515625 1.578125 3.765625 1.578125q1.6875 0 2.859375 -0.875q1.1875 -0.890625 1.890625 -2.8125zm-10.015625 -4.9375l10.046875 0q-0.203125 -2.265625 -1.15625 -3.390625q-1.453125 -1.765625 -3.765625 -1.765625q-2.109375 0 -3.546875 1.40625q-1.421875 1.40625 -1.578125 3.75zm28.633545 10.71875l0 -2.265625q-1.703125 2.671875 -5.015625 2.671875q-2.15625 0 -3.953125 -1.1875q-1.796875 -1.1875 -2.796875 -3.296875q-0.984375 -2.125 -0.984375 -4.890625q0 -2.6875 0.890625 -4.875q0.90625 -2.203125 2.6875 -3.359375q1.796875 -1.171875 4.015625 -1.171875q1.625 0 2.890625 0.6875q1.28125 0.6875 2.0625 1.78125l0 -8.90625l3.03125 0l0 24.8125l-2.828125 0zm-9.625 -8.96875q0 3.453125 1.453125 5.171875q1.453125 1.703125 3.4375 1.703125q2.0 0 3.390625 -1.625q1.40625 -1.640625 1.40625 -5.0q0 -3.6875 -1.421875 -5.40625q-1.421875 -1.734375 -3.515625 -1.734375q-2.015625 0 -3.390625 1.65625q-1.359375 1.65625 -1.359375 5.234375z" fill-rule="nonzero"/><path fill="#000000" fill-opacity="0.0" d="m49.501312 191.7189l128.34645 0" fill-rule="evenodd"/><path stroke="#ffb23d" stroke-width="12.0" stroke-linejoin="round" stroke-linecap="butt" d="m49.501312 191.7189l128.34645 0" fill-rule="evenodd"/><path fill="#000000" fill-opacity="0.0" d="m231.841 161.01024l267.30707 0l0 61.417328l-267.30707 0z" fill-rule="evenodd"/><path fill="#000000" d="m261.216 194.58711l3.28125 0.828125q-1.03125 4.046875 -3.71875 6.171875q-2.671875 2.125 -6.546875 2.125q-4.015625 0 -6.53125 -1.625q-2.515625 -1.640625 -3.828125 -4.734375q-1.3125 -3.09375 -1.3125 -6.65625q0 -3.875 1.484375 -6.75q1.484375 -2.890625 4.21875 -4.390625q2.734375 -1.5 6.015625 -1.5q3.71875 0 6.25 1.90625q2.546875 1.890625 3.546875 5.328125l-3.234375 0.75q-0.859375 -2.703125 -2.5 -3.9375q-1.640625 -1.234375 -4.125 -1.234375q-2.859375 0 -4.78125 1.375q-1.921875 1.359375 -2.703125 3.671875q-0.78125 2.3125 -0.78125 4.765625q0 3.171875 0.921875 5.53125q0.921875 2.359375 2.859375 3.53125q1.953125 1.15625 4.21875 1.15625q2.765625 0 4.671875 -1.578125q1.921875 -1.59375 2.59375 -4.734375zm5.8088684 -0.28125q0 -5.0 2.765625 -7.390625q2.328125 -2.0 5.65625 -2.0q3.703125 0 6.046875 2.4375q2.359375 2.421875 2.359375 6.703125q0 3.46875 -1.046875 5.453125q-1.03125 1.984375 -3.015625 3.09375q-1.984375 1.09375 -4.34375 1.09375q-3.78125 0 -6.109375 -2.421875q-2.3125 -2.421875 -2.3125 -6.96875zm3.125 0q0 3.453125 1.5 5.171875q1.515625 1.71875 3.796875 1.71875q2.265625 0 3.765625 -1.71875q1.515625 -1.734375 1.515625 -5.28125q0 -3.328125 -1.515625 -5.046875q-1.515625 -1.71875 -3.765625 -1.71875q-2.28125 0 -3.796875 1.71875q-1.5 1.703125 -1.5 5.15625zm17.27417 8.984375l0 -17.96875l2.75 0l0 2.546875q1.96875 -2.953125 5.71875 -2.953125q1.625 0 2.984375 0.59375q1.359375 0.578125 2.03125 1.53125q0.6875 0.9375 0.953125 2.234375q0.171875 0.84375 0.171875 2.96875l0 11.046875l-3.046875 0l0 -10.9375q0 -1.859375 -0.359375 -2.78125q-0.359375 -0.921875 -1.265625 -1.46875q-0.890625 -0.546875 -2.109375 -0.546875q-1.953125 0 -3.375 1.234375q-1.40625 1.234375 -1.40625 4.6875l0 9.8125l-3.046875 0zm18.05539 -5.359375l3.015625 -0.484375q0.25 1.8125 1.40625 2.78125q1.171875 0.96875 3.25 0.96875q2.09375 0 3.109375 -0.859375q1.015625 -0.859375 1.015625 -2.0q0 -1.03125 -0.890625 -1.625q-0.625 -0.40625 -3.125 -1.03125q-3.34375 -0.859375 -4.640625 -1.46875q-1.296875 -0.625 -1.96875 -1.703125q-0.65625 -1.09375 -0.65625 -2.421875q0 -1.203125 0.546875 -2.21875q0.546875 -1.03125 1.5 -1.703125q0.703125 -0.53125 1.921875 -0.890625q1.234375 -0.359375 2.640625 -0.359375q2.125 0 3.71875 0.609375q1.59375 0.609375 2.359375 1.65625q0.765625 1.03125 1.046875 2.78125l-2.96875 0.40625q-0.203125 -1.390625 -1.1875 -2.171875q-0.96875 -0.78125 -2.75 -0.78125q-2.09375 0 -3.0 0.703125q-0.890625 0.6875 -0.890625 1.625q0 0.578125 0.375 1.0625q0.375 0.484375 1.171875 0.8125q0.453125 0.171875 2.6875 0.78125q3.234375 0.859375 4.5 1.40625q1.28125 0.546875 2.0 1.59375q0.734375 1.046875 0.734375 2.609375q0 1.53125 -0.890625 2.875q-0.875 1.34375 -2.5625 2.078125q-1.671875 0.734375 -3.78125 0.734375q-3.5 0 -5.34375 -1.453125q-1.828125 -1.453125 -2.34375 -4.3125zm25.203125 2.640625l0.4375 2.6875q-1.28125 0.265625 -2.296875 0.265625q-1.65625 0 -2.578125 -0.515625q-0.90625 -0.53125 -1.28125 -1.375q-0.375 -0.859375 -0.375 -3.609375l0 -10.34375l-2.234375 0l0 -2.359375l2.234375 0l0 -4.453125l3.03125 -1.828125l0 6.28125l3.0625 0l0 2.359375l-3.0625 0l0 10.515625q0 1.296875 0.15625 1.671875q0.15625 0.375 0.515625 0.59375q0.375 0.21875 1.046875 0.21875q0.515625 0 1.34375 -0.109375zm2.9411316 2.71875l0 -17.96875l2.734375 0l0 2.71875q1.0625 -1.90625 1.9375 -2.515625q0.890625 -0.609375 1.96875 -0.609375q1.53125 0 3.125 0.984375l-1.046875 2.828125q-1.125 -0.671875 -2.234375 -0.671875q-1.0 0 -1.796875 0.609375q-0.796875 0.59375 -1.140625 1.65625q-0.5 1.625 -0.5 3.5625l0 9.40625l-3.046875 0zm23.353302 0l0 -2.640625q-2.09375 3.046875 -5.703125 3.046875q-1.59375 0 -2.96875 -0.609375q-1.375 -0.609375 -2.046875 -1.53125q-0.671875 -0.921875 -0.9375 -2.265625q-0.1875 -0.890625 -0.1875 -2.84375l0 -11.125l3.046875 0l0 9.96875q0 2.375 0.1875 3.21875q0.28125 1.1875 1.203125 1.875q0.9375 0.6875 2.3125 0.6875q1.375 0 2.578125 -0.703125q1.203125 -0.703125 1.6875 -1.90625q0.5 -1.21875 0.5 -3.515625l0 -9.625l3.046875 0l0 17.96875l-2.71875 0zm19.227264 -6.578125l2.984375 0.390625q-0.484375 3.09375 -2.515625 4.84375q-2.015625 1.75 -4.953125 1.75q-3.6875 0 -5.9375 -2.40625q-2.234375 -2.421875 -2.234375 -6.921875q0 -2.90625 0.953125 -5.078125q0.96875 -2.1875 2.9375 -3.28125q1.96875 -1.09375 4.296875 -1.09375q2.921875 0 4.78125 1.484375q1.859375 1.46875 2.390625 4.203125l-2.96875 0.453125q-0.421875 -1.8125 -1.5 -2.71875q-1.0625 -0.921875 -2.59375 -0.921875q-2.296875 0 -3.734375 1.65625q-1.4375 1.640625 -1.4375 5.21875q0 3.625 1.390625 5.265625q1.390625 1.640625 3.625 1.640625q1.78125 0 2.984375 -1.09375q1.203125 -1.109375 1.53125 -3.390625zm12.25 3.859375l0.4375 2.6875q-1.28125 0.265625 -2.296875 0.265625q-1.65625 0 -2.578125 -0.515625q-0.90625 -0.53125 -1.28125 -1.375q-0.375 -0.859375 -0.375 -3.609375l0 -10.34375l-2.234375 0l0 -2.359375l2.234375 0l0 -4.453125l3.03125 -1.828125l0 6.28125l3.0625 0l0 2.359375l-3.0625 0l0 10.515625q0 1.296875 0.15625 1.671875q0.15625 0.375 0.515625 0.59375q0.375 0.21875 1.046875 0.21875q0.515625 0 1.34375 -0.109375zm2.9880066 -18.59375l0 -3.5l3.046875 0l0 3.5l-3.046875 0zm0 21.3125l0 -17.96875l3.046875 0l0 17.96875l-3.046875 0zm6.5588684 -8.984375q0 -5.0 2.765625 -7.390625q2.328125 -2.0 5.65625 -2.0q3.703125 0 6.046875 2.4375q2.359375 2.421875 2.359375 6.703125q0 3.46875 -1.046875 5.453125q-1.03125 1.984375 -3.015625 3.09375q-1.984375 1.09375 -4.34375 1.09375q-3.78125 0 -6.109375 -2.421875q-2.3125 -2.421875 -2.3125 -6.96875zm3.125 0q0 3.453125 1.5 5.171875q1.515625 1.71875 3.796875 1.71875q2.265625 0 3.765625 -1.71875q1.515625 -1.734375 1.515625 -5.28125q0 -3.328125 -1.515625 -5.046875q-1.515625 -1.71875 -3.765625 -1.71875q-2.28125 0 -3.796875 1.71875q-1.5 1.703125 -1.5 5.15625zm17.27417 8.984375l0 -17.96875l2.75 0l0 2.546875q1.96875 -2.953125 5.71875 -2.953125q1.625 0 2.984375 0.59375q1.359375 0.578125 2.03125 1.53125q0.6875 0.9375 0.953125 2.234375q0.171875 0.84375 0.171875 2.96875l0 11.046875l-3.046875 0l0 -10.9375q0 -1.859375 -0.359375 -2.78125q-0.359375 -0.921875 -1.265625 -1.46875q-0.890625 -0.546875 -2.109375 -0.546875q-1.953125 0 -3.375 1.234375q-1.40625 1.234375 -1.40625 4.6875l0 9.8125l-3.046875 0z" fill-rule="nonzero"/><path fill="#000000" fill-opacity="0.0" d="m49.501312 270.24097l128.34645 0" fill-rule="evenodd"/><path stroke="#d4403b" stroke-width="12.0" stroke-linejoin="round" stroke-linecap="butt" d="m49.501312 270.24097l128.34645 0" fill-rule="evenodd"/><path fill="#000000" fill-opacity="0.0" d="m231.841 239.5323l267.30707 0l0 61.417313l-267.30707 0z" fill-rule="evenodd"/><path fill="#000000" d="m242.51288 269.7342q0 -6.1875 3.3125 -9.671875q3.328125 -3.5 8.5625 -3.5q3.4375 0 6.1875 1.640625q2.765625 1.640625 4.21875 4.578125q1.453125 2.9375 1.453125 6.65625q0 3.78125 -1.53125 6.765625q-1.515625 2.96875 -4.3125 4.5q-2.796875 1.53125 -6.03125 1.53125q-3.5 0 -6.265625 -1.6875q-2.75 -1.703125 -4.171875 -4.625q-1.421875 -2.921875 -1.421875 -6.1875zm3.390625 0.046875q0 4.484375 2.40625 7.0625q2.40625 2.578125 6.046875 2.578125q3.71875 0 6.109375 -2.59375q2.390625 -2.609375 2.390625 -7.40625q0 -3.03125 -1.03125 -5.28125q-1.015625 -2.265625 -2.984375 -3.5q-1.96875 -1.25 -4.421875 -1.25q-3.5 0 -6.015625 2.40625q-2.5 2.390625 -2.5 7.984375zm24.175476 18.921875l0 -24.859375l2.78125 0l0 2.328125q0.984375 -1.359375 2.21875 -2.046875q1.234375 -0.6875 2.984375 -0.6875q2.3125 0 4.0625 1.1875q1.765625 1.171875 2.65625 3.34375q0.90625 2.15625 0.90625 4.71875q0 2.765625 -1.0 4.96875q-0.984375 2.203125 -2.875 3.390625q-1.875 1.171875 -3.96875 1.171875q-1.515625 0 -2.734375 -0.640625q-1.203125 -0.640625 -1.984375 -1.625l0 8.75l-3.046875 0zm2.765625 -15.78125q0 3.46875 1.40625 5.140625q1.40625 1.65625 3.390625 1.65625q2.03125 0 3.46875 -1.71875q1.453125 -1.71875 1.453125 -5.328125q0 -3.4375 -1.40625 -5.140625q-1.40625 -1.703125 -3.375 -1.703125q-1.953125 0 -3.453125 1.8125q-1.484375 1.8125 -1.484375 5.28125zm28.821045 3.109375l3.140625 0.390625q-0.75 2.75 -2.765625 4.28125q-2.0 1.515625 -5.140625 1.515625q-3.9375 0 -6.25 -2.421875q-2.3125 -2.4375 -2.3125 -6.8125q0 -4.546875 2.328125 -7.046875q2.34375 -2.5 6.0625 -2.5q3.609375 0 5.890625 2.453125q2.28125 2.453125 2.28125 6.90625q0 0.265625 -0.015625 0.8125l-13.390625 0q0.15625 2.953125 1.65625 4.53125q1.515625 1.578125 3.765625 1.578125q1.6875 0 2.859375 -0.875q1.1875 -0.890625 1.890625 -2.8125zm-10.015625 -4.9375l10.046875 0q-0.203125 -2.265625 -1.15625 -3.390625q-1.453125 -1.765625 -3.765625 -1.765625q-2.109375 0 -3.546875 1.40625q-1.421875 1.40625 -1.578125 3.75zm16.946014 10.71875l0 -17.96875l2.734375 0l0 2.71875q1.0625 -1.90625 1.9375 -2.515625q0.890625 -0.609375 1.96875 -0.609375q1.53125 0 3.125 0.984375l-1.046875 2.828125q-1.125 -0.671875 -2.234375 -0.671875q-1.0 0 -1.796875 0.609375q-0.796875 0.59375 -1.140625 1.65625q-0.5 1.625 -0.5 3.5625l0 9.40625l-3.046875 0zm23.306427 -2.21875q-1.703125 1.4375 -3.265625 2.03125q-1.5625 0.59375 -3.359375 0.59375q-2.953125 0 -4.546875 -1.4375q-1.59375 -1.453125 -1.59375 -3.703125q0 -1.328125 0.59375 -2.40625q0.609375 -1.09375 1.578125 -1.75q0.984375 -0.671875 2.203125 -1.015625q0.890625 -0.234375 2.703125 -0.453125q3.6875 -0.4375 5.421875 -1.046875q0.03125 -0.625 0.03125 -0.796875q0 -1.859375 -0.875 -2.625q-1.15625 -1.03125 -3.46875 -1.03125q-2.140625 0 -3.171875 0.765625q-1.015625 0.75 -1.515625 2.65625l-2.96875 -0.40625q0.40625 -1.90625 1.328125 -3.078125q0.9375 -1.1875 2.6875 -1.8125q1.765625 -0.640625 4.078125 -0.640625q2.3125 0 3.75 0.546875q1.4375 0.53125 2.109375 1.359375q0.6875 0.8125 0.953125 2.0625q0.15625 0.78125 0.15625 2.8125l0 4.0625q0 4.25 0.1875 5.375q0.203125 1.125 0.765625 2.15625l-3.171875 0q-0.484375 -0.953125 -0.609375 -2.21875zm-0.265625 -6.796875q-1.65625 0.671875 -4.96875 1.140625q-1.875 0.28125 -2.65625 0.625q-0.78125 0.328125 -1.203125 0.984375q-0.421875 0.640625 -0.421875 1.4375q0 1.21875 0.921875 2.03125q0.921875 0.8125 2.703125 0.8125q1.75 0 3.125 -0.765625q1.375 -0.765625 2.015625 -2.109375q0.484375 -1.03125 0.484375 -3.046875l0 -1.109375zm14.46167 6.296875l0.4375 2.6875q-1.28125 0.265625 -2.296875 0.265625q-1.65625 0 -2.578125 -0.515625q-0.90625 -0.53125 -1.28125 -1.375q-0.375 -0.859375 -0.375 -3.609375l0 -10.34375l-2.234375 0l0 -2.359375l2.234375 0l0 -4.453125l3.03125 -1.828125l0 6.28125l3.0625 0l0 2.359375l-3.0625 0l0 10.515625q0 1.296875 0.15625 1.671875q0.15625 0.375 0.515625 0.59375q0.375 0.21875 1.046875 0.21875q0.515625 0 1.34375 -0.109375zm2.987976 -18.59375l0 -3.5l3.046875 0l0 3.5l-3.046875 0zm0 21.3125l0 -17.96875l3.046875 0l0 17.96875l-3.046875 0zm7.683899 0l0 -17.96875l2.75 0l0 2.546875q1.96875 -2.953125 5.71875 -2.953125q1.625 0 2.984375 0.59375q1.359375 0.578125 2.03125 1.53125q0.6875 0.9375 0.953125 2.234375q0.171875 0.84375 0.171875 2.96875l0 11.046875l-3.046875 0l0 -10.9375q0 -1.859375 -0.359375 -2.78125q-0.359375 -0.921875 -1.265625 -1.46875q-0.890625 -0.546875 -2.109375 -0.546875q-1.953125 0 -3.375 1.234375q-1.40625 1.234375 -1.40625 4.6875l0 9.8125l-3.046875 0zm18.71164 1.484375l2.96875 0.4375q0.1875 1.375 1.03125 2.0q1.140625 0.84375 3.09375 0.84375q2.125 0 3.265625 -0.84375q1.15625 -0.84375 1.5625 -2.359375q0.234375 -0.9375 0.21875 -3.921875q-2.0 2.359375 -4.96875 2.359375q-3.71875 0 -5.75 -2.671875q-2.03125 -2.671875 -2.03125 -6.421875q0 -2.5625 0.9375 -4.734375q0.9375 -2.1875 2.703125 -3.359375q1.765625 -1.1875 4.15625 -1.1875q3.171875 0 5.234375 2.5625l0 -2.15625l2.8125 0l0 15.53125q0 4.203125 -0.859375 5.953125q-0.84375 1.75 -2.703125 2.765625q-1.84375 1.015625 -4.5625 1.015625q-3.203125 0 -5.1875 -1.453125q-1.984375 -1.4375 -1.921875 -4.359375zm2.53125 -10.796875q0 3.546875 1.40625 5.171875q1.40625 1.625 3.515625 1.625q2.09375 0 3.515625 -1.609375q1.421875 -1.625 1.421875 -5.078125q0 -3.296875 -1.46875 -4.96875q-1.453125 -1.6875 -3.515625 -1.6875q-2.03125 0 -3.453125 1.65625q-1.421875 1.640625 -1.421875 4.890625z" fill-rule="nonzero"/></g></svg>